<svg width="64" height="44" viewBox="0 0 64 44" fill="none" xmlns="http://www.w3.org/2000/svg">
<path d="M5.63119 22.9L5.10619 23.5L3.75619 22.375V16.9L4.50619 16.15L5.63119 17.2V22.9ZM9.23119 23.65L7.65619 22.3V16.825L8.33119 16.15L9.23119 17.05V23.65ZM11.2562 22.15V16.3L9.53119 14.575L7.73119 16.525L5.78119 14.575L3.90619 16.525V15.925C3.90619 14.275 2.93119 14.575 2.93119 13.45C2.93119 12.775 3.38119 12.475 3.90619 12.175L3.75619 12.025C2.18119 12.625 1.28119 13.375 1.28119 14.35C1.28119 15.175 1.88119 15.25 1.88119 16.075V18.475C0.756191 18.475 0.531189 19.525 0.531189 19.975C0.531189 20.2 0.606188 20.5 0.606188 20.575H0.83119C0.90619 20.275 1.05619 19.975 1.43119 19.975H1.88119V23.05L4.13119 25L5.85619 23.125L8.03119 25L11.2562 22.15ZM14.7812 23.35L14.4062 23.725L13.4312 22.825V18.175L13.5062 18.1L14.8562 19.075L14.7812 23.35ZM21.0062 24.1C20.7062 23.725 20.1812 23.5 19.7312 23.5C19.1312 23.5 18.9062 23.725 18.5312 23.875V23.8L20.2562 21.325H21.0062V24.1ZM22.0562 18.25L20.5562 20.425H19.9562V18.1H20.0312C20.3312 18.4 20.7062 18.55 21.0062 18.55C21.4562 18.625 21.6812 18.55 22.0562 18.25ZM17.9312 23.425L17.7062 23.2L17.2562 23.725L16.5062 23.05V18.775L17.1062 18.175L16.8812 17.95L16.4312 18.4L14.7812 17.05L11.7812 19.15V23.275L11.3312 23.8L11.5562 24.025L11.9312 23.65L13.5062 25L14.8562 23.65H14.9312L16.4312 25L17.9312 23.425ZM23.0312 17.275L22.8062 17.125C22.4312 17.425 21.9812 17.5 21.6812 17.5C21.2312 17.5 21.0062 17.275 20.7062 17.05L18.0812 18.925V21.85H19.4312L17.2562 25L17.4812 25.075C17.8562 24.625 18.2312 24.475 18.7562 24.475C19.3562 24.475 19.8062 24.7 20.1062 25.075L22.5812 23.35V19.975H21.0812L23.0312 17.275ZM28.8062 18.175L28.5812 17.95L28.1312 18.4L26.7812 17.125L25.4312 18.55V14.35H25.3562L23.6312 16.075V23.05L23.0312 23.65V23.725L24.4562 25.075L25.7312 23.725L25.2062 23.275V19L25.6562 18.55L26.4062 19.225V24.85C26.4062 25.675 25.8812 26.275 25.1312 26.65L25.2812 26.875C26.7812 26.575 28.1312 25.525 28.1312 24.025V18.55L28.8062 18.175ZM33.0062 23.425L32.7812 23.2L32.2562 23.725L31.5812 23.125V18.625L32.1812 18.025L31.9562 17.8L31.5062 18.25L30.3062 17.2L28.7312 18.925L28.9562 19.15L29.4062 18.7L30.0062 19.225V23.725L29.4812 24.325L29.7062 24.55L30.1562 24.1L31.5062 25.3L33.0062 23.425ZM32.1062 15.7L30.7562 14.5L29.5562 15.775L30.9062 16.975L32.1062 15.7ZM44.4062 26.05C44.4062 26.425 44.1812 26.65 43.8812 26.95C43.4312 26.575 42.9812 26.35 42.3812 26.35C41.6312 26.35 41.2562 26.575 40.7312 26.875L43.2812 23.95V24.175C43.2812 24.85 43.4312 25.15 43.8062 25.375C44.1812 25.45 44.4062 25.675 44.4062 26.05ZM43.2812 23.35L42.8312 23.875L41.8562 23.125V18.325L41.9312 18.25L43.2812 19.225V23.35ZM53.4062 23.95L52.0562 22.975V18.25L53.4062 19.3V23.95ZM39.8312 23.35L39.6062 23.125L39.0812 23.725L38.4812 23.125V18.7L39.0812 18.1L38.8562 17.875L38.4062 18.325L37.0562 17.05L35.5562 18.625V18.325L34.1312 17.05L32.4812 18.775L32.7062 19L33.2312 18.475L33.8312 19.075V23.05L33.2312 23.65V23.725L34.6562 25.075L36.0062 23.725V23.8L35.4812 23.35V19.15L36.0812 18.55L36.8312 19.225V23.875L38.1812 25.15L39.8312 23.35ZM45.5312 18.175L45.3062 17.95L44.7812 18.4L43.1312 17.125L40.1312 19.225V23.65L39.5312 24.25L39.7562 24.475L40.2062 24.025L41.6312 25.15L39.4562 27.7L39.6812 27.85C40.2062 27.475 40.8812 27.25 41.4062 27.25C41.9312 27.25 42.3062 27.475 42.7562 28.075C44.3312 26.875 45.3812 26.2 45.3812 25.525C45.3812 24.925 44.9312 24.925 44.9312 24.175V18.775L45.5312 18.175ZM49.8812 23.35L49.6562 23.125L49.1312 23.725L48.3812 23.125V18.4H49.1312L49.7312 17.575L49.6562 17.5H48.3812V14.65L48.3062 14.575L46.5812 16.375V17.425H46.1312L45.5312 18.25L45.6062 18.325H46.5812V23.8L46.0562 24.325L46.2812 24.55L46.7312 24.1L48.0812 25.15L49.8812 23.35ZM55.6562 18.25L55.4312 18.025L54.9812 18.475L53.1812 17.125L50.3312 19.15V23.425L49.8062 23.95L50.0312 24.175L50.4812 23.725L52.4312 25.15L55.1312 23.125V18.775L55.6562 18.25ZM63.0062 23.35L62.7812 23.125L62.2562 23.725L61.6562 23.125V18.7L62.2562 18.1L62.0312 17.875L61.5812 18.325L60.2312 17.05L58.7312 18.625V18.325L57.3062 17.05L55.6562 18.775L55.8812 19L56.4062 18.475L57.0062 19.075V23.05L56.4062 23.65V23.725L57.8312 25.075L59.1812 23.725V23.8L58.6562 23.35V19.15L59.2562 18.55L60.0062 19.225V23.875L61.3562 25.15L63.0062 23.35ZM30.2312 6.925C30.0062 7.825 29.6312 8.42501 28.8812 8.87501V3.1C30.1562 2.725 30.4562 1.75 30.4562 0.700005H30.2312C30.0062 1.3 29.6312 1.525 28.8812 1.525C27.5312 1.525 26.6312 0.475002 25.5062 0.475002C23.7062 0.475002 22.8062 2.20001 22.8062 3.62501V3.925H23.0312C23.0312 3.1 23.7062 2.35 24.8312 2.35C25.0562 2.35 25.2812 2.42501 25.5062 2.50001C23.8562 3.47501 22.6562 4.675 22.5812 6.475V7.37501C22.8062 9.77501 24.3812 11.275 26.5562 11.275C28.7312 11.275 30.1562 9.175 30.3812 7.15L30.2312 6.925ZM24.1562 6.1C24.1562 4.3 24.9812 3.4 25.7312 2.575L27.4562 3.1L25.0562 4.45L25.2812 4.675L25.8062 4.45V8.425L25.2812 8.65C24.4562 8.05 24.1562 7 24.1562 6.1ZM28.5062 8.95C28.0562 9.175 27.5312 9.25001 27.0812 9.25001C26.4062 9.25001 25.9562 9.025 25.5062 8.725L27.5312 7.6V2.95C27.7562 3.025 27.9812 3.025 28.1312 3.025H28.5062V8.95ZM39.3812 9.62501L37.9562 8.50001V7.75001L40.9562 5.65L39.3062 3.1L36.3062 5.275V9.25001L35.7812 9.775L36.0062 10L36.4562 9.55L38.4812 11.2L40.7312 8.8L40.5062 8.575L39.3812 9.62501ZM38.0312 4.225L39.3812 6.4L38.0312 7.37501V4.225ZM35.7062 3.925L35.2562 4.37501L33.9062 3.1L32.5562 4.525V0.325005H32.4812L30.7562 2.05V9.025L30.1562 9.62501V9.7L31.5812 11.05L32.8562 9.7L32.3312 9.25001V4.975L32.7812 4.525L33.5312 5.2V10.825C33.5312 11.65 33.0062 12.25 32.2562 12.625L32.4062 12.85C33.9062 12.55 35.2562 11.5 35.2562 10V4.525L35.8562 4.00001L35.7062 3.925ZM24.3812 31.6V30.1H24.0812V31.9L23.6312 32.425V30.85L22.1312 29.5L20.4062 31.3L20.6312 31.525L21.0812 31.075L21.6812 31.6V33.325H21.5312C20.6312 33.325 20.1812 33.925 20.1812 34.675C20.1812 35.125 20.2562 35.275 20.3312 35.425H20.5562C20.6312 35.05 20.9312 34.75 21.3812 34.75H21.6812V37.825C20.6312 38.125 20.0312 39.1 19.9562 40.3L20.1062 40.375C20.6312 39.775 21.1562 39.4 21.7562 39.325L21.8312 43.6L23.6312 41.875L24.5312 42.7H24.6062V39.475C24.99 39.6375 25.3257 39.8958 25.5812 40.225L28.3562 38.125V31.225L26.6312 29.575L24.3812 31.6ZM24.0062 41.95L23.5562 41.5V32.65L24.0062 32.125V41.95ZM26.1062 38.35C25.5812 37.825 25.1312 37.6 24.3812 37.525V31.75L25.2062 30.85L26.1812 31.75V38.35H26.1062ZM39.3062 32.05C38.9312 32.35 38.4812 32.425 38.1812 32.425C37.7312 32.425 37.5062 32.2 37.2062 31.975L34.5812 33.85V36.775H36.0062L33.8312 39.925L34.0562 40C34.4312 39.55 34.8062 39.4 35.3312 39.4C35.9312 39.4 36.3812 39.625 36.6812 40L39.1562 38.275V34.9H37.6562L39.4562 32.2L39.3062 32.05ZM37.5062 38.95C37.1312 38.575 36.6062 38.35 36.1562 38.35C35.5562 38.35 35.3312 38.575 34.9562 38.725V38.65L36.6812 36.175H37.4312V38.95H37.5062ZM36.9812 35.35H36.3812V33.025H36.4562C36.7562 33.325 37.1312 33.475 37.4312 33.475C37.9562 33.55 38.1062 33.4 38.4812 33.175L36.9812 35.35ZM42.2312 33.25H42.9812L43.5812 32.425L43.5062 32.35H42.2312V29.5L40.5062 31.3V32.35H40.1312L39.6062 33.175V33.25H40.5812V38.65L40.0562 39.175L40.2812 39.325L40.7312 38.95L42.0812 40L43.7312 38.2L43.5062 37.975L42.9812 38.575L42.2312 37.975V33.25ZM34.0562 32.95L33.6062 33.4L31.8062 32.05L28.9562 34.075V38.35L28.4312 38.875L28.6562 39.1L29.1062 38.65L31.0562 40.075L33.7562 38.05V33.7L34.2812 33.325L34.0562 32.95ZM32.1062 38.875L30.7562 37.9V33.175L32.1062 34.225V38.875Z" fill="#FFFEF0"/>
</svg>
