<svg width="119" height="54" viewBox="0 0 119 54" fill="none" xmlns="http://www.w3.org/2000/svg">
<path d="M106.475 45.8872L108.426 39.8302L110.342 45.8872H106.475ZM112.62 52.5369H117.903L110.389 33.6539H106.483L98.9735 52.5368H104.205L105.198 49.7796L111.65 49.7797L112.62 52.5369ZM95.2709 45.5203C94.1976 47.3335 92.6892 48.2377 90.7861 48.2377C89.4092 48.2377 88.2082 47.7168 87.1869 46.6856C86.1775 45.644 85.6745 44.3851 85.6745 42.9107C85.6745 41.5242 86.1775 40.3509 87.1829 39.3954C88.1883 38.4338 89.4174 37.9529 90.8577 37.9529C92.8213 37.9529 94.3213 38.9045 95.3908 40.8118H100.57C99.9473 38.4975 98.7501 36.6682 96.9747 35.2975C95.1912 33.9269 93.1479 33.2447 90.8338 33.2447C88.0568 33.2447 85.6825 34.1843 83.7113 36.0535C81.7441 37.9229 80.7546 40.1973 80.7546 42.8726C80.7546 45.6778 81.7044 48.0457 83.6037 49.9871C85.4952 51.9304 87.881 52.894 90.7861 52.894C93.1402 52.894 95.183 52.2417 96.9149 50.9188C98.6467 49.5998 99.8235 47.7988 100.474 45.5203H95.2709ZM79.031 33.6537H74.2665V52.5368H79.031V33.6537ZM62.3842 37.9051H63.7211C65.828 37.9051 66.8851 38.6352 66.8851 40.0897C66.8851 40.9176 66.5941 41.4981 66.0113 41.8392C65.4487 42.1865 64.5471 42.3562 63.33 42.3562H62.3842V37.9051ZM66.1392 52.5368H72.0601L67.2721 46.0408C68.6644 45.6735 69.7457 44.9436 70.5162 43.8684C71.3059 42.787 71.6891 41.4861 71.6891 39.9661C71.6891 37.6318 70.8072 35.8741 69.0556 34.6912C68.0502 34.0047 66.3944 33.6537 64.1082 33.6537H57.6358V52.5368H62.3839L62.384 46.4501L66.1392 52.5368ZM54.5874 48.3454H48.738V45.0673H54.5874V40.8677H48.738V37.8492H54.5874V33.6536H43.9899V52.5368H54.5874V48.3454ZM25.5514 40.0437L29.5736 52.5368H32.9453L36.9632 40.0437V52.5368H41.5081V33.6537H35.012L31.2574 45.1988L27.5306 33.6537H21.0068V52.5368H25.5514V40.0437ZM8.78503 45.8872L10.7364 39.8302L12.6597 45.8872H8.78503ZM14.9297 52.5369H20.2047L12.6953 33.6539H8.79718L1.27979 52.5368H6.51471L7.49624 49.7796L13.9602 49.7797L14.9297 52.5369ZM80.1046 12.097V4.2645H81.4929C82.7857 4.2645 83.7754 4.60171 84.4457 5.27598C85.1324 5.95454 85.4631 6.91592 85.4631 8.16689C85.4631 9.51558 85.1518 10.505 84.4978 11.1414C83.8553 11.7859 82.8734 12.097 81.5049 12.097H80.1046ZM86.8993 13.4278C88.2721 12.123 88.9703 10.4013 88.9703 8.27648C88.9703 5.99402 88.2721 4.2126 86.868 2.93776C86.1576 2.2893 85.3591 1.83628 84.4898 1.59293C83.7236 1.37954 82.7221 1.28181 81.4972 1.28181H76.6053V15.1475H81.984C83.0768 15.1475 83.9546 15.0457 84.6288 14.8364C85.4112 14.5889 86.1694 14.12 86.8993 13.4278ZM68.4013 4.45222C69.4107 4.45222 70.2767 4.80724 70.995 5.51547C71.7331 6.2237 72.0924 7.08943 72.0924 8.10698C72.0924 9.2242 71.737 10.1498 71.007 10.884C70.2926 11.6103 69.4109 11.9733 68.3693 11.9733C67.348 11.9733 66.4661 11.6025 65.7122 10.8501C64.9538 10.1 64.5789 9.19025 64.5789 8.10698C64.5787 7.08943 64.95 6.2237 65.6962 5.51547C66.4301 4.80724 67.332 4.45222 68.4013 4.45222ZM68.3692 15.3948C70.4443 15.3948 72.2039 14.6746 73.648 13.2283C75.0291 11.8397 75.7309 10.142 75.7309 8.127C75.7309 6.16393 74.9851 4.47804 73.5128 3.07358C72.0685 1.71288 70.3601 1.0306 68.3855 1.0306C66.3349 1.0306 64.5789 1.71288 63.1424 3.07358C61.7019 4.44021 60.988 6.10002 60.988 8.05922C60.9879 10.1338 61.682 11.8695 63.0667 13.2781C64.467 14.6907 66.2225 15.3948 68.3692 15.3948ZM52.9556 4.45222C53.9693 4.45222 54.827 4.80724 55.5612 5.51547C56.2795 6.2237 56.6425 7.08943 56.6425 8.10698C56.6425 9.2242 56.2795 10.1498 55.5651 10.884C54.847 11.6103 53.9692 11.9733 52.9159 11.9733C51.9023 11.9733 51.0166 11.6025 50.2664 10.8501C49.5202 10.1 49.1373 9.19025 49.1373 8.10698C49.1372 7.08943 49.508 6.2237 50.2504 5.51547C50.9927 4.80724 51.8864 4.45222 52.9556 4.45222ZM52.9199 15.3948C54.9906 15.3948 56.7661 14.6746 58.2027 13.2283C59.5871 11.8397 60.2814 10.142 60.2814 8.127C60.2814 6.16393 59.5394 4.47804 58.055 3.07358C56.6225 1.71288 54.9268 1.0306 52.9438 1.0306C50.8808 1.0306 49.1373 1.71288 47.7048 3.07358C46.2682 4.44021 45.5459 6.10002 45.5459 8.05922C45.5459 10.1338 46.2363 11.8695 47.6328 13.2781C49.0214 14.6907 50.7851 15.3948 52.9199 15.3948ZM37.7254 10.108H40.7778C40.0598 11.375 38.9783 12.0074 37.5497 12.0074C36.5483 12.0074 35.6745 11.6222 34.9283 10.8582C34.1782 10.0901 33.8111 9.1723 33.8111 8.08503C33.8111 7.08156 34.1661 6.21569 34.8962 5.49739C35.6184 4.77714 36.5041 4.41812 37.5577 4.41812C38.6351 4.41812 39.6125 4.87501 40.4986 5.78477H44.4846C43.9181 4.3124 43.0082 3.15101 41.7635 2.2893C40.5463 1.42729 39.1497 1.00037 37.6017 1.00037C35.5586 1.00037 33.815 1.68279 32.3787 3.05743C30.934 4.43193 30.204 6.09988 30.204 8.05895C30.204 10.1239 30.9102 11.8615 32.2987 13.2919C33.6793 14.7124 35.4391 15.4246 37.5578 15.4246C38.7948 15.4246 39.9241 15.1533 41.0093 14.5927C42.0986 14.0461 42.9763 13.2879 43.6586 12.3223C44.4724 11.1612 44.8836 9.80448 44.8836 8.26047C44.8836 8.05895 44.8797 7.75555 44.8397 7.34271L37.7254 7.34278L37.7254 10.108ZM97.0144 26.3098H100.063C99.3365 27.5767 98.2674 28.213 96.843 28.213C95.8336 28.213 94.9637 27.8242 94.2135 27.064C93.4632 26.2999 93.0963 25.3741 93.0963 24.2909C93.0963 23.2794 93.4553 22.4217 94.1776 21.7072C94.9041 20.983 95.7934 20.6238 96.843 20.6238C97.9164 20.6238 98.8977 21.0808 99.7838 21.9905H103.778C103.195 20.5123 102.29 19.3533 101.061 18.4953C99.8236 17.6313 98.435 17.2044 96.8869 17.2044C94.8398 17.2044 93.1084 17.8888 91.6561 19.2634C90.2236 20.636 89.5013 22.3059 89.5013 24.2689C89.5013 26.33 90.1876 28.0675 91.5723 29.4939C92.9729 30.9184 94.7206 31.6346 96.8433 31.6346C98.0763 31.6346 99.2215 31.3495 100.303 30.8027C101.372 30.2521 102.258 29.488 102.94 28.5243C103.766 27.3631 104.173 26.0146 104.173 24.4642C104.173 24.2688 104.157 23.9615 104.13 23.5485L97.0144 23.5486L97.0144 26.3098ZM80.26 23.6323L85.5945 31.3493H88.6713V17.4777H85.1756V25.1868L79.9248 17.4777H76.7566V31.3495H80.26V23.6323ZM75.2563 17.4777H71.7613V31.3495H75.2563V17.4777ZM67.2126 31.3493H70.2926V17.4777H66.7936V25.1868L61.5305 17.4777H58.3743V31.3495H61.8692L61.8693 23.6323L67.2126 31.3493ZM50.0748 20.594H51.0442C52.5843 20.594 53.3465 21.1327 53.3465 22.212C53.3465 22.8266 53.1351 23.2534 52.7322 23.5089C52.3051 23.7602 51.6548 23.884 50.7649 23.884H50.0748V20.594ZM52.8198 31.3495H57.1412L53.6418 26.5953C54.6673 26.3218 55.4574 25.7891 56.024 24.9991C56.5985 24.2012 56.8779 23.2454 56.8779 22.1263C56.8779 20.4106 56.2435 19.1138 54.9507 18.2458C54.2125 17.7351 53.0037 17.4777 51.3197 17.4777H46.5715V31.3495H50.0749L50.0749 26.8843L52.8198 31.3495ZM38.3398 20.6578C39.3532 20.6578 40.215 21.0089 40.9453 21.7173C41.6675 22.4295 42.0345 23.2953 42.0345 24.3069C42.0345 25.43 41.6715 26.3558 40.9495 27.086C40.235 27.8122 39.3533 28.1792 38.288 28.1792C37.2905 28.1792 36.4007 27.8021 35.6545 27.056C34.8963 26.3038 34.5173 25.3921 34.5173 24.3069C34.5172 23.2953 34.8923 22.4295 35.6385 21.7173C36.3726 21.0091 37.2746 20.6578 38.3398 20.6578ZM38.3077 31.6008C40.3826 31.6008 42.1422 30.8804 43.5827 29.438C44.9674 28.0494 45.6576 26.3438 45.6576 24.3287C45.6576 22.3616 44.9154 20.6797 43.447 19.2791C42.0067 17.9187 40.2947 17.2301 38.3197 17.2301C36.2649 17.2301 34.517 17.9187 33.0845 19.2791C31.6483 20.6458 30.9259 22.3056 30.9259 24.2688C30.9262 26.3398 31.6204 28.0715 33.013 29.48C34.4018 30.8966 36.1692 31.6008 38.3077 31.6008ZM21.306 31.3495H23.7799L26.7248 22.182V31.3495H30.0686V17.4777H25.2963L22.539 25.9667L19.8019 17.4777H15.0056V31.3495H18.3496L18.3495 22.182L21.306 31.3495Z" fill="#FFFEF0"/>
</svg>
