<svg width="74" height="57" viewBox="0 0 74 57" fill="none" xmlns="http://www.w3.org/2000/svg">
<path d="M27.27 11.4071V5.90606L25.4631 6.62883C25.4631 6.62883 25.0214 7.55237 25.1017 8.9176C25.1418 10.0018 25.7843 11.2465 26.2661 11.8087L27.27 11.4071ZM32.1286 0.0837402C32.5302 0.123894 33.2128 0.324664 33.6946 0.726203C34.2166 1.20805 34.3371 1.97097 34.1765 2.65359C34.0159 3.2559 33.8151 3.57713 33.1726 4.01882C32.5302 4.46052 32.0483 4.50067 32.0483 4.50067V7.15083L33.2931 8.11452L32.0483 9.23883V12.8527C32.0483 12.8527 33.0923 12.0095 33.8954 10.3631C33.8954 10.3631 33.9355 10.2828 34.0159 10.0821C34.0962 10.5238 34.056 11.4473 33.534 12.5716C33.1325 13.455 32.4499 14.2581 31.5263 14.7399C29.9603 15.5832 28.7557 15.6635 27.5109 15.4225C26.0252 15.1415 24.66 14.3384 23.7766 12.933C23.1341 11.9291 22.8531 10.8048 22.8531 9.56006C22.8932 7.11068 24.7805 5.02267 26.9488 4.21959C27.2298 4.13929 27.3102 4.05898 27.6715 4.01882C27.5109 4.13929 27.3102 4.25975 27.0692 4.42036C26.3866 4.86206 25.7843 5.74544 25.5032 6.42806L29.6792 4.62113V10.2828L26.3465 11.9291C26.748 12.4511 27.9125 13.2141 28.9163 13.3345C30.6028 13.5353 31.7271 12.8928 31.7271 12.8928V9.19868L30.4823 8.11452L31.7271 7.15083V4.50067C31.0043 4.42036 30.0005 4.09913 29.5186 3.97867C28.7557 3.81805 26.2661 3.13544 25.8646 3.05513C25.4631 3.01498 24.9812 3.01498 24.7001 3.2559C24.4191 3.49682 24.2183 3.97867 24.3388 4.38021C24.4191 4.62113 24.5797 4.74159 24.7001 4.86206C24.7001 4.86206 24.5395 4.86206 24.2986 4.70144C23.8168 4.42036 23.4554 3.89836 23.4152 3.21575C23.3918 2.79554 23.4752 2.37625 23.6578 1.99706C23.8404 1.61787 24.1161 1.29115 24.4592 1.04743C25.1017 0.645895 25.8245 0.404972 26.6677 0.525433C27.9125 0.686049 29.5588 1.36867 31.0445 1.73005C31.6066 1.85051 32.0483 1.89067 32.4499 1.6899C32.6506 1.56944 32.9719 1.20805 32.6908 0.766357C32.3695 0.244356 31.7672 0.244356 31.2452 0.164048C31.7271 0.0837402 31.8074 0.0837402 32.1286 0.0837402Z" fill="#FFFEF0"/>
<path d="M48.4709 9.96162L46.5435 11.3269V6.82962L48.4709 9.96162ZM48.3906 5.625L46.2625 6.86977L44.2548 7.91377V13.1338L43.4919 13.7361L43.6123 13.8566L44.3752 13.2542L46.7443 15.3021L50.84 12.1701L50.7597 12.0496L48.4709 13.7762L46.5435 12.1299V11.4875L50.2779 8.83731L48.3906 5.625Z" fill="#FFFEF0"/>
<path d="M37.6295 17.3498C38.1515 17.4703 39.1152 17.5506 40.2797 16.9884C41.5646 16.3861 42.0464 15.061 42.0464 13.736L42.0866 11.8487V7.67272L42.8897 7.07042L42.8094 6.94995L42.0063 7.55226L40.2797 5.54457L37.6295 7.51211V0.846558L34.9392 3.05502C35.0596 3.13533 35.662 3.21564 35.662 3.77779V13.1337L34.2566 14.017L34.3369 14.1375L34.9392 13.6958L36.6256 15.2217L39.2758 13.1738L39.1955 13.0533L38.553 13.5352L37.6697 12.9329V7.71288L38.7137 7.07042L40.1592 8.55611V13.0533C40.1592 14.258 39.838 15.6634 39.1955 16.3861C38.553 17.1089 38.3121 17.149 37.6295 17.3498Z" fill="#FFFEF0"/>
<path d="M49.7966 50.3878L47.6684 51.753V47.2558L49.7966 50.3878ZM49.7565 46.0511L47.5881 47.2959L45.6206 48.3399V53.5599L44.7774 54.1622L44.8978 54.2827L45.6607 53.6804L48.0298 55.7282L52.1255 52.5962L52.0452 52.4758L49.7565 54.2024L47.8692 52.5159V51.8735L51.6035 49.2233L49.7565 46.0511Z" fill="#FFFEF0"/>
<path d="M42.9439 55.7269L45.4338 53.5194L45.3137 53.3992L44.713 53.9218L43.6692 52.9577V48.059L44.6724 47.3757L44.5928 47.2555L43.6692 47.9388L41.9828 46.0917L39.574 47.9388L37.8469 46.1728L35.5192 47.9388L33.7922 46.1728L31.3023 48.2752L31.3819 48.3954L32.1853 47.7526L33.3116 48.9991V53.3361L32.75 53.8167L34.5566 55.769L36.4038 54.0029L35.6409 53.24V48.0199L36.0824 47.6595L37.2462 49.1057V53.4007L36.8858 53.8813L38.5723 55.6879L40.3789 53.9609L39.6581 53.2776V48.0575L40.1807 47.6565L41.6824 49.0621V53.3572L41.0817 53.7581L42.9439 55.7269ZM28.0074 53.8002L27.2866 54.4009L27.3662 54.521L28.1291 53.8783L29.775 55.7254L32.1448 53.677L32.0652 53.5569L31.3443 54.1576L30.3802 53.0733V48.2182L31.2212 47.5349L31.101 47.4147L30.2976 48.098L28.5706 46.1457L26.0176 48.1536L26.339 48.2332L26.9817 47.7106L28.0255 48.8744L28.0074 53.8002ZM30.1189 44.0027L28.3123 45.5691L26.8661 44.0433L28.6772 42.4364L30.1189 44.0027Z" fill="#FFFEF0"/>
<path d="M18.8377 51.8333V46.3322L17.1513 47.055C17.1513 47.055 16.7096 47.9785 16.7899 49.3438C16.83 50.4279 17.4725 51.6727 17.9544 52.2348L18.8377 51.8333ZM23.6562 40.5099C24.0979 40.55 24.7404 40.7508 25.2222 41.1524C25.7442 41.6342 25.8647 42.3971 25.7041 43.0797C25.5434 43.682 25.3427 44.0033 24.7002 44.445C24.0577 44.8867 23.5759 44.8465 23.5759 44.8465V47.4967L24.7805 48.5407L23.5759 49.5847V53.1584C23.5759 53.1584 24.5798 52.4356 25.423 50.7893C25.423 50.7893 25.4631 50.709 25.5434 50.5082C25.6238 50.9499 25.5836 51.8735 25.0616 52.9978C24.6601 53.8812 23.9774 54.6842 23.0539 55.1661C21.4879 56.0093 20.2833 56.0896 19.0385 55.8487C17.5528 55.5676 16.1876 54.7645 15.3042 53.3591C14.6617 52.3553 14.3807 51.231 14.3807 49.9862C14.4208 47.5368 16.308 45.4488 18.4763 44.6457C18.7173 44.5654 18.8377 44.4851 19.1991 44.445C19.0385 44.5654 18.8377 44.6859 18.5968 44.8465C17.9142 45.2882 17.3119 46.1716 17.0308 46.8542L21.1667 45.1276V50.7893L17.874 52.3553C18.2756 52.8773 19.4401 53.6402 20.4439 53.7607C22.1304 53.9615 23.2145 53.2387 23.2145 53.2387V49.5445L22.0099 48.5005L23.2145 47.4565V44.8064C22.4918 44.7261 21.5682 44.4851 21.0462 44.3647C20.2833 44.2041 17.7937 43.5214 17.3922 43.4411C16.9907 43.401 16.5088 43.401 16.2277 43.6419C15.9467 43.8828 15.7459 44.3647 15.8663 44.7662C15.9467 45.0071 16.1073 45.1276 16.2277 45.2481C16.2277 45.2481 16.0671 45.2481 15.8262 45.0874C15.3444 44.8064 14.983 44.2844 14.9428 43.6017C14.9194 43.1815 15.0028 42.7622 15.1854 42.3831C15.368 42.0039 15.6437 41.6771 15.9868 41.4334C16.6293 41.0319 17.352 40.791 18.1953 40.9114C19.4401 41.072 21.0864 41.7547 22.5721 42.116C23.1342 42.2365 23.5759 42.2767 23.9774 42.0759C24.1782 41.9554 24.4994 41.594 24.2184 41.1524C23.8971 40.6303 23.2948 40.6303 22.7728 40.55C23.2145 40.5099 23.335 40.5099 23.6562 40.5099Z" fill="#FFFEF0"/>
<path d="M54.8961 47.0952V49.7052L56.0204 50.4681C56.0204 50.4681 57.9478 48.9423 58.6706 47.577C58.6706 47.577 57.7872 48.7415 56.6227 48.3801C55.6189 48.099 55.1371 47.1353 55.1371 47.1353M52.9286 53.9615C52.9286 53.9615 53.7718 52.5963 55.2575 52.8773C56.6629 53.1584 57.3054 54.604 57.3054 54.604V51.3113L56.1409 50.5083C55.0969 51.5523 53.1695 53.038 52.9286 53.9615ZM54.334 56.451C54.0529 56.5314 52.8884 56.2503 52.6073 55.0457C52.3263 53.8812 53.1695 53.1183 54.4143 51.8735L52.9286 50.5484V48.0589C52.9286 48.0589 54.0127 47.5369 54.856 47.0149L56.5826 45.9307C56.5826 45.9307 57.2251 46.6936 57.9478 46.6535C59.0721 46.5732 59.032 45.6898 58.9918 45.489C59.1926 45.8102 59.7146 46.8141 57.7069 49.0226L59.3131 50.2673V53.5198C59.3131 53.5198 57.466 54.4433 55.659 55.7283C55.659 55.7283 54.6552 54.5237 53.812 55.0858C53.2498 55.5275 53.5309 56.17 54.334 56.451Z" fill="#FFFEF0"/>
<path d="M3.55429 35.2655C2.51029 35.1451 2.0686 34.5428 2.0686 34.0208C2.0686 33.6995 2.38983 33.0972 3.03229 33.0169C3.67475 32.9366 4.31722 33.2177 4.87937 33.8601L7.32876 31.2501L7.2083 31.1297L6.56583 31.8524C5.88322 31.1297 5.08014 30.6478 4.11645 30.5274V22.5367L10.3403 33.7397C10.3403 33.7397 10.5009 33.8601 10.782 33.8601C11.0229 33.8601 10.9426 33.6995 10.9426 33.6995V22.4163C11.4646 22.4163 12.1472 22.1352 12.5488 21.7336C13.7534 20.529 13.2715 19.204 13.1511 19.0433C13.0708 19.6055 12.6291 20.2078 11.8662 20.2078C10.8623 20.2078 10.26 19.485 10.26 19.485L7.7303 22.2155L7.85076 22.336L8.53338 21.573C9.37661 22.336 9.85846 22.4163 10.5009 22.4564V29.0015L5.96353 20.6896C5.52183 20.007 4.87937 19.4047 3.87552 19.4047C2.71106 19.4047 1.86783 20.4086 1.74736 21.2518C1.6269 22.2155 1.74736 22.4564 1.74736 22.4564C1.74736 22.4564 1.90798 21.3723 2.5906 21.3723C3.1929 21.3723 3.39368 21.6935 3.67475 22.095V24.7452C3.03229 24.7853 1.50644 24.8657 1.38598 26.5521C1.38598 27.1946 1.78752 27.837 2.1489 28.0378C2.5906 28.3189 2.95198 28.3189 2.95198 28.3189C2.95198 28.3189 2.42998 28.0378 2.5906 27.4757C2.75121 26.9938 3.67475 26.9135 3.71491 27.1143V30.4872C3.19291 30.4872 1.70721 30.5274 0.944285 31.8926C0.502592 32.6957 0.542745 33.6192 0.984438 34.2617C1.38598 34.8238 2.18906 35.5064 3.55429 35.2655Z" fill="#FFFEF0"/>
<path d="M17.046 28.3591L14.958 29.7243V25.2271L17.046 28.3591ZM16.9657 24.0225L14.7974 25.2672L12.9102 26.3112V31.5312L12.1473 32.1336L12.2677 32.254L13.0306 31.6517L15.2391 33.6996L19.3348 30.5675L19.2545 30.4471L16.9657 32.1737L15.1187 30.4872V29.8448L18.853 27.1946L16.9657 24.0225Z" fill="#FFFEF0"/>
<path d="M22.7479 33.8199L20.7402 32.2138L19.8568 32.8161L19.7765 32.6956L20.6599 32.0532V27.5158C20.7 25.6687 18.8931 26.1104 19.0136 24.1428C19.0537 23.2594 19.9371 22.617 20.3788 22.4162C20.8607 22.1753 21.3425 22.1753 21.3425 22.1753C21.3425 22.1753 20.4993 22.6571 20.7 23.3799C21.0213 24.5042 22.9487 24.5845 22.9888 26.0702V31.2099L24.2336 32.3342L24.595 32.0532V26.4718L24.0328 25.7088L26.0405 23.9822L27.8876 25.5482L27.0444 26.271V31.2099L28.8914 32.5752L29.2127 32.3744V26.4718L28.4497 25.749L30.4574 23.9822L32.3447 25.4679L33.1076 24.8255L33.1879 24.9459L31.5014 26.3915V31.2099L27.205 33.7798L24.9965 32.1335L22.7479 33.8199Z" fill="#FFFEF0"/>
<path d="M50.6951 30.7282L52.7831 32.5351V26.9938L50.6951 25.1468V30.7282ZM55.1522 26.1908L55.8749 25.5483L55.9954 25.6688L55.112 26.3112V31.4911L53.024 32.6957L51.0966 33.82L48.6472 31.8123L48.0048 32.3745L47.8843 32.254L48.7275 31.6919V26.0703H48.6071L50.7352 25.0263L52.5823 23.9823L55.1522 26.1908Z" fill="#FFFEF0"/>
<path d="M60.0107 25.6688L61.5767 24.1028C61.5767 24.1028 61.7775 24.3035 61.9782 24.3838C62.0987 24.424 62.5805 24.6649 62.9821 24.424C63.223 24.3035 63.2632 24.2634 63.5041 24.0225C63.5442 25.2271 62.9419 26.0703 62.2192 26.4317C61.8979 26.5923 60.8539 26.8332 59.8902 25.7491V31.3305L61.0547 32.1737L61.8979 31.5312L61.9782 31.6517L59.4084 33.7397L57.4408 32.0131L56.7181 32.6556L56.5976 32.5351L57.481 31.6116V26.8332L56.8385 25.7892L56.1158 26.3915L55.9953 26.2711L58.4848 24.1028L60.0107 25.6688Z" fill="#FFFEF0"/>
<path d="M66.596 27.9977L69.4871 23.9421C69.4871 23.9421 69.8886 24.3838 70.5311 24.5444C71.4145 24.7854 72.2175 23.9421 72.2175 23.9421C72.0569 25.0263 71.4948 26.2711 70.3303 26.4718C69.2863 26.6325 68.3226 25.8695 68.3226 25.8695L68.1218 26.1506L72.1372 32.0131L72.9403 31.3305L73.0608 31.4509L70.2902 33.7799L66.596 27.9977Z" fill="#FFFEF0"/>
<path d="M64.3472 22.5367C64.3472 21.6533 63.8252 21.1313 63.3434 21.1715L66.3549 19.0433V31.1698L67.3186 32.0131L67.9611 31.4911L68.0815 31.6115L65.5518 33.7397L63.8252 32.1737L63.1426 32.776L63.0221 32.6555L64.3874 31.6517V22.5367H64.3472Z" fill="#FFFEF0"/>
<path d="M43.9491 25.9498C43.9491 25.9498 43.5877 26.3513 43.0657 26.3513C42.5036 26.3513 42.2626 25.9498 42.2626 25.9498V27.5961C42.2626 27.5961 42.5036 27.1946 43.0657 27.1946C43.6279 27.1946 43.9491 27.556 43.9491 27.556V25.9498ZM43.8688 22.4163L42.865 21.3723L42.2626 21.8139V25.7089C42.2626 25.7089 42.624 26.1506 43.1862 26.1506C43.7483 26.1506 43.8688 25.7089 43.8688 25.7089V22.4163ZM42.2626 33.4184C42.2626 33.4184 42.9854 33.6192 43.5476 33.1775C44.1499 32.6957 43.8688 32.0532 43.8688 32.0532V27.8772C43.8688 27.8772 43.7082 27.4355 43.1862 27.4355C42.624 27.4355 42.2626 27.8772 42.2626 27.8772V33.4184ZM37.8457 22.3359C37.8457 21.5329 37.4843 21.051 36.9623 21.051C36.1593 21.051 35.9585 22.1352 35.9585 22.1352C35.9585 22.1352 35.7979 21.2919 36.5608 20.529C36.9623 20.0873 37.7253 19.485 38.9299 19.7661C40.1746 20.0472 40.6565 20.9707 40.6565 21.8139V33.0972C40.8684 33.1487 41.0828 33.1889 41.299 33.2177C41.6603 33.298 41.8611 33.3783 41.8611 33.3783V19.8063H42.2626V21.6533L44.712 19.6858L46.5591 21.2919L47.4425 20.5692L47.5228 20.6896L46.6394 21.4526V31.9327C46.5993 32.6154 46.4788 33.298 45.7962 33.6995C44.3105 34.5427 42.5036 33.579 40.8974 33.3381C39.6928 33.1775 37.8457 32.9366 37.3639 34.0207C37.2033 34.3821 37.2033 34.9041 37.7654 35.2655C38.8496 35.9481 43.668 34.101 45.3143 34.8238C46.8 35.5064 46.8 36.5906 46.5993 37.3134C46.1977 38.6786 44.3908 38.9597 44.3908 38.9597C44.3908 38.9597 45.2742 38.4778 45.0333 37.6346C44.9128 37.2331 44.6317 37.1126 43.668 37.1929C41.6202 37.4338 39.1306 38.3975 37.4843 37.7149C36.6411 37.3535 36.0388 36.3497 36.0789 35.3057C36.1191 33.8601 37.8859 33.2578 37.8859 33.2578V27.837C37.8457 27.6363 36.9222 27.6764 36.6813 28.078C36.36 28.6803 37.0828 28.9613 37.0828 28.9613C37.0828 28.9613 36.5206 29.0417 36.0388 28.5197C35.7979 28.2787 35.316 27.3552 35.9585 26.4718C36.4805 25.749 37.1229 25.6286 37.926 25.5483L37.8457 22.3359Z" fill="#FFFEF0"/>
</svg>
