<svg width="65" height="64" viewBox="0 0 65 64" fill="none" xmlns="http://www.w3.org/2000/svg">
<g clip-path="url(#clip0_570_2289)">
<path d="M31.8539 20.7939C30.6989 20.6415 29.6475 20.0168 28.7972 19.2427C28.4955 18.9562 28.2517 18.6179 27.9865 18.2979C27.825 18.1394 27.6391 17.9291 27.5172 17.7554C27.4288 17.6427 27.3221 17.5116 27.4014 17.3653C27.5537 17.0849 27.8372 17.411 28.0109 17.5055C28.5534 17.7707 29.044 18.1272 29.5499 18.4533C30.1016 18.7794 30.5892 19.0537 31.1743 19.2884C32.0642 19.5474 33.0577 19.6937 33.9477 19.3585C34.7736 19.0019 35.4349 18.3741 36.1358 17.8255C36.5777 17.4781 37.044 17.1642 37.5591 16.9326C37.8608 16.8107 38.1595 16.5425 38.5008 16.6065C38.9214 16.7375 39.0006 17.3227 38.7781 17.6579C38.5678 17.9627 38.1595 18.0206 37.8577 18.2095C37.364 18.4228 36.9374 18.752 36.5137 19.075C35.0997 20.3093 33.8166 21.1962 31.8539 20.7939Z" fill="#004449"/>
<path d="M23.3175 40.643C23.2901 40.6186 23.2901 40.5821 23.3023 40.5486C23.348 40.4602 23.4547 40.4206 23.5248 40.3535C24.0063 39.9482 24.4573 39.6708 24.9663 39.3539C25.7252 38.8693 26.4261 38.4 27.188 37.9428C28.2455 37.3272 29.1507 36.4861 30.2052 35.8674C31.6375 35.0171 32.9511 34.9714 34.481 35.6206C35.9591 36.352 37.2482 37.4186 38.7568 38.0983C39.4638 38.4244 40.1709 38.7474 40.9236 38.9607C41.1583 39.0369 41.396 39.1101 41.6337 39.1832C41.7892 39.2289 41.9415 39.2747 42.0391 39.4118C42.2097 39.6587 42.1244 40.0152 41.9324 40.2255C41.7069 40.4815 41.4052 40.5333 41.1004 40.3962C40.0551 40.0853 39.0341 39.7196 38.0558 39.2411C37.361 38.912 36.6905 38.528 36.0474 38.1105C35.2337 37.5924 34.4688 37.056 33.5972 36.6903C33.0303 36.4952 32.4238 36.3794 31.8234 36.4647C30.3758 36.7604 29.3457 37.9276 28.1175 38.659C27.38 39.1009 26.6394 39.5428 25.8653 39.9207C25.3137 40.2072 24.7103 40.3322 24.116 40.4846C23.9027 40.5516 23.6893 40.6217 23.4669 40.6644C23.4181 40.6735 23.3632 40.6826 23.3236 40.6461L23.3175 40.643Z" fill="#004449"/>
<path d="M30.0589 36.3093C29.748 36.2118 29.6688 35.8186 29.7663 35.5413C29.8425 35.2457 30.1138 35.0689 30.2722 34.819C30.6623 34.1516 30.8696 33.408 31.0524 32.6613C31.2749 31.9177 31.4821 31.1741 31.601 30.4061C31.8357 29.4034 31.8997 28.3702 31.9332 27.3432C31.9088 25.9962 31.7595 24.6491 31.4578 23.3356C31.3419 22.7382 31.1865 22.144 30.9945 21.568C30.8878 21.3424 30.7995 21.1078 30.6867 20.8883C30.5465 20.6689 30.3667 20.2788 30.6776 20.1264C31.2932 19.968 31.9088 21.1504 32.0703 21.632C32.7042 23.2868 32.945 25.0727 33.0151 26.8342C33.0303 27.2122 33.0151 27.5901 32.9907 27.968C32.9389 28.7177 32.8962 29.4704 32.7317 30.208C32.5976 30.9059 32.4818 31.6099 32.2715 32.2925C31.9667 33.2891 31.7838 34.3314 31.2718 35.2518C31.1256 35.5504 30.9214 35.8156 30.6989 36.0624C30.5465 36.2483 30.2997 36.3824 30.0589 36.3123V36.3093Z" fill="#004449"/>
<path d="M35.3496 37.0804C35.1515 37.0621 35.0204 36.8975 34.8863 36.7665C34.5237 36.4129 34.3103 35.9528 34.0818 35.5078C33.7069 34.8617 33.5515 34.1303 33.393 33.408C33.2406 32.707 33.0486 32.0122 32.9602 31.3021C32.7347 29.7661 32.5244 28.2209 32.5854 26.6636C32.5854 25.8895 32.6098 25.1185 32.7286 24.3535C32.8901 23.104 33.1858 21.8514 33.7922 20.736C33.9781 20.3733 34.2311 20.0472 34.5419 19.7851C34.7675 19.5627 34.8406 19.8065 34.7553 20.0198C34.2067 21.824 33.7739 23.6069 33.6795 25.4811C33.652 26.3802 33.6551 27.0964 33.6795 27.9558C33.7618 29.1413 33.9355 30.3177 34.1183 31.491C34.2707 32.192 34.4383 32.8899 34.5999 33.5909C34.6821 34.0754 34.9168 34.5051 35.1423 34.9379C35.5903 34.7398 35.8799 35.264 36.0231 35.6084C36.0962 35.8248 36.0962 36.0716 36.0292 36.288C36.0414 36.6598 35.7549 37.12 35.3435 37.0773L35.3496 37.0804Z" fill="#004449"/>
<path d="M32.5945 24.3535C32.5793 24.3322 32.5671 24.3078 32.558 24.2834C32.2166 24.2529 32.0703 23.8537 32.1404 23.5581C32.0764 23.4605 32.0399 23.3386 32.0399 23.2198C31.7412 23.0918 31.7077 22.7261 31.7473 22.4426C31.5583 22.3451 31.4852 22.1257 31.4639 21.9245C31.409 21.888 31.3633 21.8423 31.3206 21.7874C31.284 21.7386 31.2536 21.6838 31.2292 21.6259C31.0098 21.5101 30.9427 21.2906 30.9244 21.0712C30.894 20.8548 30.8513 20.6384 30.8818 20.4221C30.9214 20.0289 31.409 19.6327 31.7656 19.9223C31.9819 19.904 32.177 20.0503 32.2593 20.2453C32.3842 20.1813 32.5458 20.1813 32.6707 20.2453C32.7439 20.2819 32.7987 20.3367 32.8383 20.4007C32.8932 20.3977 32.948 20.4007 32.9999 20.4129C33.1035 20.1752 33.2315 19.9192 33.4905 19.8247C33.7252 19.7303 33.9934 19.843 34.0879 20.0807C34.4139 20.1082 34.545 20.4922 34.4901 20.7725C34.4566 20.9432 34.3713 21.1047 34.2981 21.2632C34.0757 21.7691 33.8044 22.2506 33.5454 22.7383C33.332 23.1223 33.2985 23.5733 33.0974 23.9634C33.0669 24.0213 33.0242 24.0762 32.9724 24.1219C32.948 24.1981 32.9206 24.2743 32.8719 24.3383C32.8018 24.4327 32.6646 24.4571 32.5915 24.3535H32.5945Z" fill="#004449"/>
<path d="M33.9142 36.035C33.5667 35.9954 33.4783 35.6206 33.3199 35.3646C33.1858 35.5474 32.9359 35.6693 32.7134 35.581C32.5458 35.6937 32.3081 35.6968 32.1526 35.5566C32.1008 35.5992 32.046 35.6358 31.982 35.6602C31.8723 35.7029 31.7443 35.709 31.6315 35.6632C31.5705 35.6998 31.5035 35.7211 31.4303 35.7242C31.3999 35.7242 31.3724 35.7242 31.345 35.7211C30.4033 36.0137 30.6258 34.5966 30.8879 34.112C31.0585 33.9291 31.1591 33.6945 31.3237 33.5086C31.4669 32.835 31.5462 32.1493 31.6284 31.4667C31.6955 30.8541 31.5187 29.952 32.2532 29.7448C32.5153 29.1931 33.2315 29.312 33.2467 29.9368C33.71 30.08 33.649 30.656 33.7069 31.0431C33.7648 31.6191 33.8197 32.1981 33.8898 32.771C34.2128 32.8594 34.2463 33.2465 34.3164 33.5238C34.4749 34.2674 35.118 35.901 33.9142 36.029V36.035Z" fill="#004449"/>
<path d="M35.6848 19.3432C35.3435 19.3127 35.1728 18.944 35.3191 18.6484C35.6025 18.179 36.1206 17.8865 36.5381 17.5421C37.5408 16.7924 38.7141 16.0701 39.8661 15.6251C40.6494 15.3204 41.4753 15.0765 42.3164 15.04C42.6059 15.0491 42.8497 15.0705 43.1332 15.0826C43.2094 15.0887 43.2916 15.1223 43.316 15.2045C43.3496 15.3996 43.1027 15.4148 42.9686 15.4545C42.484 15.5916 42.0452 15.8506 41.5728 16.0274C40.5214 16.451 39.4943 16.9356 38.5374 17.5451C37.8699 17.9779 37.0958 18.5295 36.5442 19.0415C36.3278 19.267 36.0017 19.395 35.6878 19.3463L35.6848 19.3432Z" fill="#004449"/>
<path d="M31.6955 19.7729C30.7142 19.7028 29.8639 19.1543 29.105 18.5691C28.977 18.4746 28.8521 18.3771 28.7332 18.2704C28.4498 18.048 28.1877 17.8956 27.9042 17.6884C27.5934 17.4689 27.8037 17.1367 28.1359 17.3257C28.398 17.5085 28.654 17.6792 28.913 17.859C29.1355 18.0388 29.3549 18.2247 29.5896 18.3893C30.0741 18.752 30.6075 19.0659 31.1561 19.3188C31.15 19.3188 31.1469 19.3158 31.1408 19.3127C31.406 19.4011 31.6681 19.5047 31.9241 19.6144C31.9606 19.6297 32.0216 19.6602 32.0063 19.712C31.9941 19.7485 31.9423 19.7485 31.9119 19.7546C31.8418 19.7699 31.7717 19.7699 31.6985 19.7699L31.6955 19.7729Z" fill="#004449"/>
<path d="M22.9701 41.1824C22.8513 41.0605 23.2322 40.9081 23.3054 40.8441C23.6497 40.6125 24.0155 40.4601 24.3873 40.3047C25.2254 39.8628 26.0543 39.3965 26.8528 38.8845C27.0204 38.7748 27.2429 38.5554 27.4471 38.7047C27.4837 38.7382 27.4776 38.7992 27.4715 38.8419C27.4318 39.0399 27.2398 39.1375 27.0875 39.2441C26.5176 39.622 25.9598 39.9329 25.3686 40.262C24.7438 40.6399 24.0734 40.9569 23.3541 41.1062C23.2596 41.1276 23.1652 41.1459 23.0737 41.1824C23.0402 41.1946 23.0036 41.2007 22.9732 41.1794L22.9701 41.1824Z" fill="#004449"/>
<path d="M23.3602 40.9844C23.156 40.8076 24.7408 40.1737 24.9054 40.0945C25.7496 39.7257 26.5145 39.2137 27.2673 38.6834C27.9499 38.1684 28.6905 37.7387 29.3488 37.1962C29.492 37.1139 29.6627 37.0591 29.8303 37.0865C29.8425 37.44 29.4768 37.632 29.2391 37.8301C29.0227 37.9977 28.7972 38.1592 28.5656 38.3116C27.8677 38.7535 27.2398 39.2533 26.5511 39.6952C25.7435 40.1737 24.9602 40.64 24.0398 40.832C23.9149 40.8716 23.7869 40.9051 23.6558 40.9356C23.5614 40.9661 23.4638 41.0179 23.3633 40.9844H23.3602Z" fill="#004449"/>
<path d="M41.9629 40.9203C41.9019 40.9051 41.841 40.8868 41.78 40.8685C41.716 40.8502 41.652 40.832 41.588 40.8076C41.6002 40.8106 41.6124 40.8167 41.6246 40.8198C41.2528 40.6979 40.884 40.5516 40.5336 40.3779C40.5336 40.3779 40.5366 40.3779 40.5397 40.3809C40.1557 40.2194 39.793 40.0243 39.4273 39.8476C38.7202 39.5276 38.0223 39.1893 37.3336 38.8266C37.0075 38.6651 36.6844 38.4914 36.3857 38.2842C36.1206 38.0922 35.1911 37.3881 36.1602 37.7661C36.8429 38.0708 37.4798 38.4304 38.1442 38.7596C38.7781 39.0887 39.4395 39.363 40.0703 39.683C40.0642 39.683 40.0612 39.6769 40.0551 39.6769C40.049 39.6769 40.0459 39.6708 40.0398 39.6708C40.5305 39.9146 41.0273 40.1493 41.5423 40.3382C41.5423 40.3382 41.5423 40.3382 41.5393 40.3382C41.5332 40.3382 41.5271 40.3352 41.521 40.3322C41.6459 40.3748 41.7648 40.4175 41.8928 40.451C42.0269 40.4876 42.1854 40.5181 42.2616 40.6461C42.3926 40.8502 42.1305 40.9752 41.9568 40.9173L41.9629 40.9203Z" fill="#004449"/>
<path d="M26.5084 46.6377C26.5206 47.5946 26.4718 48.5516 26.4718 49.5116C26.4566 50.24 26.4109 50.9653 26.3652 51.6906C26.3652 52.2422 26.3347 52.7969 26.2951 53.3485C26.2402 54.08 25.7587 54.6986 25.1949 55.1344C24.0947 55.9299 22.7751 56.32 21.4707 56.6278C18.1884 57.4201 14.7812 57.6 11.4135 57.536C9.38993 57.4659 7.36021 57.3622 5.36402 56.9965C4.45888 56.8411 3.50802 56.7192 2.69126 56.2864C1.84098 55.8415 1.85926 55.1801 1.92936 54.403C1.92326 54.3268 1.92021 54.2506 1.91717 54.1714C1.8745 53.4095 1.84707 52.4952 1.83488 51.776C1.85012 50.1302 1.65507 47.6495 2.5145 46.2232C2.63945 46.0038 3.09355 45.5344 3.35564 45.6777C3.61469 45.8666 3.38612 46.1897 3.29469 46.4091C3.23678 46.5828 3.20326 46.7596 3.16059 46.9363C3.1484 46.9942 3.13926 47.0522 3.12707 47.1101C3.3404 47.1984 3.56593 47.3295 3.71221 47.3569C4.15412 47.4788 4.57469 47.6678 5.02574 47.7622C5.41279 47.8293 5.80288 47.8415 6.18993 47.9024C6.83298 48.0243 7.48212 48.1462 8.14345 48.1036C9.83488 48.0091 11.5294 47.9664 13.2147 47.8171C14.2996 47.6982 15.3815 47.5763 16.4726 47.5215C17.9385 47.3935 19.4075 47.2777 20.8612 47.0643C22.2417 46.8144 23.5857 46.403 24.948 46.0861C25.0547 46.0586 25.1614 46.0342 25.2619 45.9977C25.332 45.9733 25.3991 45.9581 25.4631 45.952C25.4631 45.7051 25.4448 45.4582 25.393 45.2144C25.3473 44.9615 25.2528 44.7634 25.204 44.5196C25.1278 44.2697 25.3229 43.904 25.6185 44.0228C25.9324 44.1965 26.1244 44.544 26.2616 44.864C26.4993 45.4247 26.5084 46.0434 26.5084 46.6438V46.6377Z" fill="#B7E8FF"/>
<path d="M5.10193 47.5001C4.50155 47.4179 3.80059 47.3203 3.38916 46.8297C2.97469 46.208 3.33735 45.5344 3.9865 45.2815C4.94955 44.7756 6.04364 44.6476 7.09507 44.4403C8.06726 44.2971 9.03031 44.0807 10.0025 43.9344C12.0475 43.6297 14.0406 43.0049 16.116 42.947C17.9385 42.9287 19.7671 42.8495 21.5865 43.0232C22.7019 43.1299 23.8692 43.1756 24.8901 43.6754C25.4692 43.9679 26.3621 44.7908 25.8257 45.4552C25.524 46.7779 22.4459 46.7108 21.3579 46.7535C20.4406 46.8297 19.5233 46.9089 18.6029 46.9668C16.3476 47.0674 14.0193 47.3782 11.7945 47.3539C10.4596 47.3874 9.12783 47.558 7.79297 47.5123C6.89697 47.4788 5.99488 47.5824 5.10193 47.5001ZM6.63793 46.4487C8.16783 46.4579 9.6764 46.4457 11.1941 46.2963C11.9103 46.278 12.6265 46.3116 13.3427 46.2598C14.6349 46.2171 15.9179 46.0434 17.2101 45.9885C18.6882 45.9276 20.1572 45.7539 21.6353 45.6746C21.5774 45.6106 21.5316 45.5344 21.5103 45.443C21.489 45.3577 21.492 45.2723 21.5134 45.1992C21.1202 45.0346 20.9892 44.5348 21.3823 44.2849C21.3549 44.2239 21.3396 44.1569 21.3396 44.0777C19.4166 43.9253 17.4814 43.9588 15.5553 44.0563C14.0345 44.1691 12.5655 44.5866 11.0722 44.864C9.9324 45.0438 8.79564 45.251 7.65888 45.4613C6.61355 45.6594 5.49507 45.7447 4.55945 46.2872C4.55945 46.2872 4.55945 46.2933 4.55945 46.2963C5.22383 46.5462 5.94612 46.4548 6.64097 46.4487H6.63793Z" fill="#004449"/>
<path d="M5.92782 47.1253C5.75106 47.1192 5.55906 47.0338 5.44325 46.8937C5.35182 46.8815 5.26344 46.851 5.1842 46.8083C4.89467 46.8327 4.78496 46.8418 4.52896 46.8632C3.86153 46.9668 3.24591 46.2384 3.99867 45.8392C4.99829 45.4521 6.03448 45.1565 7.09506 44.998C7.65582 44.9279 8.5701 44.6933 8.80172 45.4034C8.88401 45.4704 8.94801 45.5588 8.97848 45.6624C8.99067 45.699 8.99372 45.7386 8.99677 45.7782C9.59715 45.9611 9.53315 46.7047 8.91448 46.7961C7.91791 46.8693 6.92744 47.0613 5.93086 47.1283L5.92782 47.1253Z" fill="#004449"/>
<path d="M13.105 48.2468C11.7945 48.192 10.4627 48.2042 9.18271 47.8811C8.72557 47.8019 8.39947 47.4209 8.30805 46.979C8.08862 46.2171 7.86919 45.4552 7.67414 44.6872C7.07985 42.9684 6.40633 41.283 5.57433 39.683C5.23909 38.9821 4.913 38.2781 4.54424 37.5954C4.19985 36.8975 3.89509 36.1813 3.56595 35.4743C3.22462 34.7581 2.97471 34.0053 2.70652 33.2617C1.9629 31.3996 1.52405 29.4004 1.64595 27.3889C1.63681 26.947 1.67643 26.5021 1.7709 26.0693C1.84709 25.6579 1.88671 25.2373 1.99643 24.835C2.69433 22.3482 4.36138 20.3154 5.96138 18.3497C8.42385 15.4544 10.9473 12.7207 13.5439 9.96264C14.2753 9.16416 15.025 8.38093 15.8021 7.62207C16.0673 7.37826 16.3385 7.07959 16.6433 6.84797C16.7134 6.80835 16.7896 6.77483 16.8627 6.74435C16.9115 6.72607 16.9633 6.71388 17.0151 6.70169C17.073 6.6895 17.1309 6.67121 17.1919 6.65902C17.2254 6.65293 17.2589 6.64988 17.2955 6.64378C17.3412 6.63769 17.3869 6.63159 17.4326 6.63159C17.4814 6.63159 17.5332 6.63159 17.585 6.64073C17.6307 6.64988 17.6795 6.66207 17.7252 6.67426C17.78 6.6895 17.8379 6.70778 17.8928 6.72607C17.9416 6.7474 17.9903 6.77178 18.0391 6.79921C18.0543 6.80835 18.0726 6.82054 18.0879 6.83578C18.1305 6.8754 18.1671 6.91807 18.2037 6.96378C18.1976 6.95769 18.1945 6.95159 18.1884 6.9455C18.1976 6.95769 18.2067 6.96683 18.2159 6.97902C18.2616 7.03388 18.3042 7.09178 18.3469 7.15273C18.42 7.30512 18.4719 7.47273 18.5054 7.63731C18.6974 8.43578 18.4932 9.24645 18.2128 9.99616C17.8989 10.883 17.4875 11.7333 17.0273 12.5531C17.7221 12.2331 18.481 12.0411 19.2338 11.9436C20.6539 11.7424 22.132 11.8339 23.4852 12.3306C24.2898 12.6202 25.14 12.9493 25.713 13.6106C26.0848 14.0251 26.3682 14.6194 26.1366 15.168C25.6795 16.3352 24.1679 16.3992 23.1134 16.4205C22.8696 16.4205 22.5648 16.4297 22.4124 16.2194C21.7694 16.259 21.1263 16.2529 20.4802 16.2438C19.4319 16.2316 18.3835 16.2225 17.3534 16.4084C16.6219 16.6278 15.7503 16.7558 15.0433 16.9965C14.4551 17.1794 13.8913 17.5664 13.2879 17.6914C13.1355 17.7981 12.9892 17.9108 12.852 18.0358C12.1755 18.6605 11.825 19.5352 11.4562 20.3611C10.4322 22.3695 10.2951 24.6004 11.4562 26.5874C12.6509 28.6019 14.1168 30.4518 15.7625 32.1097C18.2463 34.2674 21.3549 35.2 22.2905 38.7535C22.6501 40.2743 22.6288 41.8499 22.4947 43.395C22.4673 43.7546 22.452 44.1112 22.4399 44.4708C22.4368 44.5318 22.4307 44.5897 22.4277 44.6506C22.4277 44.7268 22.4216 44.8061 22.4185 44.8823C22.4185 44.9066 22.4155 44.9341 22.4124 44.9585C22.4094 45.0224 22.4063 45.0834 22.4063 45.1474C22.4063 45.1413 22.4063 45.1352 22.4063 45.1261C22.4063 45.2114 22.4002 45.2998 22.3972 45.3851C22.3972 45.4674 22.3972 45.5466 22.3941 45.6289C22.3941 45.6777 22.3911 45.7234 22.3911 45.7722C22.3911 45.8575 22.3819 45.9398 22.3789 46.0251C22.3789 46.0647 22.3728 46.1074 22.3698 46.147C22.3667 46.1866 22.3637 46.2263 22.3576 46.2689C22.3576 46.2811 22.3545 46.2903 22.3515 46.3024C22.3454 46.3024 22.3393 46.3085 22.3332 46.3085C22.3149 46.3146 22.2966 46.3177 22.2783 46.3207C22.2418 46.3329 22.2052 46.3451 22.1717 46.3665C22.1077 46.4061 22.068 46.464 22.0619 46.5371C22.0559 46.5889 22.0711 46.6438 22.1046 46.6834C21.8943 46.8693 21.5743 47.0461 21.1172 47.1832C19.892 47.7196 18.5541 47.8811 17.2376 48.0274C16.1465 48.1524 15.0494 48.256 13.9522 48.256C13.6749 48.256 13.3976 48.2499 13.1202 48.2346L13.105 48.2468Z" fill="#A4453B"/>
<path d="M22.3608 46.2994C22.3608 46.2994 22.3576 46.2994 22.3545 46.3025C22.3545 46.3025 22.3576 46.3025 22.3608 46.2994Z" fill="#A4453B"/>
<path d="M16.8719 6.73828C16.8719 6.73828 16.8688 6.73828 16.8658 6.73828C16.8597 6.73828 16.8566 6.74132 16.8505 6.74437C16.8566 6.74437 16.8627 6.73828 16.8719 6.73523V6.73828Z" fill="#A4453B"/>
<path d="M31.3206 26.2339C31.3206 26.5965 31.3084 26.9592 31.2932 27.3188C31.2414 29.1474 31.0341 30.9942 30.4703 32.7405C30.2143 33.4445 30.0101 34.1729 29.6657 34.8403C29.4981 35.1603 29.3061 35.4712 29.1111 35.779C28.9313 36.0624 28.724 36.3184 28.5076 36.5714C28.0475 37.1291 27.6056 37.702 27.0844 38.208C25.7343 39.5306 23.9728 40.3657 22.1381 40.7619C21.1903 41.0118 20.2486 41.3958 19.2581 41.4049C18.4475 41.3775 17.8075 41.0788 17.1096 40.8472C16.4391 40.6186 15.7412 40.4815 15.0676 40.256C14.3332 40.0182 13.6475 39.6708 12.9861 39.2716C11.5294 38.4883 10.4779 38.019 9.52403 36.5714C9.10651 35.8887 8.75603 35.1603 8.53965 34.3893C8.16784 33.8224 7.96974 33.155 7.73203 32.5241C7.3907 31.5885 7.10422 30.5737 7.0707 29.5801C6.95489 28.0899 7.07374 26.5569 7.35108 25.0971C7.45165 24.5638 7.57051 24.0335 7.73508 23.5184C7.83565 23.238 7.88441 22.8967 8.14346 22.7169C8.34765 22.2506 8.61584 21.824 8.88708 21.3973C9.27717 20.7634 9.67336 20.1264 10.1945 19.59C10.9137 18.816 11.6817 18.0571 12.6235 17.5603C13.3915 17.1702 14.1838 16.8076 15.0006 16.5333C15.988 16.2163 16.9998 15.9878 18.0238 15.8323C18.9229 15.6769 19.828 15.558 20.7423 15.5916C21.6048 15.5733 22.4642 15.6403 23.3023 15.8537C24.2136 16.0579 25.1248 16.3108 25.9355 16.7862C27.0052 17.4384 28.0444 18.1607 28.8703 19.1116C29.2817 19.5718 29.6657 20.1356 29.9522 20.6598C30.4185 21.4186 30.7568 22.2598 30.9244 23.1375C31.0951 24.1676 31.3206 25.1946 31.3206 26.243V26.2339Z" fill="#0FFF80"/>
<path d="M28.209 27.2244C28.2577 28.3825 28.145 29.5558 27.8798 30.6834C27.8128 30.9607 27.7183 31.2289 27.6604 31.5093C27.6391 31.6647 27.5933 31.8171 27.5324 31.9634C27.1575 32.8472 26.7217 33.7158 26.164 34.496C25.9568 34.8708 25.7343 35.2365 25.4874 35.5901C24.5274 36.7969 23.4669 37.4765 22.2692 37.827C21.6017 38.1684 20.916 38.3878 20.0932 38.2964C19.6147 38.2445 19.1301 38.2445 18.6547 38.1501C18.1671 38.0678 17.6886 37.9459 17.201 37.8636C16.8596 37.7965 16.5183 37.7265 16.1861 37.632C15.8661 37.5345 15.5644 37.3882 15.2566 37.2541C14.9701 37.1291 14.6745 37.0194 14.4033 36.8701C14.0132 36.6385 13.5895 36.2697 13.3579 35.84C12.0505 34.6849 10.9899 33.216 10.4749 31.555C10.0726 29.8605 9.66725 28.0045 10.1 26.2826C10.356 25.408 10.7796 24.6065 11.316 23.8781C11.3739 23.7165 11.4379 23.555 11.5111 23.3996C11.764 22.9211 12.1114 22.5005 12.4406 22.0739C12.9008 21.4186 13.4372 20.8061 14.0833 20.3337C14.132 20.2941 14.1838 20.2545 14.2356 20.2148C15.86 19.2122 17.7648 18.6727 19.6695 18.5905C20.9373 18.5935 22.2326 18.7855 23.4364 19.2152C24.1953 19.456 24.9175 19.8125 25.4813 20.2941C25.6063 20.4099 25.7252 20.5318 25.8349 20.6598C26.7705 21.5954 27.4074 22.8358 27.8493 24.0701C28.0718 24.8259 28.1328 25.6183 28.1328 26.4076C28.1693 26.6819 28.1968 26.9562 28.2181 27.2305L28.209 27.2244Z" fill="#D5FFBF"/>
<path d="M10.356 37.7539C9.81052 37.571 9.46309 37.0255 9.07604 36.6324C8.42385 35.8522 7.92709 34.9745 7.5248 34.0541C7.49433 33.9627 7.45776 33.8743 7.41814 33.7859C7.37852 33.6914 7.33585 33.5939 7.29928 33.4994C7.25661 33.3836 7.2109 33.2709 7.17128 33.155C7.14995 33.0941 7.12861 33.0362 7.10728 32.9783C7.08899 32.9265 7.07376 32.8747 7.05852 32.8198C7.02499 32.704 6.99452 32.5912 6.95795 32.4754C6.95795 32.4693 6.9549 32.4632 6.95185 32.4602C6.95185 32.4602 6.95185 32.4541 6.95185 32.451C6.95185 32.451 6.95185 32.4571 6.95185 32.4602C6.92442 32.384 6.89699 32.3078 6.86956 32.2316C6.83604 32.131 6.81166 32.0274 6.78728 31.9238C6.78728 31.9329 6.79033 31.9421 6.79337 31.9512C6.77509 31.872 6.7568 31.7928 6.73242 31.7166C6.72633 31.6952 6.71718 31.6739 6.71109 31.6495C6.68976 31.5703 6.66842 31.491 6.64709 31.4118C6.64709 31.4057 6.64709 31.3996 6.64099 31.3966C6.6288 31.3478 6.61966 31.296 6.61052 31.2472C6.58614 31.1223 6.56176 30.9973 6.53737 30.8754C6.53737 30.8693 6.53737 30.8632 6.53433 30.8571C6.51909 30.787 6.5069 30.7139 6.49166 30.6438C6.48252 30.6011 6.47337 30.5615 6.46423 30.5189C6.45204 30.4366 6.43985 30.3573 6.43071 30.275C6.43071 30.2598 6.43071 30.2446 6.42766 30.2293C6.42766 30.2171 6.42156 30.2019 6.41852 30.1897C6.16556 28.224 6.30576 26.2065 6.72023 24.2621C7.30842 21.9825 8.5549 19.6175 10.4231 18.0907C11.1759 17.4994 11.9682 16.9448 12.8246 16.5089C13.3 16.1859 13.8425 16.3261 13.8303 16.9539C13.8212 17.3074 13.5713 17.5756 13.236 17.6762C12.8338 17.8743 12.4467 18.1029 12.0749 18.3497C11.4044 18.8251 10.7126 19.2914 10.161 19.9009C8.42995 21.9154 7.48518 24.4541 7.41509 27.0659C7.18956 29.2724 7.64366 31.488 8.49699 33.5147C8.89014 34.4198 9.39604 35.2823 9.99033 36.0747C10.2524 36.4648 10.6669 36.7787 10.8162 37.2297C10.8741 37.4735 10.6943 37.763 10.4292 37.763C10.4048 37.763 10.3804 37.763 10.353 37.7539H10.356Z" fill="#004449"/>
<path d="M28.1237 37.6655C27.8707 37.5132 27.7701 37.2145 27.8128 36.9372C27.9073 36.8457 28.0018 36.7543 28.0871 36.6537C28.142 36.5897 28.1968 36.5257 28.2517 36.4617C28.3309 36.3642 28.4071 36.2636 28.4833 36.1631C28.4833 36.1661 28.4772 36.1692 28.4772 36.1722C28.596 36.0107 28.7088 35.8461 28.8216 35.6815C28.9221 35.5353 29.0227 35.3859 29.1202 35.2366C29.236 35.0629 29.3519 34.8892 29.4585 34.7093C29.5652 34.5295 29.6658 34.3467 29.7633 34.1608C29.8151 34.0602 29.8669 33.9596 29.9126 33.856C29.9522 33.7676 29.9858 33.6762 30.0223 33.5878C30.1168 33.3593 30.1839 33.1246 30.26 32.8899V32.893C30.3332 32.6613 30.388 32.4267 30.449 32.192C30.449 32.2012 30.4429 32.2103 30.4429 32.2164C30.4764 32.0975 30.5069 31.9787 30.5343 31.8598C30.5343 31.869 30.5313 31.8781 30.5282 31.8842C30.5587 31.7623 30.5892 31.6373 30.6227 31.5185C30.6684 31.3661 30.7233 31.2137 30.7629 31.0583C30.7873 30.9638 30.8056 30.8663 30.83 30.7718C30.8482 30.6895 30.8635 30.6103 30.8757 30.528C30.8848 30.4671 30.8909 30.4061 30.897 30.3452C30.9945 29.8301 31.0799 29.3151 31.1835 28.8C31.284 27.9528 31.281 27.0964 31.2444 26.2431C31.2261 25.6732 31.1957 25.1002 31.092 24.5394C31.0159 23.9512 30.8543 23.3844 30.6776 22.8206C30.4581 22.0312 30.1808 21.2541 29.7389 20.5562C29.422 20.0625 29.105 19.5566 28.6661 19.1604C28.2151 18.7886 27.7153 18.4777 27.2368 18.1394C26.3591 17.5756 25.3808 17.1612 24.3964 16.8107C23.537 16.5455 22.6471 16.4023 21.7572 16.256C21.3915 16.2012 21.0197 16.1737 20.6479 16.1768C20.1846 16.2042 19.7214 16.2164 19.2612 16.2164C18.1427 16.2682 17.0303 16.4572 15.9484 16.7406C15.3602 16.8747 14.7751 17.0362 14.2235 17.2892C13.812 17.4568 13.3976 17.5939 13.0197 17.8164C12.6692 17.9627 12.3279 18.2065 12.017 18.4046C11.5964 18.6697 11.118 18.8495 10.7492 19.1878C10.612 19.3128 10.4871 19.4499 10.3469 19.5718C10.1701 19.7303 9.94462 19.8278 9.76481 19.9772C9.66119 20.0655 9.55452 20.157 9.46614 20.2575C9.36252 20.3825 9.28328 20.5349 9.14005 20.6232C9.05776 20.6659 8.95414 20.6111 8.92366 20.5288C8.94805 20.5928 8.91452 20.5074 8.91452 20.5013C8.90538 20.4739 8.90233 20.4404 8.90538 20.4099C8.96328 20.1539 9.09433 19.9132 9.23147 19.6846C9.43871 19.3006 9.76481 19.0324 9.99033 18.6697C10.2951 18.237 10.6852 17.8682 11.1515 17.6061C11.4928 17.4019 11.7793 17.1215 12.1206 16.9173C12.3675 16.7741 12.6174 16.637 12.8673 16.4968C13.233 16.3078 13.62 16.1707 13.9919 16C14.4795 15.7897 14.9915 15.6343 15.5096 15.5124C16.4604 15.2564 17.4265 15.0735 18.4048 14.9699C18.8101 14.9272 19.2155 14.9272 19.6239 14.9212C20.1816 14.9059 20.7393 14.8541 21.297 14.9181C22.2479 15.0309 23.1957 15.2046 24.1252 15.4332C24.7164 15.5916 25.2833 15.8141 25.838 16.064C26.6578 16.4084 27.444 16.8259 28.1541 17.3532C28.6997 17.7311 29.2757 18.0876 29.6962 18.6057C30.5618 19.6632 31.2505 20.8732 31.6071 22.1897C32.052 23.5185 32.3202 24.9052 32.3385 26.3101C32.3812 27.3493 32.3934 28.4008 32.2197 29.4339C32.1587 29.7844 32.0764 30.1318 32.0155 30.4823C31.9545 30.8175 31.9058 31.1558 31.8265 31.4911C31.6437 32.1768 31.4029 32.8473 31.1835 33.5238C30.766 34.7551 30.0985 35.8888 29.3092 36.9311C29.1507 37.1383 28.974 37.3364 28.8002 37.5314C28.6966 37.6594 28.5442 37.7295 28.3888 37.7295C28.3004 37.7295 28.212 37.7082 28.1298 37.6594L28.1237 37.6655Z" fill="#004449"/>
<path d="M17.6124 41.5969C16.948 41.4964 16.3141 41.2709 15.6863 41.0545C15.1073 40.8472 14.5282 40.6339 13.9705 40.3809C12.4711 39.6861 11.0814 38.7566 9.96898 37.5497C9.43565 37.0011 8.89317 36.4495 8.48479 35.8034C7.93317 34.9806 7.53089 34.0724 7.22612 33.1368C7.0646 32.707 6.91222 32.2743 6.76898 31.8385C6.75984 31.7958 6.74765 31.7562 6.73546 31.7135C6.72936 31.6922 6.72022 31.6708 6.71412 31.6465C6.69279 31.5672 6.67146 31.488 6.65012 31.4088C6.65012 31.4027 6.64708 31.3966 6.64403 31.3935C6.63184 31.3448 6.6227 31.2929 6.61355 31.2442C6.58917 31.1131 6.56479 30.9851 6.53736 30.8541C6.52212 30.784 6.50993 30.7108 6.4947 30.6408C6.47946 30.5676 6.46117 30.4945 6.45203 30.4183C6.44593 30.3726 6.43984 30.3268 6.43374 30.2781C6.43374 30.2598 6.43374 30.2446 6.43374 30.2263C6.42765 30.1867 6.41851 30.1501 6.40936 30.1105C6.43374 30.0648 6.46422 30.019 6.50993 29.9794C6.70803 29.8027 6.99451 29.8514 7.20174 29.9794C7.52479 30.1623 7.56441 30.5402 7.6467 30.8602C7.82955 31.5002 8.03374 32.0701 8.25622 32.6857C8.62803 33.8133 9.09127 34.9288 9.85622 35.8583C10.3256 36.4129 10.8558 36.9188 11.3678 37.4369C12.6204 38.5707 14.1686 39.3508 15.7747 39.8994C16.369 40.1097 16.9663 40.323 17.5941 40.4206C18.7461 40.5516 19.9195 40.5943 21.0776 40.4724C22.193 40.3322 23.2627 39.9665 24.2623 39.4667C24.2928 39.4545 24.3202 39.4423 24.3507 39.4301C24.3934 39.4118 24.4391 39.3966 24.4817 39.3752C24.5366 39.3478 24.5884 39.3173 24.6402 39.2868L24.6555 39.2777C24.6555 39.2777 24.6402 39.2868 24.6341 39.2899C24.6433 39.2838 24.6524 39.2777 24.6646 39.2716C24.6646 39.2716 24.6646 39.2716 24.6677 39.2716C24.6677 39.2716 24.6676 39.2716 24.6707 39.2716C24.6676 39.2716 24.6646 39.2747 24.6616 39.2777C24.7225 39.2411 24.7865 39.2046 24.8505 39.168C24.945 39.1131 25.0425 39.0552 25.137 39.0004C25.2315 38.9455 25.3229 38.8907 25.4113 38.8297C25.4113 38.8297 25.4082 38.8297 25.4052 38.8328C25.4052 38.8328 25.4113 38.8297 25.4143 38.8267C25.4143 38.8267 25.4143 38.8267 25.4174 38.8267C25.4174 38.8267 25.4235 38.8236 25.4265 38.8206C25.4296 38.8206 25.4356 38.8145 25.4387 38.8114C25.4387 38.8114 25.4448 38.8084 25.4478 38.8053C25.4448 38.8053 25.4417 38.8114 25.4387 38.8114C25.4692 38.7901 25.4966 38.7688 25.5271 38.7474C25.7526 38.6011 25.972 38.4518 26.1884 38.2933C26.5968 37.9794 27.0082 37.6716 27.3892 37.3272C27.4623 37.2632 27.5324 37.2023 27.6025 37.1352C27.5964 37.1413 27.5873 37.1474 27.5812 37.1566C27.6391 37.1048 27.6939 37.0529 27.7488 36.9981C27.8616 36.8914 27.9713 36.7817 28.0749 36.6659C28.1297 36.6019 28.1846 36.5379 28.2395 36.4739C28.3187 36.3764 28.3949 36.2758 28.468 36.1783C28.5869 36.0198 28.6966 35.8552 28.8094 35.6937C28.9099 35.5474 29.0105 35.3981 29.108 35.2488C29.2238 35.075 29.3397 34.9013 29.4463 34.7215C29.553 34.5417 29.6536 34.3588 29.7511 34.1729C29.8029 34.0724 29.8547 33.9718 29.9004 33.8682C29.94 33.7798 29.9736 33.6884 30.0101 33.6C30.1046 33.3745 30.1716 33.1398 30.2478 32.9082C30.321 32.6766 30.3758 32.4419 30.4368 32.2072C30.4368 32.2133 30.4337 32.2194 30.4307 32.2255C30.4612 32.1128 30.4916 32.003 30.5191 31.8903C30.5191 31.8964 30.5191 31.8994 30.516 31.9055C30.5465 31.7836 30.577 31.6587 30.6105 31.5398C30.6562 31.3874 30.7111 31.235 30.7507 31.0796C30.7751 30.9851 30.7934 30.8876 30.8177 30.7931C30.836 30.7108 30.8513 30.6316 30.8635 30.5493C30.8696 30.5006 30.8757 30.4518 30.8817 30.403C30.9092 30.339 30.9366 30.2781 30.964 30.2141C31.0768 29.9246 31.1499 29.6198 31.2383 29.3242C31.3237 29.0225 31.3846 28.7116 31.4974 28.416C31.5339 28.3185 31.5278 28.2118 31.5553 28.1112C31.5766 28.032 31.6589 27.9924 31.7381 28.0076C31.9758 28.0716 32.0094 28.3703 32.0246 28.5745C32.113 29.1748 32.1221 29.7844 32.0246 30.3848C31.9057 30.976 31.6955 31.5489 31.5949 32.1463C31.4059 32.8503 31.2657 33.5756 30.9823 34.2522C30.7842 34.7032 30.5099 35.1147 30.2692 35.5413C30.001 35.9649 29.7694 36.4129 29.5012 36.8366C29.2482 37.2053 29.0044 37.5832 28.6905 37.9063C27.956 38.656 27.0905 39.2838 26.2128 39.8689C25.8928 40.064 25.5667 40.2499 25.2345 40.4267C25.1797 40.451 25.1248 40.4785 25.0699 40.5028C25.0395 40.5181 25.009 40.5303 24.9785 40.5455C24.9541 40.5547 24.9297 40.5668 24.9054 40.579C24.884 40.5882 24.8657 40.6004 24.8444 40.6095C24.8139 40.6248 24.7835 40.6369 24.7499 40.6522C24.7499 40.6522 24.753 40.6522 24.756 40.6522C24.756 40.6522 24.753 40.6522 24.7499 40.6522C24.7499 40.6522 24.7438 40.6522 24.7408 40.6552C24.7347 40.6552 24.7286 40.6613 24.7225 40.6644H24.7256C24.7256 40.6644 24.7195 40.6644 24.7164 40.6644C24.7103 40.6644 24.7042 40.6705 24.7012 40.6735C24.7012 40.6735 24.7012 40.6735 24.7073 40.6735C24.7042 40.6735 24.7012 40.6766 24.6981 40.6796C24.6951 40.6796 24.692 40.6827 24.689 40.6857C24.689 40.6857 24.689 40.6857 24.6859 40.6857C24.6859 40.6857 24.6859 40.6857 24.6829 40.6857C24.6829 40.6857 24.6829 40.6857 24.6859 40.6857C24.6859 40.6857 24.6859 40.6857 24.689 40.6857C24.689 40.6857 24.689 40.6857 24.692 40.6857C24.6311 40.7162 24.5701 40.7467 24.5092 40.7802C24.4635 40.8046 24.4208 40.832 24.3751 40.8533C23.8174 41.1002 23.2444 41.3105 22.6532 41.4568C22.1625 41.5726 21.6627 41.6609 21.1598 41.7158C20.6143 41.7585 20.0627 41.7554 19.5172 41.7585C18.8833 41.7402 18.2433 41.6975 17.6155 41.6122L17.6124 41.5969ZM26.1153 38.9577C26.1153 38.9577 26.1214 38.979 26.1336 38.979C26.1457 38.979 26.1579 38.9699 26.161 38.9547C26.164 38.9394 26.1549 38.9333 26.1427 38.9333C26.1305 38.9333 26.1183 38.9425 26.1153 38.9577Z" fill="#004449"/>
<path d="M24.7439 40.6431C24.7439 40.6431 24.7347 40.6461 24.7286 40.6492C24.7347 40.6492 24.7378 40.6431 24.7439 40.6431Z" fill="#004449"/>
<path d="M24.6311 39.296C24.6311 39.296 24.6219 39.3021 24.6158 39.3052C24.6219 39.3021 24.625 39.2991 24.6311 39.296Z" fill="#004449"/>
<path d="M25.4359 38.8085C25.4359 38.8085 25.4327 38.8085 25.4296 38.8117C25.4296 38.8117 25.4359 38.8085 25.4359 38.8054V38.8085Z" fill="#004449"/>
<path d="M28.4804 36.1661C28.4804 36.1661 28.4804 36.1661 28.4772 36.1693C28.4772 36.1693 28.4772 36.1693 28.4804 36.1661Z" fill="#004449"/>
<path d="M24.4818 40.6888C24.1557 40.5821 23.982 40.2042 24.0246 39.8751C24.0368 39.7257 24.11 39.5825 24.2197 39.485C24.2593 39.4667 24.302 39.4514 24.3416 39.4362C24.3842 39.4179 24.43 39.4027 24.4726 39.3813C24.5275 39.3539 24.5793 39.3234 24.6311 39.293C24.6311 39.293 24.6341 39.293 24.6372 39.2899C24.6463 39.2869 24.6524 39.2808 24.6616 39.2747C24.6616 39.2747 24.6616 39.2747 24.6646 39.2747C24.6646 39.2747 24.6646 39.2747 24.6677 39.2747C24.6677 39.2747 24.6707 39.2747 24.6738 39.2716C24.7347 39.2351 24.7987 39.1985 24.8597 39.1619C24.9541 39.1071 25.0517 39.0492 25.1461 38.9943C25.2437 38.9364 25.3412 38.8785 25.4326 38.8114C25.4357 38.8084 25.4418 38.8053 25.4448 38.8023C25.4844 38.7749 25.524 38.7444 25.5637 38.717C25.6642 38.6438 25.7648 38.5737 25.8654 38.5006C25.9446 38.4427 26.0239 38.3848 26.1031 38.3269C26.1397 38.3025 26.1762 38.2781 26.2128 38.2537C26.2128 38.2537 26.2128 38.2537 26.2159 38.2537C26.2189 38.2537 26.225 38.2476 26.228 38.2446C26.228 38.2446 26.2311 38.2446 26.2341 38.2415C26.2341 38.2415 26.2311 38.2415 26.228 38.2446C26.292 38.1989 26.353 38.1501 26.4139 38.1013C26.4353 38.0861 26.4536 38.0709 26.4749 38.0556C26.5602 37.9916 26.6425 37.9215 26.7279 37.8545C27.0174 37.6503 27.2795 37.4248 27.5385 37.1749C28.1176 36.6751 28.6113 36.0747 29.0227 35.4377C29.4189 34.8465 29.6688 34.176 29.9705 33.536C30.196 33.0392 30.3667 32.5211 30.5496 32.0061C30.964 30.8053 31.0037 29.5284 31.1317 28.2758C31.1957 27.4225 31.1682 26.5631 31.0677 25.7128C31.0677 25.7067 31.0677 25.7006 31.0677 25.6945C31.0677 25.661 31.0585 25.6274 31.0555 25.597C31.0524 25.5665 31.0463 25.5391 31.0433 25.5086C30.9945 25.1307 30.9305 24.7558 30.8574 24.384C30.6593 23.1192 30.2692 21.8819 29.681 20.7451C28.6814 19.0781 27.3313 17.9627 25.5423 17.213C24.8353 16.9051 24.1313 16.5669 23.3694 16.4084C22.8879 16.3139 22.4094 16.2133 21.9279 16.128C21.169 15.997 20.3949 15.9604 19.6269 15.9695C19.0814 15.9756 18.542 16.0671 17.9964 16.1036C17.4997 16.1371 17.006 16.2042 16.5244 16.3291C15.7351 16.5272 14.958 16.829 14.1991 17.1246C13.6109 17.3928 13.0745 17.7585 12.4894 18.0267C11.2002 18.7337 10.097 19.7821 9.27414 20.989C8.77738 21.7813 8.35681 22.6286 8.02157 23.5032C7.87224 23.9726 7.74424 24.4511 7.66805 24.9387C7.52786 25.6 7.42119 26.2674 7.38157 26.941C7.36633 27.7181 7.43643 28.4739 7.49738 29.2236C7.56443 30.1623 7.65281 31.104 7.93014 32.0091C8.1069 32.6248 8.38119 33.2008 8.64633 33.7829C8.88709 34.3192 9.17052 34.8343 9.521 35.3067C9.78614 35.6907 10.0574 36.0686 10.3621 36.4221C10.6639 36.7665 10.9991 37.0773 11.2825 37.4339C11.6635 37.8941 12.0231 38.3817 12.5107 38.7413C12.6265 38.8297 12.7515 38.9151 12.8399 39.0339C12.8825 39.0949 12.8703 39.229 12.7759 39.232C12.6966 39.232 12.6265 39.1985 12.5534 39.168C11.8067 38.8907 11.1637 38.4183 10.545 37.9276C10.1122 37.5954 9.69776 37.2328 9.34119 36.8183C8.88709 36.2636 8.43909 35.6998 8.09471 35.069C7.67109 34.2583 7.2749 33.4232 6.98233 32.5547C6.63795 31.5246 6.49776 30.4427 6.42767 29.3638C6.35452 28.6202 6.31795 27.8735 6.28748 27.1238C6.29052 26.2827 6.41243 25.4415 6.58919 24.6187C6.67452 24.1219 6.77509 23.6251 6.93357 23.1436C7.03414 22.7962 7.16214 22.4579 7.32367 22.1318C7.537 21.6503 7.76557 21.1749 8.02767 20.7177C8.53052 19.7912 9.21319 18.9745 9.97205 18.2461C10.7583 17.5147 11.6421 16.9173 12.6174 16.4663C13.1629 16.1371 13.7267 15.8293 14.3332 15.6312C14.9519 15.4118 15.5614 15.1711 16.2014 15.0187C16.8383 14.8571 17.4905 14.7931 18.1458 14.7444C18.7766 14.6712 19.4075 14.6103 20.0444 14.6347C21.2726 14.6347 22.4825 14.8785 23.6741 15.1467C24.2806 15.2869 24.8505 15.5429 25.4204 15.7897C26.545 16.2438 27.6208 16.832 28.5503 17.6152C29.4677 18.4625 30.2692 19.4225 30.8025 20.5531C31.0951 21.2206 31.3633 21.9032 31.5675 22.6042C31.7595 23.2625 31.86 23.9391 31.9911 24.6095C32.2928 26.2248 32.3263 27.8827 32.1191 29.5101C32.0551 30.5341 31.9058 31.5581 31.5858 32.5333C31.2353 33.6213 30.7751 34.6728 30.2661 35.6968C29.7084 36.7391 28.9465 37.6625 28.0536 38.4366C27.5141 38.9577 26.8406 39.3021 26.2616 39.7775C25.9934 39.9665 25.7221 40.1493 25.4418 40.3078C25.4113 40.3261 25.3778 40.3413 25.3473 40.3596C25.3442 40.3596 25.3412 40.3627 25.3381 40.3657C25.3199 40.3749 25.3046 40.381 25.2863 40.3901C25.2101 40.4267 25.134 40.4602 25.0578 40.4968C25.0273 40.512 24.9999 40.5242 24.9694 40.5394C24.942 40.5486 24.9176 40.5608 24.8932 40.576C24.8749 40.5852 24.8536 40.5943 24.8353 40.6034C24.8048 40.6156 24.7743 40.6309 24.7439 40.6431C24.7408 40.6431 24.7378 40.6461 24.7347 40.6461C24.7347 40.6461 24.7225 40.6522 24.7164 40.6552C24.7164 40.6552 24.7164 40.6552 24.7195 40.6552C24.7195 40.6552 24.7134 40.6552 24.7103 40.6583C24.7042 40.6583 24.6981 40.6644 24.6951 40.6674C24.6951 40.6674 24.6981 40.6674 24.7012 40.6674C24.6981 40.6674 24.6951 40.6705 24.692 40.6705C24.689 40.6705 24.6859 40.6735 24.6799 40.6766C24.6799 40.6766 24.6768 40.6766 24.6738 40.6766C24.6463 40.6888 24.622 40.701 24.5945 40.7162C24.5549 40.7162 24.5153 40.7101 24.4726 40.6949L24.4818 40.6888ZM26.1153 38.9577C26.1153 38.9577 26.1214 38.9791 26.1336 38.9791C26.1458 38.9791 26.1579 38.9699 26.161 38.9547C26.164 38.9394 26.1549 38.9333 26.1427 38.9333C26.1305 38.9333 26.1183 38.9425 26.1153 38.9577Z" fill="#004449"/>
<path d="M25.454 38.7963C25.454 38.7963 25.4602 38.7932 25.4633 38.7901C25.4633 38.7901 25.4571 38.7932 25.454 38.7963Z" fill="#004449"/>
<path d="M24.7439 40.6431C24.7439 40.6431 24.7347 40.6492 24.7286 40.6492C24.7347 40.6492 24.7378 40.6431 24.7439 40.6431Z" fill="#004449"/>
<path d="M24.674 39.2686C24.674 39.2686 24.6708 39.2686 24.6677 39.2717C24.6677 39.2717 24.6708 39.2717 24.674 39.2686Z" fill="#004449"/>
<path d="M24.1039 40.2346C23.985 40.1158 24.1679 39.9908 24.2684 39.936C24.5031 39.7897 24.7195 39.6221 24.9481 39.4697C25.4296 39.1954 25.8197 38.8023 26.2524 38.4609C26.606 38.1775 26.9595 37.8971 27.3039 37.6045C27.6117 37.3181 27.9134 37.0225 28.1907 36.7085C28.6296 36.1935 28.9526 35.5992 29.3183 35.0324C29.7176 34.4015 30.0894 33.7524 30.3423 33.0484C30.5983 32.3108 30.7751 31.5459 30.9641 30.787C31.2597 29.5223 31.2627 28.1722 31.2292 26.8922C31.2109 26.499 31.153 26.1089 31.0829 25.7219C31.0829 25.7097 31.0829 25.6945 31.0829 25.6823C31.0829 25.6487 31.0738 25.6152 31.0707 25.5847C31.0646 25.5512 31.0616 25.5146 31.0555 25.4811C31.0433 25.408 31.0342 25.3318 31.022 25.2586C31.0189 25.2251 31.0128 25.1946 31.0098 25.1611C31.0067 25.1276 31.0006 25.0971 30.9945 25.0636C30.9945 25.0514 30.9915 25.0392 30.9884 25.0301C30.9884 25.0148 30.9823 24.9996 30.9793 24.9844C30.9762 24.9569 30.9732 24.9325 30.9671 24.9051C30.9641 24.8838 30.958 24.8594 30.9549 24.8381C30.9549 24.832 30.9549 24.8289 30.9549 24.8228C30.9702 24.5638 31.0646 24.3261 31.3145 24.1645C31.7229 23.9177 32.0703 24.2925 32.0825 24.707C32.1709 25.1794 32.2593 25.6518 32.3111 26.1303C32.3873 26.9105 32.3812 27.7028 32.3507 28.4861C32.3081 29.4186 32.2227 30.3482 31.9667 31.2472C31.8052 31.8933 31.6528 32.5425 31.4395 33.1764C31.1134 34.1303 30.6258 35.0171 30.0742 35.8583C29.742 36.3764 29.4311 36.9097 29.0319 37.379C28.5656 37.9063 28.0536 38.403 27.4715 38.8023C26.9138 39.1863 26.3103 39.5124 25.6795 39.7653C25.3686 39.8903 25.0395 39.9573 24.7225 40.0701C24.558 40.1219 24.3995 40.1859 24.238 40.2438C24.2136 40.2529 24.1892 40.259 24.1679 40.259C24.1496 40.259 24.1313 40.256 24.113 40.2438L24.1039 40.2346Z" fill="#004449"/>
<path d="M26.5388 35.0506C26.0756 34.7916 26.2493 34.1242 26.4718 33.7524C26.7095 33.1489 26.9503 32.5516 27.2489 31.9756C27.6908 30.8297 27.9346 29.6167 28.1906 28.416C28.5929 25.92 27.8645 22.8571 26.0116 21.0743C25.3198 20.4983 24.5731 19.9162 23.6924 19.6815C22.5038 19.395 21.2878 19.1451 20.0596 19.2091C18.7308 19.2792 17.3777 19.3828 16.1038 19.7882C15.4333 20.0685 14.7781 20.4068 14.1685 20.8061C13.0287 21.6685 12.2364 22.9089 11.4531 24.0853C11.0325 24.8411 10.6485 25.6152 10.2554 26.3863C9.97502 26.9562 9.6794 26.5143 9.77997 26.0632C10.0055 24.5028 10.7278 23.0369 11.6664 21.7844C12.2821 20.9371 12.9373 20.0899 13.8303 19.52C14.6805 19.011 15.4303 18.5783 16.3476 18.3375C16.7133 18.2522 17.0821 18.179 17.4508 18.1181C17.527 18.112 17.6032 18.1028 17.6764 18.0937C17.716 18.0876 17.7586 18.0845 17.7983 18.0754C17.8257 18.0754 17.8501 18.0754 17.8775 18.0754C17.9384 18.0754 18.0024 18.0724 18.0634 18.0663C18.1122 18.0632 18.1609 18.0571 18.2097 18.051C18.3133 18.0388 18.4139 18.0297 18.5175 18.0175C18.6089 18.0053 18.7004 17.9931 18.7918 17.9809C18.8741 17.9687 18.9564 17.9535 19.0386 17.9383C19.0508 17.9383 19.063 17.9352 19.0783 17.9322C19.1514 17.9291 19.2245 17.9261 19.3007 17.92C19.3952 17.9139 19.4897 17.8986 19.5842 17.8895C19.5964 17.8895 19.6085 17.8895 19.6207 17.8865C20.1449 17.8621 20.6691 17.859 21.1903 17.8804C22.2965 18.0175 23.4181 18.176 24.4725 18.5478C25.2832 18.9074 26.0299 19.4438 26.6882 20.035C29.0958 22.3543 29.8912 26.5264 29.0257 29.6899C28.7392 30.9516 28.4405 32.2255 27.8249 33.3744C27.5324 33.8925 27.4044 35.0628 26.6821 35.0628C26.6364 35.0628 26.5906 35.0598 26.5388 35.0476V35.0506Z" fill="#004449"/>
<path d="M19.3922 39.0217C18.7308 39.0126 18.0756 38.8998 17.4447 38.7017C16.5305 38.4609 15.6588 38.0647 14.8329 37.6198C14.8482 37.6259 14.8634 37.635 14.8756 37.6411C14.8817 37.6411 14.8878 37.6472 14.9183 37.6625C14.3118 37.3607 13.7419 36.9981 13.2025 36.5897C12.9434 36.3977 12.6478 36.1996 12.5198 35.8948C12.4314 35.6876 12.4284 35.3402 12.6935 35.2609C12.9495 35.1847 13.2268 35.267 13.4554 35.3889C13.6718 35.52 13.8455 35.7059 14.0558 35.8461C14.4855 36.1813 15.0371 36.5196 15.4912 36.7482C16.1769 37.1139 16.884 37.4461 17.6398 37.6442C18.2432 37.8423 18.871 37.9428 19.5049 37.9307C20.2638 37.9093 21.0501 37.9246 21.7724 37.6472C22.9244 37.1474 24.0246 36.4891 24.9297 35.6114C25.2802 35.2701 25.6428 34.9013 25.9415 34.5295C26.1122 34.2979 26.2554 34.051 26.4139 33.8103C26.6211 33.4842 26.7674 33.1215 26.9107 32.7649C27.4074 31.6434 27.7579 30.4762 27.9438 29.2663C28.2272 27.8827 28.2242 26.4686 28.0383 25.0727C27.9194 24.576 27.8006 24.0731 27.5689 23.616C27.1606 22.6926 26.5937 21.8514 25.9415 21.0834C25.4326 20.5074 24.82 20.0381 24.2592 19.5169C24.1038 19.3646 23.8508 19.2731 23.7259 19.1086C23.5522 18.6301 24.6188 18.9806 24.7956 19.0781C26.1305 19.6175 27.1758 20.6568 27.9529 21.8453C28.1693 22.1318 28.3522 22.4427 28.5046 22.7657C28.8002 23.3387 29.0836 23.9238 29.2207 24.5577C29.4036 25.1489 29.4188 25.7737 29.4646 26.3863C29.5621 27.6449 29.3853 28.9006 29.1446 30.1348C28.9465 31.107 28.663 32.0609 28.2699 32.9691C28.0901 33.3897 27.9682 33.731 27.764 34.1211C27.5476 34.496 27.3129 34.8617 27.0661 35.2183C26.4992 35.8918 25.8806 36.5287 25.1827 37.0712C24.3628 37.696 23.4181 38.2446 22.4764 38.6377C21.5011 39.0247 20.4314 39.0187 19.3952 39.0217H19.3922Z" fill="#004449"/>
<path d="M19.6299 39.1253C16.0398 38.784 12.8276 37.4217 10.8162 34.307C10.2371 33.4324 9.87448 32.4449 9.61848 31.4331C9.23448 29.9855 8.99371 28.4373 9.29238 26.9531C9.42038 25.8499 9.75562 24.8716 10.2737 23.9025C10.9472 22.7139 11.575 21.4735 12.4893 20.4465C13.3274 19.6541 14.2966 19.0141 15.3815 18.6118C15.9575 18.3649 16.5853 18.3467 17.1796 18.1577C17.201 18.1516 17.2192 18.1455 17.2406 18.1394C17.2406 18.1394 17.2467 18.1394 17.2497 18.1394C17.2497 18.1394 17.2497 18.1394 17.2528 18.1394H17.2589C17.2589 18.1394 17.2589 18.1394 17.2558 18.1394C17.3107 18.1333 17.3686 18.1242 17.4234 18.1211C17.5057 18.112 17.588 18.1059 17.6703 18.0968C17.713 18.0937 17.7526 18.0876 17.7922 18.0785C17.8196 18.0785 17.844 18.0785 17.8714 18.0785C17.9324 18.0785 17.9964 18.0754 18.0573 18.0693C18.1061 18.0663 18.1549 18.0602 18.2036 18.0541C18.3072 18.0419 18.4078 18.0328 18.5114 18.0206C18.6029 18.0084 18.6943 17.9962 18.7857 17.984C18.804 17.984 18.8223 17.9779 18.8406 17.9749C19.2764 18.2065 19.3861 19.0293 18.8528 19.2183C18.487 19.3432 18.1 19.3463 17.7221 19.4042C17.2771 19.5474 16.7895 19.6389 16.3507 19.7089C15.1286 20.0686 13.9949 20.7299 13.1263 21.6503C12.465 22.4457 11.9438 23.4057 11.444 24.2987C9.9019 26.8495 10.0177 29.4918 10.9655 32.2255C11.7122 34.2065 13.3244 35.7943 15.217 36.7025C16.1312 37.1322 17.076 37.3821 18.0512 37.5924C18.9838 37.7691 19.9347 37.9185 20.8764 37.6929C22.004 37.4034 23.0737 36.9067 24.0794 36.3307C24.9541 35.7516 25.6916 35.008 26.484 34.3223C26.7522 34.0998 26.9229 33.7889 27.0905 33.4933C27.2337 33.3135 27.447 33.4933 27.4349 33.6792C27.4288 33.8834 27.3434 34.0754 27.2916 34.2705C26.6486 36.0747 25.0669 37.44 23.3541 38.1989C22.2691 38.6926 21.1293 39.1375 19.9255 39.1375C19.828 39.1375 19.7305 39.1375 19.6299 39.1284V39.1253Z" fill="#004449"/>
<path d="M18.679 38.7748C17.9872 38.7688 17.3229 38.5859 16.6798 38.3482C16.1891 38.1867 15.6863 38.0526 15.2048 37.8545C14.4032 37.5192 13.6992 37.0011 13.0196 36.4678C11.0722 35.0171 10.2402 33.8225 9.57581 31.4849C9.13695 29.7905 8.93276 27.9406 9.44476 26.24C9.60019 25.8164 9.78 25.4049 9.95067 24.9874C10.0634 24.6796 10.1945 24.3809 10.3316 24.0823C10.4261 23.7897 10.7552 23.5733 11.0112 23.8385C11.3312 24.1981 10.999 24.6522 10.9655 25.0545C10.8406 25.8072 10.4505 26.4899 10.3072 27.2366C10.033 29.0225 10.3987 30.8602 11.0966 32.5089C11.2276 32.7954 11.3648 33.0758 11.5324 33.344C11.825 33.7981 12.212 34.1821 12.5869 34.5691C13.425 35.4042 14.2874 36.2209 15.3602 36.7299C16.0642 37.0408 16.8261 37.1992 17.5392 37.4857C17.9903 37.6442 18.4779 37.6777 18.9472 37.7295C19.2246 37.7752 19.5872 37.7966 19.8493 37.7844C20.3857 37.7356 20.919 37.6442 21.4585 37.7295C21.6931 37.763 21.9278 37.6929 22.1594 37.7234C22.4459 37.7874 22.3392 38.1105 22.0985 38.1714C21.6931 38.4091 21.2269 38.4213 20.7758 38.5036C20.465 38.5615 20.1602 38.6468 19.8554 38.7169C19.4653 38.787 19.0691 38.8023 18.676 38.7748H18.679Z" fill="#004449"/>
<path d="M9.69163 48.3809C9.10344 48.3809 8.51829 48.3688 7.9301 48.3383C6.85125 48.3108 5.76934 48.3169 4.69963 48.1707C4.19677 48.0762 3.68172 47.9512 3.23677 47.6922C2.46572 47.1954 2.15182 46.3848 2.94725 45.7295C3.37391 45.3577 3.92553 45.1962 4.45277 45.0286C4.97391 44.8366 5.51334 44.7086 6.06191 44.6263C6.47944 44.6049 7.21696 44.3032 7.48515 44.7329C7.62534 44.9798 7.39372 45.2571 7.14686 45.3089C6.83906 45.3882 6.54039 45.5101 6.23258 45.5924C5.6962 45.7539 5.16287 45.9276 4.63258 46.1074C4.35525 46.2141 3.99563 46.275 3.81887 46.5341C4.19372 47.3173 6.67144 47.2198 7.48515 47.2564C9.3381 47.3234 11.1911 47.3569 13.041 47.2381C14.7903 47.1162 16.5427 47.0248 18.2859 46.8602C19.8585 46.7108 21.4219 46.4731 22.9732 46.1928C23.5065 46.0526 24.8535 45.8971 25.1126 45.4217C25.1613 45.2815 25.076 45.1291 25.0364 44.992C24.9206 44.7116 24.7164 44.483 24.4787 44.2971C24.049 43.9619 23.54 43.7333 23.0036 43.6449C22.8634 43.6358 22.7507 43.5108 22.8848 43.4011C23.0189 43.3249 23.1834 43.3493 23.3328 43.3371C24.4116 43.3188 25.6642 43.6876 26.1701 44.7238C26.4688 45.2754 26.3408 45.8027 25.8989 46.2293C25.5423 46.5768 25.0516 46.7413 24.5884 46.8907C23.4486 47.2228 22.2691 47.3966 21.0989 47.5794C19.1514 47.8994 17.1857 48.0335 15.22 48.1646C13.3792 48.2926 11.5385 48.4297 9.69163 48.384V48.3809Z" fill="#004449"/>
<path d="M14.1564 16.8046C13.7877 16.8106 13.6231 16.3809 13.7389 16.0731C13.8029 15.875 13.9522 15.7044 14.0802 15.555C14.6197 14.8876 15.1103 14.1806 15.598 13.4766C16.2684 12.4221 16.9145 11.3432 17.4296 10.2004C17.6917 9.55731 18.0056 8.89598 18.0147 8.18893C18.0482 7.57941 17.5911 7.04303 16.9694 7.03389C16.8444 7.04608 16.6799 7.1375 16.5915 7.0217C16.5214 6.86322 16.6829 6.71389 16.814 6.64989C17.1553 6.48227 17.5728 6.51579 17.9202 6.64684C20.1968 7.64646 17.8288 11.7699 16.9999 13.2084C16.4696 14.1257 15.8509 14.9851 15.2292 15.8415C15.1012 16.0122 14.9671 16.1798 14.8269 16.3413C14.6593 16.5607 14.4581 16.8137 14.1564 16.8076V16.8046Z" fill="#004449"/>
<path d="M24.113 30.1166C23.8235 29.7173 23.7747 29.1931 23.5644 28.7512C23.2566 28.0838 22.8848 27.4377 22.4063 26.8739C20.8063 24.8747 18.0452 24.7131 16.0429 26.2095C14.961 27.0385 14.1259 28.1661 13.5408 29.3912C13.4006 29.632 13.2086 30.3238 12.8368 30.1074C12.4589 29.4857 13.425 27.6571 13.812 27.0842C15.3206 24.5608 18.7065 22.9821 21.4585 24.4419C22.4551 24.9905 23.2749 25.8194 23.8692 26.7825C24.2715 27.4225 24.6128 28.1051 24.8322 28.8305C25.0273 29.2632 25.1766 29.8575 24.6981 30.1623C24.5214 30.275 24.2623 30.2842 24.113 30.1166Z" fill="#004449"/>
<path d="M21.0958 28.0655C19.2429 27.3036 20.276 24.3962 21.9674 25.4111C23.9423 25.792 22.9853 28.9798 21.0958 28.0655Z" fill="#004449"/>
<path d="M20.724 28.5775C19.9957 28.0716 19.6696 27.0019 19.8738 26.1547C19.9896 25.6457 20.2395 25.0545 20.7515 24.8472C20.9221 24.765 21.1202 24.7253 21.3061 24.7863C21.8974 25.0331 21.7663 25.6457 21.233 25.8773C20.9587 26.0846 20.8002 26.8099 20.9191 27.1269C20.9831 27.3067 21.041 27.517 21.2421 27.584C21.5804 27.7211 22.001 27.7577 22.3179 27.5505C22.4917 27.3707 22.385 27.0933 22.5221 26.8952C22.8025 26.4686 23.3724 26.7672 23.5065 27.1634C23.6284 27.4682 23.537 27.8217 23.4364 28.1204C23.0159 29.1718 21.5347 29.1291 20.724 28.5745V28.5775Z" fill="#004449"/>
<path d="M1.64898 55.6739C1.53622 55.488 1.5545 55.2351 1.52707 55.0339C1.50574 54.8206 1.4966 54.6072 1.47526 54.4C1.42955 53.949 1.38993 53.4949 1.39603 53.0408C1.3686 51.7425 1.37165 50.6392 1.48441 49.3897C1.59717 48.2773 1.68555 46.8053 2.54498 46.0008C2.71565 45.8484 2.85584 45.7722 3.04784 45.699C3.22155 45.6198 3.38917 45.5223 3.57507 45.4766C3.85241 45.4065 4.10231 45.2602 4.3766 45.184C4.60212 45.1017 4.87336 45.1931 4.83374 45.4735C4.80326 45.6564 4.64479 45.7539 4.49545 45.8331C4.26688 45.9611 4.03526 46.1257 3.80365 46.2354C3.56288 46.4305 3.27641 46.5798 3.08441 46.8297C2.66993 47.4606 2.6425 48.253 2.55717 48.9813C2.47793 50.1425 2.40784 51.3036 2.4566 52.4678C2.47184 53.2053 2.44136 54.0343 2.42917 54.7535C2.40784 55.0461 2.46269 55.3539 2.35603 55.6343C2.21279 55.9726 1.83184 56 1.64898 55.6709V55.6739Z" fill="#004449"/>
<path d="M2.00252 48.9295C1.88976 48.899 1.91109 48.7558 1.90195 48.6643C1.90195 48.4205 1.88366 48.1706 1.89585 47.9329C1.92023 47.1497 2.06652 46.2415 2.74919 45.7569C3.31909 45.3546 3.97128 45.0407 4.67528 44.9676C4.87033 44.928 5.06538 44.9036 5.26042 44.8761C5.54081 44.806 5.83033 44.8822 5.90957 45.1931C5.99795 45.5314 5.75719 45.9245 5.41281 45.9916C5.24823 46.0251 5.08366 46.0556 4.91909 46.083C4.465 46.1714 3.99261 46.2049 3.5629 46.3939C3.32519 46.5097 3.05395 46.5645 2.84671 46.7382C2.51452 47.1436 2.42919 47.68 2.29814 48.1767C2.22804 48.3443 2.22195 48.96 2.00252 48.9325V48.9295Z" fill="#004449"/>
<path d="M25.8897 54.0373C25.7617 53.891 25.7861 53.6868 25.7678 53.507C25.7496 53.2815 25.7435 53.1809 25.7282 52.9828C25.5911 51.3798 25.7587 49.7706 25.7983 48.1676C25.7587 47.2106 25.9324 46.2019 25.5149 45.3028C25.393 44.9524 25.1827 44.6263 24.8749 44.4129C24.6677 44.2362 24.4482 44.0838 24.1983 43.968C24.0917 43.9131 23.9515 43.904 23.8753 43.8034C23.8265 43.7303 23.8753 43.6175 23.9545 43.587C24.0917 43.5505 24.244 43.587 24.3842 43.6084C24.7621 43.6937 25.1187 43.8461 25.4722 43.9954C25.6185 44.0594 25.7465 44.1508 25.8684 44.2545C26.3621 44.7268 26.6699 45.3882 26.7736 46.0617C26.9412 47.5764 26.8406 49.1002 26.7918 50.6179C26.7736 51.3097 26.7888 52.096 26.7309 52.7695C26.7035 53.1108 26.7035 53.4735 26.6273 53.7874C26.5419 54.0891 26.1244 54.3177 25.8897 54.0343V54.0373Z" fill="#004449"/>
<path d="M4.78802 53.4278C3.34345 52.9128 4.00479 50.112 5.60174 50.5752C7.14688 50.9928 6.34536 53.955 4.78802 53.4278ZM5.12021 52.3185C5.32136 52.2728 5.40669 52.032 5.41583 51.8491C5.08974 51.7425 4.99526 52.0594 5.08669 52.3185C5.09888 52.3185 5.10802 52.3185 5.12021 52.3185Z" fill="#004449"/>
<path d="M19.6147 28.2484C18.6425 27.7577 19.252 25.8042 20.3339 26.7154C20.9678 27.2457 20.5351 28.669 19.6147 28.2484Z" fill="white"/>
<path d="M38.9518 46.4153C38.9396 47.3722 38.9884 48.3292 38.9884 49.2892C39.0036 50.0175 39.0493 50.7429 39.095 51.4682C39.095 52.0229 39.1255 52.5745 39.1651 53.1261C39.22 53.8575 39.7015 54.4762 40.2653 54.912C41.3655 55.7074 42.6851 56.0975 43.9895 56.4054C47.2718 57.1977 50.679 57.3775 54.0466 57.3135C56.0703 57.2435 58.1 57.1398 60.0962 56.7741C61.0013 56.6187 61.9522 56.4968 62.7689 56.064C63.6192 55.6191 63.6009 54.9577 63.5308 54.1806C63.5369 54.1044 63.54 54.0282 63.543 53.949C63.5857 53.1871 63.6131 52.2728 63.6253 51.5535C63.6101 49.9078 63.8051 47.4271 62.9457 46.0008C62.8207 45.7814 62.3666 45.312 62.1045 45.4553C61.8455 45.6442 62.0741 45.9673 62.1655 46.1867C62.2234 46.3604 62.2569 46.5372 62.2996 46.7139C62.3118 46.7718 62.3209 46.8297 62.3331 46.8876C62.1198 46.976 61.8943 47.1071 61.748 47.1345C61.3061 47.2564 60.8855 47.4454 60.4345 47.5398C60.0474 47.6069 59.6573 47.6191 59.2703 47.68C58.6272 47.8019 57.975 47.9238 57.3167 47.8812C55.6253 47.7867 53.9308 47.744 52.2455 47.5947C51.1605 47.4758 50.0786 47.3539 48.9876 47.2991C47.5217 47.1711 46.0527 47.0583 44.599 46.8419C43.2185 46.592 41.8745 46.1806 40.5122 45.8636C40.4055 45.8362 40.2988 45.8118 40.1983 45.7753C40.1282 45.7509 40.0611 45.7356 39.9971 45.7295C39.9971 45.4827 40.0154 45.2358 40.0672 44.992C40.1129 44.7391 40.2074 44.541 40.2562 44.2972C40.3324 44.0473 40.1373 43.6815 39.8417 43.8004C39.5278 43.9741 39.3358 44.3215 39.1986 44.6415C38.9609 45.2023 38.9518 45.821 38.9518 46.4214V46.4153Z" fill="#B7E8FF"/>
<path d="M60.3583 47.2808C60.9587 47.1985 61.6596 47.101 62.0711 46.6103C62.4855 45.9886 62.1229 45.3151 61.4737 45.0621C60.5107 44.5562 59.4166 44.4282 58.3652 44.221C57.393 44.0777 56.4299 43.8614 55.4577 43.7151C53.4128 43.4103 51.4196 42.7855 49.3442 42.7276C47.5217 42.7093 45.6932 42.6301 43.8737 42.8038C42.7583 42.9105 41.5911 42.9562 40.5701 43.456C39.9911 43.7486 39.0981 44.5714 39.6345 45.2328C39.9362 46.5554 43.0143 46.4884 44.1023 46.5311C45.0196 46.6073 45.937 46.6865 46.8574 46.7444C49.1126 46.845 51.441 47.1558 53.6657 47.1314C55.0006 47.165 56.3324 47.3356 57.6673 47.2899C58.5633 47.2564 59.4654 47.36 60.3583 47.2777V47.2808ZM58.8223 46.2294C57.2924 46.2385 55.7838 46.2263 54.2661 46.077C53.5499 46.0587 52.8337 46.0922 52.1175 46.0404C50.8254 45.9977 49.5423 45.824 48.2501 45.7692C46.772 45.7082 45.3031 45.5345 43.825 45.4553C43.8829 45.3913 43.9286 45.3151 43.9499 45.2236C43.9713 45.1383 43.9682 45.053 43.9469 44.9798C44.34 44.8153 44.4711 44.3154 44.0779 44.0655C44.1054 44.0046 44.1206 43.9375 44.1206 43.8583C46.0436 43.7059 47.9789 43.7394 49.905 43.837C51.4257 43.9497 52.8947 44.3673 54.388 44.6446C55.5278 44.8244 56.6646 45.0316 57.8014 45.2419C58.8467 45.44 59.9652 45.5254 60.9008 46.0678C60.9008 46.0678 60.9008 46.0739 60.9008 46.077C60.2364 46.3269 59.5141 46.2354 58.8193 46.2294H58.8223Z" fill="#004449"/>
<path d="M59.5324 46.9059C59.7092 46.8998 59.9012 46.8145 60.017 46.6743C60.1084 46.6621 60.1968 46.6316 60.2761 46.589C60.5656 46.6133 60.6753 46.6225 60.9313 46.6438C61.5987 46.7474 62.2143 46.0191 61.4616 45.6198C60.462 45.2328 59.4258 44.9371 58.3652 44.7787C57.8044 44.7086 56.8901 44.4739 56.6585 45.184C56.5762 45.2511 56.5122 45.3394 56.4818 45.4431C56.4696 45.4796 56.4665 45.5192 56.4635 45.5589C55.8631 45.7417 55.9271 46.4853 56.5458 46.5768C57.5423 46.6499 58.5328 46.8419 59.5294 46.909L59.5324 46.9059Z" fill="#004449"/>
<path d="M52.3583 48.0244C53.6688 47.9695 55.0006 47.9817 56.2806 47.6586C56.7377 47.5794 57.0638 47.1984 57.1552 46.7565C57.3747 45.9946 57.5941 45.2327 57.7891 44.4647C58.3834 42.7459 59.057 41.0605 59.889 39.4605C60.2242 38.7596 60.5503 38.0556 60.9191 37.3729C61.2634 36.675 61.5682 35.9588 61.8973 35.2518C62.2387 34.5356 62.4886 33.7828 62.7568 33.0392C63.5004 31.1771 63.9392 29.1779 63.8173 27.1665C63.8265 26.7245 63.7869 26.2796 63.6924 25.8468C63.6162 25.4354 63.5766 25.0148 63.4669 24.6125C62.769 22.1257 61.1019 20.0929 59.505 18.1272C57.0425 15.232 54.5191 12.4983 51.9225 9.74017C51.1911 8.94169 50.4413 8.15845 49.6642 7.39959C49.3991 7.15579 49.1278 6.85712 48.8231 6.6255C48.753 6.58588 48.6768 6.55236 48.6036 6.52188C48.5549 6.50359 48.5031 6.4914 48.4512 6.47921C48.3933 6.46702 48.3354 6.44874 48.2745 6.43655C48.241 6.43045 48.2074 6.4274 48.1709 6.42131C48.1251 6.41521 48.0794 6.40912 48.0337 6.40912C47.985 6.40912 47.9331 6.40912 47.8813 6.41826C47.8356 6.4274 47.7869 6.43959 47.7411 6.45179C47.6863 6.46702 47.6284 6.48531 47.5735 6.50359C47.5248 6.52493 47.476 6.54931 47.4272 6.57674C47.412 6.58588 47.3937 6.59807 47.3785 6.61331C47.3358 6.65293 47.2992 6.69559 47.2627 6.74131C47.2688 6.73521 47.2718 6.72912 47.2779 6.72302C47.2688 6.73521 47.2596 6.74436 47.2505 6.75655C47.2048 6.8114 47.1621 6.86931 47.1194 6.93026C47.0463 7.08264 46.9945 7.25026 46.961 7.41483C46.769 8.21331 46.9732 9.02398 47.2535 9.77369C47.5674 10.6605 47.9789 11.5108 48.4391 12.3306C47.7442 12.0106 46.9853 11.8186 46.2326 11.7211C44.8124 11.52 43.3343 11.6114 41.9811 12.1082C41.1766 12.3977 40.3263 12.7268 39.7533 13.3882C39.3815 13.8026 39.0981 14.3969 39.3297 14.9455C39.7869 16.1127 41.3015 16.1767 42.353 16.1981C42.5968 16.1981 42.9015 16.2072 43.0539 15.9969C43.697 16.0365 44.34 16.0305 44.9861 16.0213C46.0345 16.0091 47.0829 16 48.113 16.1859C48.8444 16.4053 49.716 16.5333 50.4231 16.7741C51.0112 16.9569 51.5751 17.344 52.1785 17.4689C52.3309 17.5756 52.4771 17.6884 52.6143 17.8133C53.2909 18.4381 53.6413 19.3127 54.0101 20.1386C55.0341 22.147 55.1712 24.3779 54.0101 26.3649C52.8154 28.3794 51.3495 30.2293 49.7038 31.8872C47.22 34.0449 44.1114 34.9775 43.1758 38.531C42.8162 40.0518 42.8375 41.6274 42.9716 43.1725C42.9991 43.5322 43.0143 43.8887 43.0265 44.2484C43.0295 44.3093 43.0356 44.3672 43.0387 44.4282C43.0387 44.5044 43.0417 44.5836 43.0478 44.6598C43.0478 44.6842 43.0509 44.7116 43.0539 44.736C43.057 44.8 43.06 44.8609 43.06 44.9249C43.06 44.9188 43.06 44.9127 43.06 44.9036C43.06 44.9889 43.0661 45.0773 43.0691 45.1626C43.0691 45.2449 43.0691 45.3242 43.0722 45.4065C43.0722 45.4552 43.0752 45.5009 43.0783 45.5497C43.0783 45.635 43.0874 45.7173 43.0905 45.8026C43.0905 45.8453 43.0966 45.8849 43.0996 45.9245C43.1027 45.9642 43.1057 46.0038 43.1118 46.0464C43.1118 46.0586 43.1149 46.0678 43.1179 46.08C43.124 46.08 43.1301 46.0861 43.1362 46.0861C43.1545 46.0922 43.1728 46.0952 43.1911 46.1013C43.2276 46.1135 43.2642 46.1257 43.2977 46.147C43.3617 46.1866 43.4013 46.2445 43.4074 46.3177C43.4135 46.3695 43.3983 46.4244 43.3648 46.464C43.5751 46.6499 43.8951 46.8266 44.3522 46.9638C45.5773 47.5002 46.9152 47.6617 48.2349 47.808C49.3259 47.9329 50.4231 48.0365 51.5202 48.0365C51.7975 48.0365 52.0749 48.0304 52.3522 48.0152L52.3583 48.0244Z" fill="#A4453B"/>
<path d="M43.1027 46.0769C43.1027 46.0769 43.1058 46.0769 43.109 46.0801C43.109 46.0801 43.1058 46.0801 43.1027 46.0769Z" fill="#A4453B"/>
<path d="M48.5884 6.5158C48.5884 6.5158 48.5914 6.5158 48.5945 6.5158C48.6006 6.5158 48.6036 6.51885 48.6097 6.5219C48.6036 6.5219 48.5975 6.5158 48.5884 6.51276V6.5158Z" fill="#A4453B"/>
<path d="M34.1426 26.0145C34.1426 26.3772 34.1548 26.7398 34.1701 27.0995C34.2219 28.928 34.4291 30.7749 34.9929 32.5212C35.2489 33.2252 35.4531 33.9535 35.7975 34.621C35.9682 34.941 36.1571 35.2518 36.3522 35.5596C36.532 35.8431 36.7392 36.0991 36.9556 36.352C37.4158 36.9097 37.8577 37.4827 38.3788 37.9886C39.7289 39.3113 41.4905 40.1463 43.3251 40.5425C44.2729 40.7924 45.2146 41.1764 46.2051 41.1855C47.0158 41.1581 47.6558 40.8594 48.3537 40.6278C49.0242 40.3993 49.7221 40.2621 50.3956 40.0366C51.1301 39.7989 51.8158 39.4515 52.4771 39.0522C53.9339 38.269 54.9853 37.7996 55.9392 36.352C56.3567 35.6694 56.7072 34.941 56.9236 34.1699C57.2954 33.6031 57.4935 32.9356 57.7312 32.3048C58.0725 31.3692 58.359 30.3543 58.3925 29.3608C58.5084 27.8705 58.3895 26.3375 58.1122 24.8777C58.0116 24.3444 57.8927 23.8141 57.7282 23.2991C57.6276 23.0187 57.5788 22.6774 57.3198 22.4975C57.1156 22.0313 56.8474 21.6046 56.5762 21.1779C56.1861 20.544 55.7899 19.9071 55.2687 19.3707C54.5495 18.5966 53.7815 17.8377 52.8398 17.341C52.0718 16.9509 51.2794 16.5882 50.4626 16.3139C49.4752 15.997 48.4634 15.7684 47.4394 15.613C46.5404 15.4575 45.6352 15.3387 44.7209 15.3722C43.8585 15.3539 42.999 15.421 42.1609 15.6343C41.2497 15.8385 40.3384 16.0915 39.5278 16.5669C38.4581 17.2191 37.4188 17.9414 36.5929 18.8922C36.1815 19.3524 35.7975 19.9162 35.511 20.4404C35.0447 21.1993 34.7064 22.0404 34.5388 22.9181C34.3682 23.9482 34.1426 24.9753 34.1426 26.0236V26.0145Z" fill="#0FFF80"/>
<path d="M37.2512 27.0049C37.2025 28.163 37.3152 29.3364 37.5804 30.464C37.6474 30.7413 37.7419 31.0095 37.7998 31.2899C37.8242 31.4453 37.8669 31.5977 37.9278 31.744C38.3027 32.6278 38.7385 33.4964 39.2962 34.2766C39.5034 34.6514 39.7259 35.0171 39.9728 35.3707C40.9328 36.5775 41.9933 37.2571 43.1911 37.6076C43.8585 37.9489 44.5442 38.1684 45.3671 38.0769C45.8455 38.0251 46.3301 38.0251 46.8055 37.9307C47.2931 37.8484 47.7716 37.7265 48.2592 37.6442C48.6006 37.5771 48.9419 37.507 49.2741 37.4126C49.5941 37.315 49.8958 37.1687 50.2036 37.0347C50.4901 36.9097 50.7857 36.8 51.057 36.6507C51.4471 36.419 51.8707 36.0503 52.1023 35.6206C53.4097 34.4655 54.4703 32.9966 54.9853 31.3356C55.3876 29.6411 55.793 27.7851 55.3602 26.0632C55.1042 25.1886 54.6806 24.387 54.1442 23.6587C54.0863 23.4971 54.0223 23.3356 53.9492 23.1802C53.6962 22.7017 53.3488 22.2811 53.0196 21.8545C52.5564 21.1992 52.0231 20.5867 51.377 20.1143C51.3282 20.0747 51.2764 20.035 51.2246 19.9954C49.6002 18.9927 47.6954 18.4533 45.7907 18.371C44.5259 18.3741 43.2276 18.5661 42.0238 18.9958C41.265 19.2366 40.5427 19.5931 39.9789 20.0747C39.8539 20.1905 39.7351 20.3124 39.6253 20.4404C38.6897 21.376 38.0528 22.6164 37.6109 23.8507C37.3884 24.6065 37.3274 25.3988 37.3274 26.1882C37.2909 26.4625 37.2634 26.7367 37.2421 27.011L37.2512 27.0049Z" fill="#D5FFBF"/>
<path d="M55.1042 37.5345C55.6497 37.3516 55.9971 36.8061 56.3842 36.413C57.0364 35.6328 57.5331 34.755 57.9354 33.8347C57.9659 33.7432 58.0025 33.6549 58.0421 33.5665C58.0817 33.472 58.1244 33.3745 58.1609 33.28C58.2036 33.1642 58.2493 33.0514 58.2889 32.9356C58.3103 32.8747 58.3316 32.8168 58.3529 32.7589C58.3712 32.707 58.3865 32.6552 58.4017 32.6004C58.4352 32.4846 58.4657 32.3718 58.5023 32.256C58.5023 32.2499 58.5053 32.2438 58.5084 32.2408C58.5084 32.2408 58.5084 32.2347 58.5084 32.2316C58.5084 32.2316 58.5084 32.2377 58.5084 32.2408C58.5358 32.1646 58.5632 32.0884 58.5907 32.0122C58.6242 31.9116 58.6486 31.808 58.6729 31.7044C58.6729 31.7135 58.6699 31.7227 58.6669 31.7318C58.6851 31.6526 58.7034 31.5733 58.7278 31.4971C58.7339 31.4758 58.743 31.4545 58.7491 31.4301C58.7705 31.3509 58.7918 31.2716 58.8131 31.1924C58.8131 31.1863 58.8131 31.1802 58.8192 31.1771C58.8314 31.1284 58.8406 31.0766 58.8497 31.0278C58.8741 30.9029 58.8985 30.7779 58.9228 30.656C58.9228 30.6499 58.9229 30.6438 58.9259 30.6377C58.9411 30.5676 58.9533 30.4945 58.9686 30.4244C58.9777 30.3817 58.9869 30.3421 58.996 30.2994C59.0082 30.2171 59.0204 30.1379 59.0295 30.0556C59.0295 30.0404 59.0295 30.0251 59.0326 30.0099C59.0326 29.9977 59.0387 29.9825 59.0417 29.9703C59.2947 28.0046 59.1545 25.987 58.74 24.0427C58.1518 21.763 56.9053 19.3981 55.0371 17.8712C54.2844 17.28 53.492 16.7253 52.6356 16.2895C52.1602 15.9665 51.6177 16.1067 51.6299 16.7345C51.639 17.088 51.8889 17.3562 52.2242 17.4568C52.6265 17.6549 53.0135 17.8834 53.3853 18.1303C54.0558 18.6057 54.7476 19.072 55.2992 19.6815C57.0303 21.696 57.975 24.2347 58.0451 26.8465C58.2707 29.053 57.8166 31.2686 56.9632 33.2952C56.5701 34.2004 56.0642 35.0629 55.4699 35.8552C55.2078 36.2453 54.7933 36.5592 54.644 37.0103C54.5861 37.2541 54.7659 37.5436 55.031 37.5436C55.0554 37.5436 55.0798 37.5436 55.1072 37.5345H55.1042Z" fill="#004449"/>
<path d="M37.3366 37.4431C37.5895 37.2907 37.6901 36.992 37.6474 36.7147C37.5529 36.6232 37.4585 36.5318 37.3731 36.4312C37.3183 36.3673 37.2634 36.3033 37.2086 36.2393C37.1293 36.1417 37.0531 36.0412 36.9769 35.9406C36.9769 35.9436 36.983 35.9467 36.983 35.9497C36.8642 35.7882 36.7514 35.6236 36.6387 35.4591C36.5381 35.3128 36.4375 35.1634 36.34 35.0141C36.2242 34.8404 36.1084 34.6667 36.0017 34.4869C35.895 34.3071 35.7945 34.1242 35.6969 33.9383C35.6451 33.8377 35.5933 33.7372 35.5476 33.6335C35.508 33.5452 35.4745 33.4537 35.4379 33.3653C35.3434 33.1368 35.2764 32.9021 35.2002 32.6674V32.6705C35.127 32.4389 35.0722 32.2042 35.0112 31.9695C35.0112 31.9787 35.0173 31.9878 35.0173 31.9939C34.9838 31.8751 34.9533 31.7562 34.9259 31.6373C34.9259 31.6465 34.9289 31.6556 34.932 31.6617C34.9015 31.5398 34.871 31.4149 34.8375 31.296C34.7918 31.1436 34.7369 30.9913 34.6973 30.8358C34.6729 30.7413 34.6547 30.6438 34.6303 30.5493C34.612 30.4671 34.5968 30.3878 34.5846 30.3055C34.5754 30.2446 34.5693 30.1836 34.5632 30.1227C34.4657 29.6076 34.3804 29.0926 34.2768 28.5775C34.1762 27.7303 34.1792 26.8739 34.2158 26.0206C34.2341 25.4507 34.2646 24.8777 34.3682 24.317C34.4444 23.7288 34.6059 23.1619 34.7827 22.5981C35.0021 21.8088 35.2794 21.0316 35.7213 20.3337C36.0383 19.84 36.3552 19.3341 36.7941 18.9379C37.2451 18.5661 37.7449 18.2553 38.2234 17.917C39.1011 17.3532 40.0794 16.9387 41.0638 16.5882C41.9232 16.3231 42.8131 16.1798 43.703 16.0335C44.0688 15.9787 44.4406 15.9513 44.8124 15.9543C45.2756 15.9817 45.7389 15.9939 46.199 15.9939C47.3175 16.0457 48.4299 16.2347 49.5118 16.5181C50.1 16.6522 50.6851 16.8137 51.2368 17.0667C51.6482 17.2343 52.0627 17.3714 52.4406 17.5939C52.791 17.7402 53.1324 17.984 53.4432 18.1821C53.8638 18.4473 54.3423 18.6271 54.711 18.9653C54.8482 19.0903 54.9731 19.2274 55.1133 19.3493C55.2901 19.5078 55.5156 19.6053 55.6954 19.7547C55.799 19.8431 55.9057 19.9345 55.9941 20.0351C56.0977 20.16 56.1769 20.3124 56.3202 20.4008C56.4025 20.4434 56.5061 20.3886 56.5366 20.3063C56.5122 20.3703 56.5457 20.285 56.5457 20.2789C56.5548 20.2514 56.5579 20.2179 56.5548 20.1874C56.4969 19.9314 56.3659 19.6907 56.2288 19.4621C56.0215 19.0781 55.6954 18.8099 55.4699 18.4473C55.1651 18.0145 54.775 17.6457 54.3088 17.3836C53.9674 17.1794 53.6809 16.8991 53.3396 16.6949C53.0928 16.5516 52.8428 16.4145 52.5929 16.2743C52.2272 16.0853 51.8402 15.9482 51.4684 15.7775C50.9808 15.5673 50.4688 15.4118 49.9507 15.2899C48.9998 15.0339 48.0337 14.8511 47.0554 14.7474C46.6501 14.7048 46.2448 14.7048 45.8364 14.6987C45.2787 14.6834 44.7209 14.6316 44.1632 14.6956C43.2124 14.8084 42.2646 14.9821 41.335 15.2107C40.7438 15.3692 40.1769 15.5916 39.6223 15.8415C38.8025 16.1859 38.0162 16.6034 37.3061 17.1307C36.7606 17.5086 36.1846 17.8652 35.764 18.3833C34.8985 19.4408 34.2097 20.6507 33.8531 21.9673C33.4082 23.296 33.14 24.6827 33.1217 26.0876C33.079 27.1269 33.0669 28.1783 33.2406 29.2114C33.3015 29.5619 33.3838 29.9093 33.4448 30.2598C33.5057 30.5951 33.5545 30.9333 33.6337 31.2686C33.8166 31.9543 34.0573 32.6248 34.2768 33.3013C34.6943 34.5326 35.3617 35.6663 36.151 36.7086C36.3095 36.9158 36.4863 37.1139 36.66 37.309C36.7636 37.437 36.916 37.5071 37.0714 37.5071C37.1598 37.5071 37.2482 37.4857 37.3305 37.437L37.3366 37.4431Z" fill="#004449"/>
<path d="M47.8478 41.3775C48.5122 41.277 49.1461 41.0514 49.7739 40.835C50.3529 40.6278 50.932 40.4145 51.4897 40.1615C52.9891 39.4667 54.3788 38.5371 55.4912 37.3303C56.0246 36.7817 56.567 36.2301 56.9754 35.584C57.527 34.7611 57.9293 33.853 58.2341 32.9173C58.3956 32.4876 58.548 32.0549 58.6912 31.619C58.7004 31.5764 58.7126 31.5368 58.7247 31.4941C58.7308 31.4728 58.74 31.4514 58.7461 31.427C58.7674 31.3478 58.7887 31.2686 58.8101 31.1893C58.8101 31.1832 58.8131 31.1771 58.8131 31.1741C58.8253 31.1253 58.8345 31.0735 58.8436 31.0248C58.868 30.8937 58.8924 30.7657 58.9198 30.6347C58.935 30.5646 58.9472 30.4914 58.9625 30.4213C58.9777 30.3482 58.996 30.275 59.0051 30.1989C59.0112 30.1531 59.0173 30.1074 59.0234 30.0587C59.0234 30.0404 59.0234 30.0251 59.0234 30.0069C59.0295 29.9672 59.0387 29.9307 59.0478 29.891C59.0234 29.8453 58.9929 29.7996 58.9472 29.76C58.7491 29.5832 58.4626 29.632 58.2554 29.76C57.9324 29.9429 57.8927 30.3208 57.8105 30.6408C57.6276 31.2808 57.4234 31.8507 57.2009 32.4663C56.8291 33.5939 56.3659 34.7093 55.6009 35.6389C55.1316 36.1935 54.6013 36.6994 54.0893 37.2175C52.8367 38.3512 51.2886 39.1314 49.6825 39.68C49.0882 39.8903 48.4908 40.1036 47.863 40.2011C46.711 40.3322 45.5377 40.3749 44.3796 40.253C43.2642 40.1128 42.1945 39.747 41.1948 39.2472C41.1644 39.235 41.1369 39.2229 41.1065 39.2107C41.0638 39.1924 41.0181 39.1771 40.9754 39.1558C40.9206 39.1284 40.8687 39.0979 40.8169 39.0674L40.8017 39.0583C40.8017 39.0583 40.8169 39.0674 40.823 39.0705C40.8139 39.0644 40.8047 39.0583 40.7926 39.0522C40.7926 39.0522 40.7926 39.0522 40.7895 39.0522C40.7895 39.0522 40.7895 39.0522 40.7865 39.0522C40.7895 39.0522 40.7926 39.0552 40.7956 39.0583C40.7346 39.0217 40.6707 38.9851 40.6067 38.9486C40.5122 38.8937 40.4146 38.8358 40.3202 38.781C40.2257 38.7261 40.1343 38.6712 40.0459 38.6103C40.0459 38.6103 40.0489 38.6103 40.052 38.6133C40.052 38.6133 40.0459 38.6103 40.0428 38.6072C40.0428 38.6072 40.0428 38.6072 40.0398 38.6072C40.0398 38.6072 40.0337 38.6042 40.0307 38.6011C40.0276 38.6011 40.0215 38.595 40.0185 38.592C40.0185 38.592 40.0124 38.589 40.0093 38.5859C40.0124 38.5859 40.0154 38.592 40.0185 38.592C39.988 38.5707 39.9606 38.5493 39.9301 38.528C39.7046 38.3817 39.4851 38.2324 39.2687 38.0739C38.8604 37.76 38.4489 37.4522 38.068 37.1078C37.9948 37.0438 37.9247 36.9829 37.8546 36.9158C37.8607 36.9219 37.8699 36.928 37.876 36.9371C37.8181 36.8853 37.7632 36.8335 37.7084 36.7787C37.5956 36.672 37.4859 36.5623 37.3853 36.4465C37.3305 36.3825 37.2756 36.3185 37.2207 36.2545C37.1415 36.157 37.0653 36.0564 36.9922 35.9589C36.8733 35.8004 36.7636 35.6358 36.6508 35.4743C36.5503 35.328 36.4497 35.1787 36.3522 35.0293C36.2364 34.8556 36.1206 34.6819 36.0139 34.5021C35.9072 34.3223 35.8066 34.1394 35.7091 33.9535C35.6573 33.853 35.6055 33.7524 35.5598 33.6488C35.5202 33.5604 35.4866 33.469 35.4501 33.3806C35.3556 33.155 35.2886 32.9204 35.2124 32.6888C35.1392 32.4571 35.0844 32.2225 35.0234 31.9878C35.0234 31.9939 35.0265 32 35.0295 32.0061C34.999 31.8933 34.9716 31.7836 34.9411 31.6709C34.9411 31.677 34.9411 31.68 34.9442 31.6861C34.9137 31.5642 34.8832 31.4392 34.8497 31.3204C34.804 31.168 34.7491 31.0156 34.7095 30.8602C34.6851 30.7657 34.6668 30.6682 34.6425 30.5737C34.6242 30.4914 34.6089 30.4122 34.5967 30.3299C34.5906 30.2811 34.5846 30.2324 34.5785 30.1836C34.551 30.1196 34.5236 30.0587 34.4962 29.9947C34.3834 29.7051 34.3103 29.4004 34.2219 29.1048C34.1366 28.803 34.0756 28.4922 33.9628 28.1966C33.9263 28.099 33.9324 27.9924 33.9049 27.8918C33.8836 27.8126 33.8013 27.773 33.7221 27.7882C33.4844 27.8522 33.4508 28.1509 33.4356 28.355C33.3472 28.9554 33.3381 29.565 33.4356 30.1653C33.5545 30.7566 33.7647 31.3295 33.8653 31.9269C34.0543 32.6309 34.1945 33.3562 34.4779 34.0328C34.6729 34.4838 34.9503 34.8952 35.191 35.3219C35.4592 35.7455 35.6908 36.1935 35.959 36.6171C36.212 36.9859 36.4558 37.3638 36.7697 37.6869C37.5042 38.4366 38.3697 39.0644 39.2474 39.6495C39.5674 39.8446 39.8935 40.0305 40.2257 40.2072C40.2806 40.2316 40.3354 40.259 40.3903 40.2834C40.4207 40.2987 40.4512 40.3109 40.4817 40.3261C40.5061 40.3352 40.5305 40.3474 40.5548 40.3596C40.5762 40.3688 40.5945 40.381 40.6158 40.3901C40.6463 40.4053 40.6767 40.4175 40.7103 40.4328C40.7103 40.4328 40.7072 40.4328 40.7042 40.4328C40.7042 40.4328 40.7072 40.4328 40.7103 40.4328C40.7103 40.4328 40.7164 40.4328 40.7194 40.4358C40.7255 40.4358 40.7316 40.4419 40.7377 40.445H40.7347C40.7347 40.445 40.7407 40.445 40.7438 40.445C40.7499 40.445 40.756 40.451 40.759 40.4541C40.759 40.4541 40.759 40.4541 40.756 40.4541C40.759 40.4541 40.7621 40.4571 40.7651 40.4571C40.7682 40.4571 40.7712 40.4602 40.7743 40.4632C40.7743 40.4632 40.7743 40.4632 40.7773 40.4632C40.7773 40.4632 40.7773 40.4632 40.7804 40.4632C40.7804 40.4632 40.7804 40.4632 40.7773 40.4632C40.7773 40.4632 40.7773 40.4632 40.7743 40.4632C40.7743 40.4632 40.7743 40.4632 40.7712 40.4632C40.8322 40.4937 40.8931 40.5242 40.9541 40.5577C40.9998 40.5821 41.0425 40.6095 41.0882 40.6309C41.6459 40.8777 42.2188 41.088 42.8101 41.2343C43.3007 41.3501 43.8006 41.4385 44.3034 41.4964C44.8489 41.539 45.4006 41.536 45.9461 41.539C46.583 41.5208 47.22 41.4781 47.8478 41.3928V41.3775ZM39.3449 38.7383C39.3449 38.7383 39.3388 38.7596 39.3266 38.7596C39.3145 38.7596 39.3023 38.7505 39.2992 38.7352C39.2962 38.72 39.3053 38.7139 39.3175 38.7139C39.3297 38.7139 39.3419 38.723 39.3449 38.7383Z" fill="#004449"/>
<path d="M40.7164 40.4206C40.7164 40.4206 40.7255 40.4236 40.7316 40.4267C40.7255 40.4267 40.7225 40.4206 40.7164 40.4206Z" fill="#004449"/>
<path d="M40.8322 39.0735C40.8322 39.0735 40.8414 39.0796 40.8475 39.0827C40.8414 39.0796 40.8383 39.0766 40.8322 39.0735Z" fill="#004449"/>
<path d="M40.0246 38.5891C40.0246 38.5891 40.0277 38.5891 40.0309 38.5922C40.0309 38.5922 40.0246 38.5891 40.0246 38.5859V38.5891Z" fill="#004449"/>
<path d="M36.98 35.9467C36.98 35.9467 36.98 35.9467 36.9832 35.9498C36.9832 35.9498 36.9832 35.9498 36.98 35.9467Z" fill="#004449"/>
<path d="M40.9785 40.4663C41.3046 40.3596 41.4783 39.9817 41.4356 39.6526C41.4234 39.5032 41.3503 39.36 41.2406 39.2625C41.201 39.2442 41.1583 39.229 41.1187 39.2137C41.076 39.1954 41.0303 39.1802 40.9876 39.1589C40.9328 39.1314 40.881 39.101 40.8292 39.0705C40.8292 39.0705 40.8261 39.0705 40.8231 39.0674C40.8139 39.0644 40.8078 39.0583 40.7987 39.0522C40.7987 39.0522 40.7987 39.0522 40.7956 39.0522C40.7956 39.0522 40.7956 39.0522 40.7926 39.0522C40.7926 39.0522 40.7895 39.0522 40.7865 39.0492C40.7255 39.0126 40.6615 38.976 40.6006 38.9394C40.5061 38.8846 40.4086 38.8267 40.3141 38.7718C40.2166 38.7139 40.1191 38.656 40.0276 38.589C40.0246 38.5859 40.0185 38.5829 40.0154 38.5798C39.9758 38.5524 39.9362 38.5219 39.8966 38.4945C39.796 38.4213 39.6954 38.3512 39.5949 38.2781C39.5156 38.2202 39.4364 38.1623 39.3572 38.1044C39.3206 38.08 39.284 38.0556 39.2474 38.0312C39.2474 38.0312 39.2474 38.0312 39.2444 38.0312C39.2413 38.0312 39.2352 38.0252 39.2322 38.0221C39.2322 38.0221 39.2292 38.0221 39.2261 38.0191C39.2261 38.0191 39.2292 38.0191 39.2322 38.0221C39.1682 37.9764 39.1073 37.9276 39.0463 37.8789C39.025 37.8636 39.0067 37.8484 38.9853 37.8332C38.9 37.7691 38.8177 37.6991 38.7324 37.632C38.4429 37.4278 38.1808 37.2023 37.9217 36.9524C37.3427 36.4526 36.849 35.8522 36.4375 35.2152C36.0413 34.624 35.7914 33.9535 35.4897 33.3135C35.2642 32.8168 35.0935 32.2987 34.9107 31.7836C34.4962 30.5829 34.4566 29.3059 34.3316 28.0533C34.2676 27.2 34.2951 26.3406 34.3956 25.4903C34.3956 25.4842 34.3956 25.4781 34.3956 25.472C34.3956 25.4385 34.4048 25.405 34.4078 25.3745C34.4109 25.344 34.417 25.3166 34.42 25.2861C34.4688 24.9082 34.5328 24.5333 34.6059 24.1615C34.804 22.8968 35.1941 21.6594 35.7823 20.5227C36.7819 18.8556 38.132 17.7402 39.921 16.9905C40.6311 16.6827 41.332 16.3444 42.0939 16.1859C42.5754 16.0914 43.0539 15.9909 43.5354 15.9055C44.2943 15.7745 45.0684 15.7379 45.8364 15.7471C46.3819 15.7532 46.9213 15.8446 47.4669 15.8812C47.9636 15.9147 48.4573 15.9817 48.9389 16.1067C49.7282 16.3048 50.5053 16.6065 51.2642 16.9021C51.8524 17.1703 52.3888 17.536 52.9739 17.8042C54.2631 18.5112 55.3663 19.5596 56.1892 20.7665C56.6859 21.5589 57.1065 22.4061 57.4417 23.2808C57.5911 23.7501 57.7191 24.2286 57.7952 24.7162C57.9354 25.3775 58.0421 26.045 58.0817 26.7185C58.097 27.4956 58.0269 28.2514 57.9659 29.0012C57.8989 29.9398 57.8105 30.8815 57.5332 31.7867C57.3564 32.4023 57.0821 32.9783 56.817 33.5604C56.5762 34.0968 56.2928 34.6118 55.9423 35.0842C55.6772 35.4682 55.4059 35.8491 55.1012 36.1996C54.7994 36.544 54.4642 36.8549 54.1808 37.2114C53.7998 37.6716 53.4402 38.1592 52.9526 38.5189C52.8368 38.6072 52.7118 38.6926 52.6234 38.8114C52.5808 38.8724 52.593 39.0065 52.6874 39.0095C52.7667 39.0095 52.8368 38.976 52.9099 38.9455C53.6566 38.6682 54.2996 38.1958 54.9183 37.7052C55.3511 37.373 55.7655 37.0103 56.1221 36.5958C56.5762 36.0412 57.0242 35.4773 57.3686 34.8465C57.7922 34.0358 58.1884 33.2008 58.481 32.3322C58.8253 31.3021 58.9655 30.2202 59.0356 29.1413C59.1088 28.3977 59.1453 27.6511 59.1758 26.9013C59.1728 26.0602 59.0509 25.2191 58.8741 24.3962C58.7888 23.8994 58.6882 23.4027 58.5297 22.9212C58.4292 22.5737 58.3012 22.2354 58.1396 21.9093C57.9263 21.4278 57.6977 20.9524 57.4356 20.4952C56.9328 19.5688 56.2501 18.752 55.4913 18.0236C54.705 17.2922 53.8212 16.6949 52.8459 16.2438C52.3004 15.9147 51.7366 15.6069 51.1301 15.4088C50.5114 15.1893 49.9019 14.9486 49.2619 14.7962C48.625 14.6347 47.9728 14.5707 47.3175 14.5219C46.6867 14.4488 46.0558 14.3878 45.4189 14.4122C44.1907 14.4122 42.9808 14.656 41.7892 14.9242C41.1827 15.0644 40.6128 15.3204 40.0429 15.5672C38.9183 16.0213 37.8425 16.6095 36.913 17.3928C35.9956 18.24 35.1941 19.2 34.6608 20.3307C34.3682 20.9981 34.1 21.6808 33.8958 22.3817C33.7038 23.04 33.6032 23.7166 33.4722 24.3871C33.1705 26.0023 33.137 27.6602 33.3442 29.2876C33.4082 30.3116 33.5575 31.3356 33.8775 32.3109C34.228 33.3989 34.6882 34.4503 35.1972 35.4743C35.7549 36.5166 36.5168 37.44 37.4097 38.2141C37.9492 38.7352 38.6227 39.0796 39.2017 39.5551C39.4699 39.744 39.7412 39.9269 40.0215 40.0853C40.052 40.1036 40.0855 40.1189 40.116 40.1371C40.1191 40.1371 40.1221 40.1402 40.1252 40.1432C40.1434 40.1524 40.1587 40.1585 40.177 40.1676C40.2532 40.2042 40.3293 40.2377 40.4055 40.2743C40.436 40.2895 40.4634 40.3017 40.4939 40.317C40.5213 40.3261 40.5457 40.3383 40.5701 40.3535C40.5884 40.3627 40.6097 40.3718 40.628 40.381C40.6585 40.3932 40.689 40.4084 40.7194 40.4206C40.7225 40.4206 40.7255 40.4236 40.7286 40.4236C40.7286 40.4236 40.7408 40.4297 40.7469 40.4328C40.7469 40.4328 40.7469 40.4328 40.7438 40.4328C40.7438 40.4328 40.7499 40.4328 40.753 40.4358C40.7591 40.4358 40.7652 40.4419 40.7682 40.445H40.7652C40.7682 40.445 40.7712 40.448 40.7743 40.448C40.7773 40.448 40.7804 40.4511 40.7865 40.4541C40.7865 40.4541 40.7895 40.4541 40.7926 40.4541C40.82 40.4663 40.8444 40.4785 40.8718 40.4937C40.9114 40.4937 40.9511 40.4876 40.9937 40.4724L40.9785 40.4663ZM39.345 38.7352C39.345 38.7352 39.3389 38.7566 39.3267 38.7566C39.3145 38.7566 39.3023 38.7474 39.2992 38.7322C39.2962 38.717 39.3053 38.7109 39.3175 38.7109C39.3297 38.7109 39.3419 38.72 39.345 38.7352Z" fill="#004449"/>
<path d="M40.0065 38.5769C40.0065 38.5769 40.0002 38.5738 39.9971 38.5707C39.9971 38.5707 40.0034 38.5738 40.0065 38.5769Z" fill="#004449"/>
<path d="M40.7164 40.4206C40.7164 40.4206 40.7255 40.4267 40.7316 40.4267C40.7255 40.4267 40.7225 40.4206 40.7164 40.4206Z" fill="#004449"/>
<path d="M40.7865 39.0491C40.7865 39.0491 40.7897 39.0491 40.7928 39.0523C40.7928 39.0523 40.7896 39.0523 40.7865 39.0491Z" fill="#004449"/>
<path d="M41.3564 40.0152C41.4752 39.8964 41.2924 39.7714 41.1918 39.7166C40.9571 39.5703 40.7408 39.4026 40.5122 39.2503C40.0307 38.976 39.6406 38.5828 39.2078 38.2415C38.8543 37.9581 38.5008 37.6777 38.1564 37.3851C37.8486 37.0986 37.5469 36.803 37.2695 36.4891C36.8307 35.9741 36.5046 35.3798 36.1419 34.8129C35.7427 34.1821 35.3709 33.5329 35.1179 32.8289C34.8619 32.0914 34.6851 31.3265 34.4962 30.5676C34.2006 29.3028 34.1975 27.9527 34.2311 26.6727C34.2493 26.2796 34.3072 25.8895 34.3773 25.5025C34.3773 25.4903 34.3773 25.475 34.3773 25.4628C34.3773 25.4293 34.3865 25.3958 34.3895 25.3653C34.3956 25.3318 34.3987 25.2952 34.4048 25.2617C34.417 25.1886 34.4261 25.1124 34.4383 25.0392C34.4413 25.0057 34.4474 24.9752 34.4505 24.9417C34.4535 24.9082 34.4596 24.8777 34.4657 24.8442C34.4657 24.832 34.4688 24.8198 34.4718 24.8107C34.4718 24.7954 34.4779 24.7802 34.481 24.7649C34.484 24.7375 34.4871 24.7131 34.4931 24.6857C34.4962 24.6644 34.5023 24.64 34.5053 24.6186C34.5053 24.6126 34.5053 24.6095 34.5053 24.6034C34.4901 24.3444 34.3956 24.1067 34.1457 23.9451C33.7373 23.6983 33.3899 24.0731 33.3777 24.4876C33.2893 24.96 33.201 25.4324 33.1491 25.9108C33.073 26.691 33.0791 27.4834 33.1095 28.2666C33.1522 29.1992 33.2375 30.1287 33.4935 31.0278C33.6551 31.6739 33.8074 32.323 34.0208 32.9569C34.3469 33.9108 34.8345 34.7977 35.3861 35.6388C35.7183 36.1569 36.0291 36.6903 36.4284 37.1596C36.8947 37.6868 37.4067 38.1836 37.9888 38.5828C38.5465 38.9668 39.1499 39.2929 39.7808 39.5459C40.0916 39.6708 40.4208 39.7379 40.7377 39.8506C40.9023 39.9025 41.0608 39.9665 41.2223 40.0244C41.2467 40.0335 41.2711 40.0396 41.2924 40.0396C41.3107 40.0396 41.329 40.0366 41.3472 40.0244L41.3564 40.0152Z" fill="#004449"/>
<path d="M38.9213 34.8312C39.3846 34.5722 39.2109 33.9047 38.9884 33.5329C38.7507 32.9295 38.5099 32.3322 38.2112 31.7562C37.7693 30.6103 37.5255 29.3973 37.2695 28.1966C36.8672 25.7006 37.5956 22.6377 39.4486 20.8548C40.1404 20.2788 40.887 19.6967 41.7678 19.4621C42.9564 19.1756 44.1724 18.9257 45.4006 18.9897C46.7293 19.0598 48.0825 19.1634 49.3564 19.5687C50.0269 19.8491 50.6821 20.1874 51.2916 20.5866C52.4314 21.4491 53.2238 22.6895 54.007 23.8659C54.4276 24.6217 54.8116 25.3958 55.2048 26.1668C55.4851 26.7367 55.7808 26.2948 55.6802 25.8438C55.4547 24.2834 54.7324 22.8175 53.7937 21.5649C53.1781 20.7177 52.5229 19.8705 51.6299 19.3006C50.7796 18.7916 50.0299 18.3588 49.1126 18.1181C48.7469 18.0327 48.3781 17.9596 48.0093 17.8986C47.9331 17.8926 47.8569 17.8834 47.7838 17.8743C47.7442 17.8682 47.7015 17.8651 47.6619 17.856C47.6345 17.856 47.6101 17.856 47.5827 17.856C47.5217 17.856 47.4577 17.8529 47.3968 17.8468C47.348 17.8438 47.2992 17.8377 47.2505 17.8316C47.1469 17.8194 47.0463 17.8103 46.9427 17.7981C46.8512 17.7859 46.7598 17.7737 46.6684 17.7615C46.5861 17.7493 46.5038 17.7341 46.4215 17.7188C46.4093 17.7188 46.3971 17.7158 46.3819 17.7127C46.3088 17.7097 46.2356 17.7066 46.1594 17.7006C46.065 17.6945 45.9705 17.6792 45.876 17.6701C45.8638 17.6701 45.8516 17.6701 45.8394 17.667C45.3152 17.6426 44.791 17.6396 44.2699 17.6609C43.1636 17.7981 42.0421 17.9566 40.9876 18.3284C40.177 18.688 39.4303 19.2244 38.772 19.8156C36.3644 22.1348 35.5689 26.307 36.4345 29.4705C36.7209 30.7322 37.0196 32.0061 37.6352 33.155C37.9278 33.6731 38.0558 34.8434 38.7781 34.8434C38.8238 34.8434 38.8695 34.8404 38.9213 34.8282V34.8312Z" fill="#004449"/>
<path d="M46.068 38.8023C46.7293 38.7931 47.3845 38.6804 48.0154 38.4823C48.9297 38.2415 49.8013 37.8453 50.6272 37.4004C50.612 37.4065 50.5967 37.4156 50.5845 37.4217C50.5784 37.4217 50.5723 37.4278 50.5419 37.443C51.1483 37.1413 51.7183 36.7787 52.2577 36.3703C52.5167 36.1783 52.8124 35.9802 52.9404 35.6754C53.0287 35.4682 53.0318 35.1208 52.7666 35.0415C52.5106 34.9653 52.2333 35.0476 52.0047 35.1695C51.7883 35.3006 51.6146 35.4865 51.4043 35.6267C50.9746 35.9619 50.423 36.3002 49.9689 36.5288C49.2832 36.8945 48.5762 37.2267 47.8204 37.4248C47.2169 37.6229 46.5891 37.7234 45.9552 37.7112C45.1963 37.6899 44.4101 37.7051 43.6878 37.4278C42.5358 36.928 41.4356 36.2697 40.5304 35.392C40.18 35.0507 39.8173 34.6819 39.5186 34.3101C39.348 34.0785 39.2047 33.8316 39.0463 33.5909C38.839 33.2648 38.6927 32.9021 38.5495 32.5455C38.0527 31.424 37.7023 30.2568 37.5164 29.0469C37.2329 27.6632 37.236 26.2491 37.4219 24.8533C37.5407 24.3566 37.6596 23.8537 37.8912 23.3966C38.2996 22.4731 38.8664 21.632 39.5186 20.864C40.0276 20.288 40.6402 19.8187 41.2009 19.2975C41.3564 19.1451 41.6093 19.0537 41.7343 18.8891C41.908 18.4107 40.8413 18.7611 40.6645 18.8587C39.3297 19.3981 38.2844 20.4373 37.5072 21.6259C37.2908 21.9124 37.108 22.2232 36.9556 22.5463C36.66 23.1192 36.3765 23.7044 36.2394 24.3383C36.0565 24.9295 36.0413 25.5543 35.9956 26.1669C35.8981 27.4255 36.0748 28.6811 36.3156 29.9154C36.5137 30.8876 36.7971 31.8415 37.1903 32.7497C37.3701 33.1703 37.492 33.5116 37.6962 33.9017C37.9125 34.2766 38.1472 34.6423 38.3941 34.9989C38.9609 35.6724 39.5796 36.3093 40.2775 36.8518C41.0973 37.4766 42.0421 38.0251 42.9838 38.4183C43.959 38.8053 45.0287 38.7992 46.0649 38.8023H46.068Z" fill="#004449"/>
<path d="M45.8333 38.9029C49.4234 38.5615 52.6356 37.1992 54.647 34.0846C55.226 33.2099 55.5887 32.2225 55.8447 31.2107C56.2287 29.763 56.4695 28.2149 56.1708 26.7307C56.0428 25.6274 55.7076 24.6491 55.1895 23.68C54.5159 22.4914 53.8881 21.251 52.9739 20.224C52.1358 19.4316 51.1666 18.7916 50.0817 18.3893C49.5057 18.1425 48.8779 18.1242 48.2836 17.9352C48.2622 17.9291 48.2439 17.923 48.2226 17.917C48.2226 17.917 48.2165 17.917 48.2135 17.917C48.2135 17.917 48.2135 17.917 48.2104 17.917H48.2043C48.2043 17.917 48.2043 17.917 48.2074 17.917C48.1525 17.9109 48.0946 17.9017 48.0398 17.8987C47.9575 17.8895 47.8752 17.8834 47.7929 17.8743C47.7533 17.8712 47.7106 17.8651 47.671 17.856C47.6436 17.856 47.6192 17.856 47.5918 17.856C47.5308 17.856 47.4668 17.853 47.4059 17.8469C47.3571 17.8438 47.3083 17.8377 47.2596 17.8316C47.1559 17.8194 47.0554 17.8103 46.9518 17.7981C46.8603 17.7859 46.7689 17.7737 46.6775 17.7615C46.6592 17.7615 46.6409 17.7554 46.6226 17.7524C46.1868 17.984 46.0771 18.8069 46.6104 18.9958C46.9761 19.1208 47.3632 19.1238 47.7411 19.1817C48.186 19.325 48.6737 19.4164 49.1125 19.4865C50.3346 19.8461 51.4683 20.5074 52.3369 21.4278C52.9982 22.2232 53.5194 23.1832 54.0192 24.0762C55.5613 26.627 55.4455 29.2693 54.4977 32.003C53.751 33.984 52.1388 35.5718 50.2462 36.48C49.3319 36.9097 48.3872 37.1596 47.4119 37.3699C46.4794 37.5467 45.5285 37.696 44.5868 37.4705C43.4592 37.181 42.3895 36.6842 41.3838 36.1082C40.5091 35.5291 39.7716 34.7855 38.9792 34.0998C38.711 33.8773 38.5403 33.5665 38.3727 33.2709C38.2295 33.091 38.0161 33.2709 38.0283 33.4568C38.0344 33.661 38.1198 33.853 38.1716 34.048C38.8146 35.8522 40.3963 37.2175 42.1091 37.9764C43.194 38.4701 44.3339 38.915 45.5377 38.915C45.6352 38.915 45.7327 38.915 45.8333 38.9059V38.9029Z" fill="#004449"/>
<path d="M46.7811 38.5554C47.4729 38.5493 48.1373 38.3665 48.7803 38.1288C49.271 37.9672 49.7739 37.8331 50.2554 37.635C51.0569 37.2998 51.7609 36.7817 52.4405 36.2484C54.3879 34.7977 55.2199 33.603 55.8843 31.2655C56.3232 29.571 56.5274 27.7211 56.0154 26.0206C55.8599 25.5969 55.6801 25.1855 55.5095 24.768C55.3967 24.4602 55.2657 24.1615 55.1285 23.8629C55.034 23.5703 54.7049 23.3539 54.4489 23.619C54.1289 23.9787 54.4611 24.4328 54.4946 24.835C54.6196 25.5878 55.0097 26.2705 55.1529 27.0171C55.4272 28.803 55.0615 30.6408 54.3636 32.2895C54.2325 32.576 54.0954 32.8564 53.9278 33.1246C53.6352 33.5787 53.2481 33.9627 52.8733 34.3497C52.0352 35.1848 51.1727 36.0015 50.0999 36.5105C49.3959 36.8213 48.634 36.9798 47.9209 37.2663C47.4699 37.4248 46.9822 37.4583 46.5129 37.5101C46.2356 37.5558 45.8729 37.5771 45.6108 37.5649C45.0744 37.5162 44.5411 37.4248 44.0017 37.5101C43.767 37.5436 43.5323 37.4735 43.3007 37.504C43.0142 37.568 43.1209 37.891 43.3617 37.952C43.767 38.1897 44.2333 38.2019 44.6843 38.2842C44.9952 38.3421 45.2999 38.4274 45.6047 38.4975C45.9948 38.5676 46.391 38.5829 46.7841 38.5554H46.7811Z" fill="#004449"/>
<path d="M50.2402 47.939C48.2745 47.811 46.3088 47.6739 44.3614 47.3539C43.1911 47.171 42.0116 46.9973 40.8718 46.6651C40.4086 46.5158 39.9179 46.3512 39.5614 46.0038C39.1195 45.5802 38.9915 45.0499 39.2901 44.4983C39.796 43.4621 41.0486 43.0933 42.1275 43.1116C42.2737 43.1268 42.4414 43.0994 42.5755 43.1756C42.7065 43.2853 42.5968 43.4103 42.4566 43.4194C41.9202 43.5078 41.4113 43.7333 40.9815 44.0716C40.7469 44.2575 40.5396 44.483 40.4238 44.7665C40.3842 44.9006 40.2989 45.0529 40.3476 45.1962C40.6067 45.6716 41.9537 45.827 42.4871 45.9672C44.0414 46.2476 45.6048 46.4853 47.1743 46.6347C48.9206 46.7992 50.6699 46.8937 52.4193 47.0126C54.2692 47.1284 56.1252 47.0979 57.9751 47.0308C58.7888 46.9943 61.2665 47.0918 61.6414 46.3086C61.4615 46.0526 61.105 45.9916 60.8276 45.8819C60.2974 45.7051 59.764 45.5284 59.2276 45.3668C58.9198 45.2846 58.6212 45.1626 58.3134 45.0834C58.0695 45.0316 57.8349 44.7543 57.9751 44.5074C58.2433 44.0777 58.9838 44.3794 59.3983 44.4007C59.9469 44.483 60.4863 44.611 61.0075 44.803C61.5377 44.9707 62.0863 45.1322 62.513 45.504C63.3084 46.1592 62.9945 46.9729 62.2235 47.4667C61.7785 47.7257 61.2635 47.8507 60.7606 47.9451C59.6909 48.0914 58.609 48.0853 57.5301 48.1127C56.945 48.1432 56.3568 48.1524 55.7686 48.1554C55.5187 48.1615 55.2657 48.1646 55.0158 48.1646C53.4219 48.1646 51.8311 48.0487 50.2402 47.936V47.939Z" fill="#004449"/>
<path d="M50.6333 16.1158C50.4962 15.9512 50.359 15.7867 50.231 15.616C49.6093 14.7596 48.9907 13.8971 48.4604 12.9829C47.6314 11.5444 45.2634 7.42095 47.54 6.42133C47.8905 6.29333 48.3049 6.25676 48.6463 6.42438C48.7773 6.49143 48.9358 6.63771 48.8688 6.79619C48.7804 6.912 48.6128 6.82057 48.4909 6.80838C47.8722 6.81752 47.412 7.3539 47.4455 7.96343C47.4547 8.67048 47.7655 9.33181 48.0307 9.97486C48.5457 11.1147 49.1918 12.1935 49.8623 13.251C50.3499 13.955 50.8406 14.6651 51.38 15.3295C51.508 15.4789 51.6604 15.6495 51.7213 15.8476C51.8371 16.1554 51.6695 16.5851 51.3038 16.579C51.3008 16.579 51.2977 16.579 51.2947 16.579C50.996 16.579 50.7979 16.3322 50.6333 16.1128V16.1158Z" fill="#004449"/>
<path d="M63.1011 55.4179C62.9945 55.1375 63.0493 54.8328 63.028 54.5372C63.0189 53.8179 62.9853 52.989 63.0006 52.2514C63.0524 51.0872 62.9792 49.9261 62.9 48.765C62.8147 48.0366 62.7842 47.2442 62.3728 46.6133C62.1808 46.3665 61.8943 46.2141 61.6535 46.0191C61.4219 45.9093 61.1903 45.7448 60.9617 45.6168C60.8124 45.5375 60.6539 45.44 60.6234 45.2572C60.5869 44.9768 60.855 44.8853 61.0806 44.9676C61.3549 45.0408 61.6048 45.1871 61.8821 45.2602C62.068 45.3059 62.2356 45.4034 62.4093 45.4827C62.6013 45.5558 62.7446 45.632 62.9122 45.7844C63.7716 46.589 63.863 48.061 63.9728 49.1733C64.0855 50.4229 64.0886 51.5261 64.0611 52.8244C64.0642 53.2785 64.0276 53.7295 63.9819 54.1836C63.9606 54.3909 63.9514 54.6042 63.9301 54.8175C63.9027 55.0187 63.921 55.2716 63.8082 55.4575C63.7198 55.616 63.5888 55.6922 63.4577 55.6922C63.3145 55.6922 63.1743 55.6008 63.1011 55.424V55.4179Z" fill="#004449"/>
<path d="M63.1621 47.9513C63.0341 47.4575 62.9488 46.9212 62.6135 46.5128C62.4063 46.3391 62.1351 46.2842 61.8973 46.1684C61.4676 45.9795 60.9983 45.9459 60.5412 45.8575C60.3766 45.8301 60.212 45.7996 60.0474 45.7661C59.7031 45.696 59.4623 45.3059 59.5507 44.9676C59.6269 44.6598 59.9194 44.5836 60.1998 44.6507C60.3949 44.6781 60.593 44.7025 60.785 44.7421C61.4859 44.8153 62.1381 45.1292 62.7111 45.5314C63.3937 46.0191 63.54 46.9242 63.5644 47.7074C63.5766 47.9482 63.5583 48.1951 63.5583 48.4389C63.5492 48.5303 63.5735 48.6735 63.4577 48.704C63.4516 48.704 63.4486 48.704 63.4425 48.704C63.2352 48.704 63.2292 48.1097 63.1591 47.9482L63.1621 47.9513Z" fill="#004449"/>
<path d="M38.833 53.568C38.7568 53.2541 38.7568 52.8945 38.7293 52.5501C38.6714 51.8766 38.6836 51.0872 38.6684 50.3954C38.6196 48.8777 38.5191 47.3539 38.6867 45.8392C38.7903 45.1657 39.0951 44.5044 39.5918 44.032C39.7137 43.9284 39.8417 43.8369 39.988 43.7729C40.3415 43.6206 40.7012 43.4712 41.076 43.3859C41.2132 43.3646 41.3686 43.328 41.5057 43.3646C41.585 43.392 41.6307 43.5078 41.585 43.5809C41.5088 43.6815 41.3686 43.6907 41.2619 43.7455C41.0151 43.8613 40.7926 44.0137 40.5853 44.1905C40.2775 44.4038 40.0672 44.7299 39.9453 45.0804C39.5278 45.9794 39.7015 46.9882 39.6619 47.9451C39.7015 49.5482 39.8722 51.1573 39.732 52.7604C39.7168 52.9585 39.7107 53.0621 39.6924 53.2846C39.6741 53.4644 39.6985 53.6686 39.5705 53.8148C39.4943 53.9063 39.3998 53.9428 39.3053 53.9428C39.1012 53.9428 38.8878 53.7722 38.833 53.568Z" fill="#004449"/>
<path d="M59.8585 50.3558C61.4555 49.8895 62.1168 52.6933 60.6722 53.2084C60.5442 53.251 60.4223 53.2724 60.3065 53.2724C58.9991 53.2724 58.4383 50.7428 59.8555 50.3558H59.8585ZM60.0444 51.6297C60.0535 51.8156 60.1389 52.0564 60.34 52.099C60.3522 52.099 60.3614 52.099 60.3736 52.099C60.4497 51.8766 60.3918 51.6084 60.1633 51.6084C60.1267 51.6084 60.0871 51.6145 60.0444 51.6297Z" fill="#004449"/>
<path d="M52.3919 29.9398C52.8703 29.632 52.721 29.0408 52.5259 28.608C52.3065 27.8827 51.9652 27.2 51.5629 26.56C50.9656 25.5969 50.1458 24.7649 49.1522 24.2194C46.4002 22.7596 43.0174 24.3383 41.5058 26.8617C41.1187 27.4347 40.1526 29.2632 40.5305 29.8849C40.8993 30.1044 41.0943 29.4095 41.2345 29.1688C41.8197 27.9467 42.6547 26.816 43.7366 25.987C45.7389 24.4876 48.5 24.6522 50.1 26.6514C50.5785 27.2152 50.9503 27.8613 51.2581 28.5288C51.4684 28.9707 51.5172 29.4948 51.8067 29.8941C51.8859 29.9825 51.9957 30.0221 52.1084 30.0221C52.2059 30.0221 52.3065 29.9916 52.3888 29.9398H52.3919Z" fill="#004449"/>
<path d="M49.6581 25.1916C47.9667 24.1737 46.9335 27.0842 48.7865 27.8461C49.0212 27.9589 49.2436 28.0107 49.4448 28.0107C50.868 28.0107 51.3861 25.5269 49.6581 25.1947V25.1916Z" fill="#004449"/>
<path d="M51.127 27.904C51.2276 27.6053 51.319 27.2518 51.1971 26.947C51.063 26.5478 50.4931 26.2522 50.2128 26.6788C50.0756 26.8769 50.1823 27.1542 50.0116 27.3341C49.6947 27.5443 49.2741 27.5047 48.9358 27.3676C48.7377 27.2975 48.6798 27.0903 48.6128 26.9104C48.4939 26.5904 48.6524 25.8682 48.9267 25.6609C49.46 25.4293 49.591 24.8198 48.9998 24.5699C48.8139 24.5059 48.6158 24.5485 48.4451 24.6308C47.9362 24.8381 47.6832 25.4293 47.5674 25.9382C47.3632 26.7855 47.6893 27.8522 48.4177 28.3611C48.7712 28.6019 49.2467 28.7451 49.7099 28.7451C50.3133 28.7451 50.8893 28.5013 51.1301 27.907L51.127 27.904Z" fill="#004449"/>
<path d="M47.0706 26.6118C48.1525 25.7006 48.7621 27.6541 47.7899 28.1448C47.6741 28.1966 47.5674 28.2209 47.4668 28.2209C46.7781 28.2209 46.516 27.075 47.0706 26.6118Z" fill="white"/>
</g>
<defs>
<clipPath id="clip0_570_2289">
<rect width="64" height="64" fill="white" transform="translate(0.5)"/>
</clipPath>
</defs>
</svg>
