<svg width="45" height="59" viewBox="0 0 45 59" fill="none" xmlns="http://www.w3.org/2000/svg">
<g id="Group 1079">
<path id="Vector" d="M19.8013 17.3193C22.3507 18.1305 24.8807 18.0918 24.3399 21.6261C24.0502 22.9394 22.9687 24.3687 21.5009 24.388C20.458 24.388 19.4344 24.639 18.4301 24.9094C16.7305 25.3922 14.9344 26.1841 13.9494 27.7099C13.1189 29.3129 13.4279 31.2248 12.5202 32.7892C11.7863 34.0252 10.0288 34.7978 8.79274 33.7742C7.47944 32.5961 7.88501 30.6261 7.44081 29.0617C6.80347 25.7592 5.47086 25.3343 2.36142 25.1605C-0.941146 24.8322 -0.554886 20.0424 2.12966 19.0382C4.15755 18.4008 6.70691 18.4588 8.17472 16.6819C9.33351 14.7892 8.86999 12.124 10.4923 10.4824C11.6125 9.36222 13.7756 9.59399 14.3743 11.1584C15.3206 15.1176 15.6296 16.2378 19.8399 17.3193H19.8013Z" fill="#FF61EC"/>
<path id="Vector_2" d="M11.6667 58.1864C8.24823 57.7808 7.39845 54.1885 8.38342 51.3302C9.73535 47.5061 14.7182 46.5405 16.3212 50.7508C17.8856 53.9761 15.4714 58.6113 11.6667 58.1864Z" fill="#FFFBED"/>
<path id="Vector_3" d="M36.961 9.73826C32.2486 6.31981 36.8258 -2.68014 42.2915 0.776937C47.7185 4.23401 42.6005 13.6202 36.961 9.73826Z" fill="#0FFF80"/>
</g>
</svg>
