<svg width="95" height="60" viewBox="0 0 95 60" fill="none" xmlns="http://www.w3.org/2000/svg">
<path id="Union" fill-rule="evenodd" clip-rule="evenodd" d="M86.3825 37.1187C82.9609 34.613 79.7454 31.8282 76.5642 29.0299L76.5403 29.0196C75.3822 28.2902 73.3691 28.5505 73.1401 30.1238C73.1276 32.8956 82.5256 39.5783 86.8208 42.6017C86.3638 42.6567 85.9066 42.7077 85.4508 42.7252C83.5476 42.8631 81.6277 42.9087 79.7079 42.9543L79.7078 42.9543C74.9657 43.1643 70.2439 42.6742 65.5436 41.9383C57.194 40.7242 48.6908 39.4719 40.9773 35.8122C25.425 28.9771 13.6018 15.5105 4.75788 1.12549L4.73401 1.11513C2.22098 -1.39312 -0.316513 0.794258 1.74043 3.69993C6.41375 12.7309 13.2892 20.4779 20.7323 27.309C28.1485 34.0716 36.8216 39.3102 46.3925 42.4151C49.3223 43.3749 52.3319 44.0857 55.3558 44.6327C61.6154 45.7618 67.9059 46.8193 74.2725 46.9176C74.4654 46.9161 74.6981 46.9151 74.9653 46.914C76.9655 46.9055 80.893 46.8889 84.4301 46.5893C82.3998 48.3807 80.5613 50.4007 78.816 52.4612C77.8201 53.645 76.8823 54.8256 76.0805 56.1503C75.723 56.6472 75.5358 57.2747 75.6731 57.873C76.0677 59.7737 78.7598 60.4318 80.1352 59.1576C81.5795 57.0061 83.1328 54.9301 84.9175 53.0398C86.4037 51.4451 88.0299 49.8545 89.7817 48.4318C90.1462 48.1108 90.6849 47.7651 91.2697 47.39C92.9686 46.3 95.0555 44.961 94.3821 43.2557C94.1461 42.6579 93.6277 42.2621 93.1192 41.8739C93.0456 41.8176 92.9721 41.7616 92.8998 41.7051C91.8234 40.9075 90.7162 40.1475 89.6063 39.3857C88.5256 38.6439 87.4423 37.9003 86.3825 37.1187Z" fill="#FF61EF"/>
</svg>
