<svg width="50" height="59" viewBox="0 0 50 59" fill="none" xmlns="http://www.w3.org/2000/svg">
<g id="sparkle">
<path id="Vector" d="M35.3321 12.4287C33.2076 20.7334 27.0081 17.0639 27.2398 22.124C27.375 23.5725 28.4179 25.1755 29.963 25.3107C32.0295 25.5038 34.2119 26.1025 35.757 27.551C36.4715 28.3235 36.5874 29.4437 36.9544 30.3901C37.6497 32.8235 41.0295 33.7699 41.86 30.9115C42.3814 28.1111 42.9994 25.6004 46.3213 25.3686C47.0552 25.272 47.7891 25.272 48.4458 24.9244C50.7634 23.5338 49.6432 19.5167 47.1325 19.0338C43.9072 18.2999 41.8213 17.4308 41.4158 13.8386C41.1454 12.7377 40.7977 11.5403 39.8321 10.845C37.7655 9.28067 36.008 9.93732 35.3128 12.4094L35.3321 12.4287Z" fill="#BAEBFF"/>
<path id="Vector_2" d="M5.03049 9.65633C10.0133 8.28509 8.46825 -1.04325 3.09916 0.0962368C-2.05748 1.42885 -0.338603 10.7572 5.03049 9.65633Z" fill="#FF61EC"/>
<path id="Vector_3" d="M46.5326 58.0705C50.0862 56.8151 50.1248 51.3688 46.8802 49.7272C45.1227 48.9933 42.7472 48.4332 41.26 50.0169C37.803 53.4932 41.8974 60.0019 46.5326 58.0898V58.0705Z" fill="#0FFF80"/>
</g>
</svg>
