<svg width="95" height="60" viewBox="0 0 95 60" fill="none" xmlns="http://www.w3.org/2000/svg">
<path id="Union" fill-rule="evenodd" clip-rule="evenodd" d="M8.6214 37.1187C12.0431 34.613 15.2585 31.8282 18.4397 29.0299L18.4636 29.0196C19.6217 28.2902 21.6348 28.5505 21.8638 30.1238C21.8763 32.8956 12.4785 39.5781 8.18325 42.6016C8.64017 42.6565 9.09736 42.7075 9.55312 42.7251C11.4563 42.863 13.3762 42.9086 15.2961 42.9542C20.0382 43.1641 24.7601 42.6741 29.4603 41.9382C37.8099 40.7241 46.3131 39.4718 54.0266 35.8121C69.5789 28.977 81.4021 15.5103 90.246 1.12537L90.2699 1.115C92.7829 -1.39325 95.3204 0.794134 93.2635 3.69981C88.5902 12.7308 81.7147 20.4778 74.2716 27.3089C66.8554 34.0715 58.1823 39.3101 48.6115 42.415C45.6816 43.3748 42.672 44.0856 39.6481 44.6326C33.3886 45.7617 27.098 46.8192 20.7314 46.9175C20.5385 46.916 20.3058 46.915 20.0386 46.9139C18.0384 46.9054 14.1108 46.8888 10.5737 46.5892C12.604 48.3806 14.4426 50.4007 16.1879 52.4612C17.1838 53.645 18.1216 54.8256 18.9234 56.1503C19.2809 56.6472 19.4681 57.2747 19.3308 57.873C18.9362 59.7737 16.2441 60.4318 14.8687 59.1576C13.4244 57.0061 11.8711 54.9301 10.0864 53.0398C8.60024 51.4451 6.97402 49.8545 5.22216 48.4318C4.85774 48.1108 4.31897 47.7651 3.73422 47.39C2.03533 46.3 -0.051607 44.961 0.621775 43.2557C0.857789 42.6579 1.37618 42.2621 1.88469 41.8739C1.95833 41.8176 2.03177 41.7616 2.10412 41.7051C3.18049 40.9075 4.28771 40.1475 5.39764 39.3857C6.47834 38.6439 7.5616 37.9003 8.6214 37.1187Z" fill="#FF61EF"/>
</svg>
