<svg xmlns="http://www.w3.org/2000/svg" version="1.1" xmlns:xlink="http://www.w3.org/1999/xlink" xmlns:svgjs="http://svgjs.dev/svgjs" width="2000" height="530" viewBox="0 0 2000 530"><g transform="matrix(1,0,0,1,-1.2121212121210192,1.0884849026837173)"><svg viewBox="0 0 396 105" data-background-color="#ffffff" preserveAspectRatio="xMidYMid meet" height="530" width="2000" xmlns="http://www.w3.org/2000/svg" xmlns:xlink="http://www.w3.org/1999/xlink"><g id="tight-bounds" transform="matrix(1,0,0,1,0.23999999999995225,-0.21564323543734076)"><svg viewBox="0 0 395.52 105.43128647087464" height="105.43128647087464" width="395.52"><g><svg viewBox="0 0 568.8640842655642 151.638532137931" height="105.43128647087464" width="395.52"><g transform="matrix(1,0,0,1,173.3440842655643,29.84980794088669)"><svg viewBox="0 0 395.5199999999999 91.93891625615763" height="91.93891625615763" width="395.5199999999999"><g id="textblocktransform"><svg viewBox="0 0 395.5199999999999 91.93891625615763" height="91.93891625615763" width="395.5199999999999" id="textblock"><g><svg viewBox="0 0 395.5199999999999 91.93891625615763" height="91.93891625615763" width="395.5199999999999"><g transform="matrix(1,0,0,1,0,0)"><svg width="395.5199999999999" viewBox="0.3 -37.45 162.39 37.75" height="91.93891625615763" data-palette-color="#6169b3"><path d="M30.15-36.3L30.15-36.3Q31.65-36.3 33.2-36.58 34.75-36.85 35.95-37.35L35.95-37.35Q35.9-34.15 34.33-32.58 32.75-31 29.7-31L29.7-31Q28.25-31 26.48-31.25 24.7-31.5 21.95-32.1L21.95-32.1 15.05 0 7.85 0 14.95-33.1 14.35-33.1Q9.5-33.1 7.23-30.63 4.95-28.15 4.95-23L4.95-23Q4.95-22.05 5.08-21.35 5.2-20.65 5.5-20L5.5-20Q5.6-19.8 5.63-19.73 5.65-19.65 5.65-19.6L5.65-19.6Q2.85-19.6 1.58-20.78 0.3-21.95 0.3-24.45L0.3-24.45Q0.3-30.4 4.78-33.93 9.25-37.45 17.35-37.45L17.35-37.45Q19-37.45 20.53-37.33 22.05-37.2 24.45-36.85L24.45-36.85Q26.55-36.5 27.73-36.4 28.9-36.3 30.15-36.3ZM23.35-7.7L23.35-7.7Q23.35-10.55 24.27-13.75 25.2-16.95 26.8-19.45L26.8-19.45Q28.65-22.4 31.25-23.93 33.85-25.45 37.05-25.45L37.05-25.45Q40.25-25.45 41.85-23.45 43.45-21.45 43.45-17.45L43.45-17.45Q43.55-17.4 43.67-17.38 43.8-17.35 44-17.35L44-17.35Q45.55-17.35 47.7-18.2 49.85-19.05 51.7-20.35L51.7-20.35 52.15-19Q50.75-17.5 48.42-16.4 46.1-15.3 43.3-14.85L43.3-14.85Q42.7-8.1 39.4-3.95 36.1 0.2 31.35 0.2L31.35 0.2Q27.45 0.2 25.4-1.8 23.35-3.8 23.35-7.7ZM37.45-22.4L37.45-22.4Q35.05-22.4 32.92-17.55 30.8-12.7 30.8-8.35L30.8-8.35Q30.8-6 31.32-5.15 31.85-4.3 33.35-4.3L33.35-4.3Q35.2-4.3 36.87-7.3 38.55-10.3 39.15-14.7L39.15-14.7Q38.45-14.85 38.12-15.38 37.8-15.9 37.8-16.8L37.8-16.8Q37.8-17.75 38.2-18.45 38.6-19.15 39.35-19.5L39.35-19.5Q39.25-21.1 38.82-21.75 38.4-22.4 37.45-22.4ZM54.35-4.55L54.35-4.55Q55.65-4.55 56.67-5.68 57.7-6.8 58.35-8.95L58.35-8.95 61.75-25 68.95-25 65.34-8Q65.25-7.55 65.2-7.18 65.15-6.8 65.15-6.4L65.15-6.4Q65.15-5.4 65.62-4.98 66.09-4.55 67.2-4.55L67.2-4.55Q68.5-4.55 69.55-5.7 70.59-6.85 71.25-8.95L71.25-8.95 73.34-8.95Q71.75-4.35 69.2-2.02 66.65 0.3 63.3 0.3L63.3 0.3Q61.15 0.3 59.85-0.93 58.55-2.15 58.35-4.45L58.35-4.45Q56.9-2.05 55.07-0.88 53.25 0.3 50.95 0.3L50.95 0.3Q48.45 0.3 47.02-1.28 45.6-2.85 45.6-5.7L45.6-5.7Q45.6-6.35 45.7-7.18 45.8-8 46-8.95L46-8.95 49.4-25 56.6-25 53-8Q52.9-7.6 52.87-7.28 52.85-6.95 52.85-6.6L52.85-6.6Q52.85-5.6 53.22-5.08 53.6-4.55 54.35-4.55ZM80.54-19L76.54 0 69.34 0 74.64-25 81.84-25 81.19-21.9Q83.39-23.75 84.67-24.38 85.94-25 87.24-25L87.24-25Q88.79-25 89.74-23.93 90.69-22.85 90.69-21.25L90.69-21.25Q90.69-19.7 89.69-18.65 88.69-17.6 87.09-17.6L87.09-17.6Q86.24-17.6 85.77-18 85.29-18.4 85.09-19.65L85.09-19.65Q84.94-20.45 84.74-20.68 84.54-20.9 84.19-20.9L84.19-20.9Q83.34-20.9 82.59-20.55 81.84-20.2 80.54-19L80.54-19ZM102.89-31.65L102.89-31.65Q102.89-30 101.72-28.85 100.54-27.7 98.89-27.7L98.89-27.7Q97.24-27.7 96.09-28.85 94.94-30 94.94-31.65L94.94-31.65Q94.94-33.3 96.09-34.48 97.24-35.65 98.89-35.65L98.89-35.65Q100.54-35.65 101.72-34.48 102.89-33.3 102.89-31.65ZM90.14-5.7L90.14-5.7Q90.14-6.35 90.24-7.18 90.34-8 90.54-8.95L90.54-8.95 93.94-25 101.14-25 97.54-8Q97.44-7.55 97.39-7.18 97.34-6.8 97.34-6.4L97.34-6.4Q97.34-5.4 97.82-4.98 98.29-4.55 99.39-4.55L99.39-4.55Q100.79-4.55 102.04-5.78 103.29-7 103.89-8.95L103.89-8.95 105.99-8.95Q104.39-4.4 101.69-2.05 98.99 0.3 95.49 0.3L95.49 0.3Q92.99 0.3 91.57-1.28 90.14-2.85 90.14-5.7ZM119.59-8.35L119.59-8.35Q119.59-7.75 119.54-7.3 119.49-6.85 119.39-6.45L119.39-6.45Q120.39-7.05 121.34-7.7 122.29-8.35 122.99-8.95L122.99-8.95 125.09-8.95Q123.54-7.15 121.66-5.63 119.79-4.1 117.44-2.7L117.44-2.7Q116.09-1.25 113.99-0.48 111.89 0.3 109.59 0.3L109.59 0.3Q106.24 0.3 104.26-1.53 102.29-3.35 102.29-6.1L102.29-6.1Q102.29-7.65 103.04-8.93 103.79-10.2 104.94-10.75L104.94-10.75Q106.64-13.8 108.11-17.28 109.59-20.75 111.09-25.55L111.09-25.55 118.49-26.55Q118.64-22.8 118.84-19.7 119.04-16.6 119.34-12.95L119.34-12.95Q119.49-10.85 119.54-10 119.59-9.15 119.59-8.35ZM111.39-20.15L111.39-20.15Q110.74-18.1 109.81-15.88 108.89-13.65 107.34-10.7L107.34-10.7Q107.89-10.45 108.19-10 108.49-9.55 108.49-8.95L108.49-8.95Q108.49-8 107.84-7.25 107.19-6.5 106.29-6.5L106.29-6.5Q105.79-6.5 105.44-6.68 105.09-6.85 104.94-7.15L104.94-7.15Q104.94-5.3 105.66-4.48 106.39-3.65 107.99-3.65L107.99-3.65Q110.04-3.65 111.19-4.85 112.34-6.05 112.34-8.3L112.34-8.3Q112.34-9 112.29-9.73 112.24-10.45 112.09-12.15L112.09-12.15Q111.84-14.5 111.69-16.3 111.54-18.1 111.39-20.15ZM147.49-5.35L147.49-5.35Q147.49-6.25 147.71-7.6 147.94-8.95 148.64-11.9L148.64-11.9Q149.34-14.75 149.54-16 149.74-17.25 149.74-18.1L149.74-18.1Q149.74-19.35 149.29-20 148.84-20.65 147.94-20.65L147.94-20.65Q146.74-20.65 145.71-19.43 144.69-18.2 144.04-16.05L144.04-16.05 140.64 0 133.44 0 137.09-17.25Q137.19-17.55 137.21-17.85 137.24-18.15 137.24-18.5L137.24-18.5Q137.24-19.5 136.84-20.1 136.44-20.7 135.74-20.7L135.74-20.7Q134.44-20.7 133.39-19.48 132.34-18.25 131.69-16.05L131.69-16.05 128.29 0 121.09 0 126.39-25 133.59-25 133.04-22.4Q134.29-23.85 135.79-24.55 137.29-25.25 139.14-25.25L139.14-25.25Q141.34-25.25 142.61-24.18 143.89-23.1 144.29-20.95L144.29-20.95Q145.69-23.1 147.39-24.15 149.09-25.2 151.24-25.2L151.24-25.2Q153.89-25.2 155.34-23.75 156.79-22.3 156.79-19.55L156.79-19.55Q156.79-18.4 156.51-16.82 156.24-15.25 155.44-12L155.44-12Q154.79-9.45 154.59-8.4 154.39-7.35 154.39-6.65L154.39-6.65Q154.39-5.6 154.89-5.08 155.39-4.55 156.39-4.55L156.39-4.55Q157.64-4.55 158.54-5.4 159.44-6.25 160.59-8.95L160.59-8.95 162.69-8.95Q161.09-4.3 158.81-2 156.54 0.3 153.39 0.3L153.39 0.3Q150.59 0.3 149.04-1.23 147.49-2.75 147.49-5.35Z" opacity="1" transform="matrix(1,0,0,1,0,0)" fill="#6169b3" class="wordmark-text-0" data-fill-palette-color="primary" id="text-0"></path></svg></g></svg></g></svg></g></svg></g><g><svg viewBox="0 0 151.63951267147564 151.638532137931" height="151.638532137931" width="151.63951267147564"><g><svg xmlns="http://www.w3.org/2000/svg" xmlns:xlink="http://www.w3.org/1999/xlink" xml:space="preserve" version="1.1" style="shape-rendering:geometricPrecision;text-rendering:geometricPrecision;image-rendering:optimizeQuality;" viewBox="0.010000000000189857 0.020000000000351292 1546.5 1546.4899999999996" x="0" y="0" fill-rule="evenodd" clip-rule="evenodd" width="151.63951267147564" height="151.638532137931" class="icon-icon-0" data-fill-palette-color="accent" id="icon-0"><g fill="#1d4a76" data-fill-palette-color="accent"><path class="" d="M587.97 886.43c8.83 0 15.99 7.15 15.99 15.99 0 8.82-7.15 15.99-15.99 15.99l-329.92-0.39-18.04 11.43c-1.58 1-3.27 1.69-4.99 2.09l-88.17 23.62c-8.56 2.29-17.34-2.79-19.62-11.34-1.17-4.38-0.42-8.81 1.75-12.41l44.16-73.27c2.27-3.76 5.82-6.25 9.77-7.26l212.38-56.9c8.55-2.29 17.33 2.79 19.62 11.34 1.85 6.93-1.14 14.02-6.9 17.68l-99.6 63.11 279.55 0.33z m232.74 410.85c-8.42 2.76-17.48-1.81-20.25-10.22-2.76-8.41 1.81-17.48 10.22-20.24l308.04-102.05c8.41-2.76 17.48 1.81 20.24 10.22 2.77 8.41-1.8 17.48-10.21 20.24l-308.04 102.05z m-13.69-85.15c-8.41 2.77-17.47-1.8-20.24-10.21-2.76-8.42 1.8-17.48 10.22-20.25l86.24-28.56c8.41-2.77 17.48 1.8 20.24 10.22 2.77 8.41-1.8 17.47-10.21 20.24l-86.25 28.56z m263.96-177.11c-8.41 2.77-17.47-1.8-20.24-10.21-2.77-8.42 1.8-17.48 10.22-20.25l171.37-56.76c8.42-2.77 17.48 1.8 20.25 10.22 2.76 8.41-1.81 17.47-10.22 20.24l-171.38 56.76z m-55.85 108.18c-8.41 2.77-17.48-1.8-20.24-10.21-2.77-8.42 1.8-17.48 10.21-20.25l290.04-96.07c8.41-2.77 17.48 1.8 20.24 10.22 2.77 8.41-1.8 17.47-10.21 20.24l-290.04 96.07z m-297.04 188.07c-8.41 2.77-17.47-1.8-20.24-10.21-2.77-8.42 1.8-17.48 10.22-20.25l16.08-5.33c8.41-2.76 17.48 1.81 20.24 10.22 2.77 8.41-1.8 17.48-10.21 20.24l-16.09 5.33z m-30.84-802.86c-8.41 2.77-17.47-1.8-20.24-10.21-2.77-8.42 1.8-17.48 10.22-20.25l90.96-30.13c8.41-2.76 17.48 1.8 20.24 10.22 2.77 8.41-1.8 17.48-10.21 20.24l-90.97 30.13z m-396.98 598.23c-8.41 2.76-17.48-1.81-20.24-10.22-2.77-8.41 1.8-17.48 10.21-20.24l95.43-31.62c8.41-2.76 17.48 1.81 20.24 10.22 2.77 8.41-1.8 17.48-10.21 20.24l-95.43 31.62z m199.33-801.77c-8.42 2.76-17.48-1.81-20.25-10.22-2.76-8.41 1.81-17.48 10.22-20.24l55.14-18.26c8.41-2.77 17.48 1.8 20.24 10.21 2.77 8.42-1.8 17.48-10.21 20.25l-55.14 18.26z m134.13-44.43c-8.41 2.76-17.47-1.81-20.24-10.22-2.77-8.41 1.8-17.48 10.22-20.24l332.53-110.15c8.41-2.77 17.47 1.8 20.24 10.21 2.76 8.42-1.8 17.48-10.22 20.25l-332.53 110.15z m-306.64 758.13c-8.41 2.77-17.48-1.8-20.24-10.22-2.77-8.41 1.8-17.47 10.21-20.24l125.5-41.57c8.41-2.77 17.47 1.8 20.24 10.21 2.77 8.42-1.8 17.48-10.22 20.25l-125.49 41.57z m-82.39 27.29c-8.41 2.77-17.47-1.8-20.24-10.21-2.77-8.42 1.8-17.48 10.22-20.25l13.12-4.35c8.41-2.76 17.48 1.81 20.24 10.22 2.77 8.41-1.8 17.48-10.21 20.24l-13.13 4.35z m176.38-625.3c-8.41 2.76-17.47-1.81-20.24-10.22-2.77-8.41 1.8-17.48 10.22-20.24l498.15-165.02c8.41-2.77 17.48 1.8 20.24 10.22 2.77 8.41-1.8 17.47-10.21 20.24l-498.16 165.02z m433.42-53.9c-8.42 2.77-17.48-1.8-20.25-10.22-2.76-8.41 1.81-17.47 10.22-20.24l174.26-57.72c8.42-2.77 17.48 1.8 20.25 10.21 2.76 8.42-1.81 17.48-10.22 20.25l-174.26 57.72z m-522.34 173.03c-8.41 2.76-17.47-1.81-20.24-10.22-2.77-8.41 1.8-17.48 10.22-20.24l410.64-136.03c8.41-2.77 17.48 1.8 20.24 10.21 2.77 8.42-1.8 17.48-10.21 20.25l-410.65 136.03z m675.47-313.43c-8.41 2.76-17.48-1.81-20.24-10.22-2.77-8.41 1.8-17.48 10.21-20.24l38.36-12.71c8.41-2.77 17.48 1.8 20.24 10.22 2.77 8.41-1.8 17.47-10.22 20.24l-38.35 12.71z m515.21 478.41c-0.55-8.82 6.15-16.43 14.98-16.99 8.83-0.55 16.44 6.15 17 14.99 0.52 7.91 0.92 16.34 1.22 25.27 0.31 9.55 0.47 17.99 0.47 25.32 0 213.52-86.55 406.84-226.48 546.77-139.93 139.93-333.25 226.48-546.77 226.48-213.49 0-406.77-86.52-546.7-226.41l-0.07-0.07 0 0-0.07-0.08c-139.88-139.92-226.41-333.21-226.41-546.69 0-9.28 0.22-19.41 0.64-30.39 0.43-10.76 1.01-20.87 1.76-30.35 0.69-8.82 8.41-15.42 17.23-14.73 8.82 0.68 15.42 8.41 14.74 17.23-0.81 10.31-1.41 20.01-1.76 29.09-0.35 8.85-0.52 18.57-0.52 29.14 0 198.89 78.34 379.48 205.85 512.6l381.33-381.33 29.31-72.47c1.75-4.37 5.21-7.54 9.31-9.05l72.86-29.95 58.1-58.1-28.07 7.52c-11.51 3.07-23.25 1.16-32.88-4.41l-0.05-0.03-0.02 0.03c-9.64-5.57-17.17-14.81-20.26-26.37l-0.02-0.06c-3.06-11.5-1.14-23.23 4.42-32.86 5.6-9.69 14.83-17.24 26.37-20.33l44.56-11.93c11.52-3.09 23.27-1.17 32.92 4.4 9.69 5.6 17.24 14.83 20.33 26.37l0.01 0.03c0.79 2.98 1.25 5.97 1.4 8.94l132.04-132.03-844.15 279.63-0.01-0.04-0.12 0.04c-9.59 3.09-16.71 8.27-21.25 14.37-3.49 4.67-5.44 9.87-5.77 14.96-0.31 4.8 0.82 9.56 3.47 13.69 2.95 4.61 7.83 8.62 14.77 11.38 8.2 3.25 12.22 12.54 8.96 20.75-3.26 8.2-12.55 12.21-20.75 8.96-13.63-5.44-23.56-13.85-29.94-23.79-6.46-10.07-9.22-21.53-8.48-32.99 0.73-11.17 4.8-22.29 12.04-32.01 8.3-11.15 20.77-20.47 37.05-25.75l-0.01-0.03 23.16-7.68-134.94-165.91c-5.58-6.85-4.54-16.93 2.32-22.5 1.81-1.48 3.85-2.49 5.96-3.05l0-0.02 88.7-23.77c4.2-1.12 8.45-0.48 11.96 1.5l277.97 130.29 629.57-208.55 265.75-265.75c-42.77-40.96-90.16-76.51-141.06-106.01-111-64.3-238.73-99.82-371.57-99.82-163.36 0-317.05 53.43-441.7 145.94-124.66 92.5-220.32 224.11-267.66 380.45-2.56 8.48-11.51 13.28-20 10.72-8.48-2.57-13.28-11.52-10.72-20 49.35-163.03 149.19-300.32 279.31-396.88 130.12-96.55 290.45-152.33 460.77-152.33 138.49 0 271.74 37.08 387.61 104.21 57.74 33.46 111.17 74.37 158.76 121.88 0.13 0.12 0.27 0.25 0.4 0.38 0.12 0.13 0.24 0.26 0.37 0.39 47.57 47.62 89.3 101.85 123.68 161.81 4.4 7.69 1.73 17.48-5.95 21.88-7.69 4.4-17.48 1.72-21.88-5.96-30.31-52.85-66.57-101.07-107.66-143.97l-1047.91 1047.91c133.12 127.51 313.7 205.85 512.6 205.85 204.67 0 389.95-82.95 524.08-217.07 134.12-134.13 217.07-319.41 217.07-524.08 0-9.21-0.11-17.32-0.34-24.32-0.25-7.59-0.66-15.69-1.22-24.27z m-1287.94 176.41l77.25-48.96-104.87 28.1-20.31 33.7 47.93-12.84z m1289.79-386.56c0.47 0.4 0.91 0.83 1.34 1.29l0.42 0.41c14.82 14.42 23.56 30.54 27.52 47.27 4.98 21.04 2.23 42.7-5.6 62.95-7.52 19.44-19.78 37.6-34.25 52.46-18.33 18.84-40.58 32.72-61.7 37.73l-453.09 107.26-148.33 217.65c-2.25 3.3-5.52 5.49-9.09 6.45l0 0.01-272.49 73.02c-8.55 2.29-17.33-2.79-19.62-11.35-1.01-3.77-0.57-7.6 0.95-10.89l28.57-70.68c3.3-8.2 12.61-12.18 20.82-8.89 8.2 3.29 12.19 12.61 8.9 20.81l-16.88 41.72 235.73-63.16 148.15-217.4c0.2-0.32 0.42-0.63 0.64-0.94l5.87-8.63c5.42-7.68 7.7-13.94 7.48-18.82-0.16-3.37-1.9-6.4-4.84-8.95-4.23-3.68-10.52-6.47-18.24-8.2-19.53-4.38-46.19-1.97-72.74 8.94l-23.99 9.85c-8.16 3.36-17.51-0.54-20.87-8.72-3.36-8.17 0.54-17.51 8.72-20.88l23.98-9.85c32.74-13.46 66.49-16.24 91.79-10.57 13.06 2.93 24.22 8.08 32.42 15.22 9.49 8.26 15.16 18.94 15.75 31.77 0.21 4.67-0.3 9.52-1.58 14.55l424.72-100.54c15.2-3.61 31.81-14.22 46.03-28.82 11.65-11.96 21.44-26.4 27.36-41.69 5.6-14.49 7.64-29.72 4.22-44.14-2.13-9.01-6.48-17.85-13.52-26.16l-210.85 56.5c-11.51 3.08-23.25 1.16-32.89-4.41l-0.04-0.03-0.02 0.03c-9.64-5.57-17.17-14.8-20.27-26.37l0-0.03c-3.08-11.51-1.16-23.25 4.41-32.88 5.59-9.69 14.83-17.24 26.36-20.33l140.29-37.6c-11.38-5.02-23.31-9.39-35.71-12.9-40.06-11.34-85.26-13.75-133.7-0.88l-103.91 34.42c-8.41 2.76-17.48-1.8-20.24-10.22-2.77-8.41 1.8-17.48 10.21-20.24l104.21-34.52c0.49-0.17 0.98-0.31 1.48-0.42 54.52-14.49 105.43-11.77 150.61 1.02 28.58 8.09 54.84 20.22 78.23 34.56 0.54 0.3 1.08 0.62 1.58 0.98 21.08 13.09 39.79 27.96 55.72 43.24z m-67.52-12.83l-172.97 46.34c-3.06 0.82-5.49 2.78-6.93 5.29-1.38 2.39-1.89 5.28-1.28 8.17 0.12 0.36 0.21 0.72 0.3 1.09 0.89 2.78 2.79 5.01 5.19 6.4l-0.01 0.02c2.38 1.36 5.25 1.87 8.11 1.25 0.46-0.14 0.92-0.26 1.39-0.36l190.18-50.96c-7.53-5.98-15.53-11.77-23.97-17.24z m-384.47 69.84l44.53-11.93c11.55-3.1 23.32-1.18 32.98 4.4 0.37 0.22 0.72 0.45 1.07 0.68 9.14 5.65 16.23 14.61 19.2 25.68l0 0.03c3.08 11.51 1.16 23.25-4.41 32.89-5.59 9.69-14.83 17.24-26.37 20.33l-44.56 11.93c-11.52 3.09-23.27 1.17-32.92-4.4-9.68-5.6-17.23-14.83-20.33-26.37l-0.02-0.09c-3.05-11.49-1.13-23.21 4.43-32.83l0.03-0.04-0.03-0.02c5.57-9.64 14.8-17.17 26.36-20.27l0.04 0z m52.8 19.04l-43.71 11.71c-0.46 0.15-0.92 0.28-1.4 0.39-2.77 0.89-5 2.79-6.39 5.19l-0.02-0.01c-1.36 2.38-1.87 5.25-1.25 8.11 0.11 0.37 0.21 0.73 0.29 1.11 0.9 2.8 2.78 5.02 5.13 6.38 2.54 1.47 5.66 1.97 8.73 1.15l44.56-11.94c3.06-0.82 5.49-2.78 6.93-5.29 1.38-2.39 1.89-5.28 1.27-8.16-0.11-0.37-0.21-0.73-0.29-1.1-0.83-2.59-2.5-4.69-4.61-6.06l-0.59-0.33c-2.53-1.46-5.62-1.96-8.66-1.14z m-148.72 47.38c0-8.86 7.19-16.06 16.06-16.06 7.79 0 14.3 5.57 15.75 12.95 2.7 11.18 0.73 22.52-4.67 31.89-5.6 9.69-14.84 17.24-26.37 20.33l-31.42 8.42c-8.56 2.28-17.34-2.8-19.62-11.35-2.29-8.55 2.79-17.33 11.34-19.62l31.43-8.42c3.05-0.82 5.48-2.78 6.92-5.29 1.38-2.39 1.9-5.28 1.28-8.16-0.46-1.49-0.7-3.06-0.7-4.69z m-175.61 39.51l-44.56 11.94c-3.05 0.82-5.49 2.78-6.92 5.29-1.38 2.39-1.9 5.28-1.28 8.16 0.11 0.37 0.21 0.73 0.29 1.1 0.9 2.78 2.8 5.01 5.2 6.39l-0.02 0.03c2.38 1.36 5.25 1.87 8.12 1.25 0.45-0.14 0.91-0.26 1.38-0.36l43.74-11.72c3.06-0.82 5.49-2.78 6.93-5.29 1.38-2.39 1.9-5.28 1.28-8.16-0.12-0.37-0.22-0.73-0.3-1.1-0.9-2.8-2.77-5.03-5.13-6.39-2.54-1.47-5.66-1.97-8.73-1.15z m-215 24.42l44.57-11.93c11.51-3.09 23.27-1.17 32.91 4.4 9.69 5.6 17.24 14.84 20.33 26.37l0.01 0.03c3.07 11.51 1.16 23.25-4.41 32.89l-0.03 0.04 0.03 0.02c-5.57 9.64-14.81 17.17-26.37 20.27l-44.59 11.94c-11.54 3.08-23.31 1.16-32.95-4.41-0.37-0.22-0.73-0.45-1.08-0.68-8.85-5.47-15.79-14.05-18.91-24.66-0.22-0.64-0.4-1.31-0.52-1.97-2.74-11.24-0.78-22.63 4.65-32.03 0.21-0.37 0.44-0.72 0.67-1.07 5.65-9.14 14.61-16.23 25.68-19.2z m52.84 19.04l-44.56 11.93c-2.84 0.76-5.14 2.51-6.61 4.76l-0.33 0.58c-1.37 2.38-1.89 5.24-1.28 8.1 0.11 0.36 0.21 0.73 0.3 1.1 0.83 2.59 2.5 4.69 4.61 6.06l0.58 0.33c2.38 1.38 5.25 1.89 8.1 1.28 0.46-0.14 0.91-0.26 1.39-0.36l43.74-11.72c3.02-0.81 5.46-2.8 6.92-5.35l0.03 0.01c1.36-2.38 1.87-5.25 1.25-8.11-0.11-0.37-0.21-0.73-0.3-1.1-0.89-2.8-2.77-5.03-5.12-6.39-2.55-1.47-5.66-1.97-8.73-1.14z m-282.6 5.93l-243.09-113.95-59.27 15.89 127.01 156.15 175.35-58.09z" fill="#1d4a76" fill-rule="nonzero" data-fill-palette-color="accent"></path></g></svg></g></svg></g></svg></g><defs></defs></svg><rect width="395.52" height="105.43128647087464" fill="none" stroke="none" visibility="hidden"></rect></g></svg></g></svg>